%TF.GenerationSoftware,KiCad,Pcbnew,9.0.7*%
%TF.CreationDate,2026-01-29T22:12:25-06:00*%
%TF.ProjectId,macropad,6d616372-6f70-4616-942e-6b696361645f,rev?*%
%TF.SameCoordinates,Original*%
%TF.FileFunction,Profile,NP*%
%FSLAX46Y46*%
G04 Gerber Fmt 4.6, Leading zero omitted, Abs format (unit mm)*
G04 Created by KiCad (PCBNEW 9.0.7) date 2026-01-29 22:12:25*
%MOMM*%
%LPD*%
G01*
G04 APERTURE LIST*
%TA.AperFunction,Profile*%
%ADD10C,0.050000*%
%TD*%
%TA.AperFunction,Profile*%
%ADD11C,0.100000*%
%TD*%
G04 APERTURE END LIST*
D10*
X130968750Y-154781250D02*
G75*
G02*
X123825050Y-147637500I50J7143750D01*
G01*
X131337500Y-72589000D02*
X171450000Y-72589000D01*
X123825000Y-147637500D02*
X123825000Y-80101500D01*
X131337500Y-72589000D02*
X123825000Y-80101500D01*
X130968750Y-154781250D02*
X171450000Y-154781250D01*
X171450000Y-72589000D02*
X171450000Y-154781250D01*
D11*
%TO.C,D4*%
X136412502Y-147742200D02*
X136412502Y-146336516D01*
X137318049Y-145539359D02*
X138906954Y-145539359D01*
X138906953Y-148539358D02*
X137318049Y-148539358D01*
X139812500Y-146336516D02*
X139812500Y-147742200D01*
X136363017Y-146119638D02*
G75*
G02*
X136412502Y-146336516I-450505J-216876D01*
G01*
X136363017Y-146119638D02*
G75*
G02*
X137065790Y-145471059I450515J216878D01*
G01*
X136412502Y-147742201D02*
G75*
G02*
X136363017Y-147959078I-499990J-1D01*
G01*
X137065790Y-148607655D02*
G75*
G02*
X136363017Y-147959078I-252258J431700D01*
G01*
X137065791Y-148607657D02*
G75*
G02*
X137318049Y-148539358I252261J-431710D01*
G01*
X137318048Y-145539358D02*
G75*
G02*
X137065790Y-145471059I3J500009D01*
G01*
X138906953Y-148539358D02*
G75*
G02*
X139159212Y-148607657I-3J-500012D01*
G01*
X139159212Y-145471060D02*
G75*
G02*
X138906954Y-145539360I-252262J431710D01*
G01*
X139159212Y-145471060D02*
G75*
G02*
X139861984Y-146119638I252258J-431700D01*
G01*
X139812500Y-146336515D02*
G75*
G02*
X139861979Y-146119635I500000J15D01*
G01*
X139861985Y-147959077D02*
G75*
G02*
X139159212Y-148607657I-450514J-216880D01*
G01*
X139861985Y-147959078D02*
G75*
G02*
X139812500Y-147742200I450515J216878D01*
G01*
%TO.C,D5*%
X155462502Y-147742200D02*
X155462502Y-146336516D01*
X156368049Y-145539359D02*
X157956954Y-145539359D01*
X157956953Y-148539358D02*
X156368049Y-148539358D01*
X158862500Y-146336516D02*
X158862500Y-147742200D01*
X155413017Y-146119638D02*
G75*
G02*
X155462502Y-146336516I-450505J-216876D01*
G01*
X155413017Y-146119638D02*
G75*
G02*
X156115790Y-145471059I450515J216878D01*
G01*
X155462502Y-147742201D02*
G75*
G02*
X155413017Y-147959078I-499990J-1D01*
G01*
X156115790Y-148607655D02*
G75*
G02*
X155413017Y-147959078I-252258J431700D01*
G01*
X156115791Y-148607657D02*
G75*
G02*
X156368049Y-148539358I252261J-431710D01*
G01*
X156368048Y-145539358D02*
G75*
G02*
X156115790Y-145471059I3J500009D01*
G01*
X157956953Y-148539358D02*
G75*
G02*
X158209212Y-148607657I-3J-500012D01*
G01*
X158209212Y-145471060D02*
G75*
G02*
X157956954Y-145539360I-252262J431710D01*
G01*
X158209212Y-145471060D02*
G75*
G02*
X158911984Y-146119638I252258J-431700D01*
G01*
X158862500Y-146336515D02*
G75*
G02*
X158911979Y-146119635I500000J15D01*
G01*
X158911985Y-147959077D02*
G75*
G02*
X158209212Y-148607657I-450514J-216880D01*
G01*
X158911985Y-147959078D02*
G75*
G02*
X158862500Y-147742200I450515J216878D01*
G01*
%TO.C,D2*%
X136412502Y-128692200D02*
X136412502Y-127286516D01*
X137318049Y-126489359D02*
X138906954Y-126489359D01*
X138906953Y-129489358D02*
X137318049Y-129489358D01*
X139812500Y-127286516D02*
X139812500Y-128692200D01*
X136363017Y-127069638D02*
G75*
G02*
X136412502Y-127286516I-450505J-216876D01*
G01*
X136363017Y-127069638D02*
G75*
G02*
X137065790Y-126421059I450515J216878D01*
G01*
X136412502Y-128692201D02*
G75*
G02*
X136363017Y-128909078I-499990J-1D01*
G01*
X137065790Y-129557655D02*
G75*
G02*
X136363017Y-128909078I-252258J431700D01*
G01*
X137065791Y-129557657D02*
G75*
G02*
X137318049Y-129489358I252261J-431710D01*
G01*
X137318048Y-126489358D02*
G75*
G02*
X137065790Y-126421059I3J500009D01*
G01*
X138906953Y-129489358D02*
G75*
G02*
X139159212Y-129557657I-3J-500012D01*
G01*
X139159212Y-126421060D02*
G75*
G02*
X138906954Y-126489360I-252262J431710D01*
G01*
X139159212Y-126421060D02*
G75*
G02*
X139861984Y-127069638I252258J-431700D01*
G01*
X139812500Y-127286515D02*
G75*
G02*
X139861979Y-127069635I500000J15D01*
G01*
X139861985Y-128909077D02*
G75*
G02*
X139159212Y-129557657I-450514J-216880D01*
G01*
X139861985Y-128909078D02*
G75*
G02*
X139812500Y-128692200I450515J216878D01*
G01*
%TO.C,D1*%
X136412502Y-109642200D02*
X136412502Y-108236516D01*
X137318049Y-107439359D02*
X138906954Y-107439359D01*
X138906953Y-110439358D02*
X137318049Y-110439358D01*
X139812500Y-108236516D02*
X139812500Y-109642200D01*
X136363017Y-108019638D02*
G75*
G02*
X136412502Y-108236516I-450505J-216876D01*
G01*
X136363017Y-108019638D02*
G75*
G02*
X137065790Y-107371059I450515J216878D01*
G01*
X136412502Y-109642201D02*
G75*
G02*
X136363017Y-109859078I-499990J-1D01*
G01*
X137065790Y-110507655D02*
G75*
G02*
X136363017Y-109859078I-252258J431700D01*
G01*
X137065791Y-110507657D02*
G75*
G02*
X137318049Y-110439358I252261J-431710D01*
G01*
X137318048Y-107439358D02*
G75*
G02*
X137065790Y-107371059I3J500009D01*
G01*
X138906953Y-110439358D02*
G75*
G02*
X139159212Y-110507657I-3J-500012D01*
G01*
X139159212Y-107371060D02*
G75*
G02*
X138906954Y-107439360I-252262J431710D01*
G01*
X139159212Y-107371060D02*
G75*
G02*
X139861984Y-108019638I252258J-431700D01*
G01*
X139812500Y-108236515D02*
G75*
G02*
X139861979Y-108019635I500000J15D01*
G01*
X139861985Y-109859077D02*
G75*
G02*
X139159212Y-110507657I-450514J-216880D01*
G01*
X139861985Y-109859078D02*
G75*
G02*
X139812500Y-109642200I450515J216878D01*
G01*
%TO.C,D3*%
X155462502Y-128692200D02*
X155462502Y-127286516D01*
X156368049Y-126489359D02*
X157956954Y-126489359D01*
X157956953Y-129489358D02*
X156368049Y-129489358D01*
X158862500Y-127286516D02*
X158862500Y-128692200D01*
X155413017Y-127069638D02*
G75*
G02*
X155462502Y-127286516I-450505J-216876D01*
G01*
X155413017Y-127069638D02*
G75*
G02*
X156115790Y-126421059I450515J216878D01*
G01*
X155462502Y-128692201D02*
G75*
G02*
X155413017Y-128909078I-499990J-1D01*
G01*
X156115790Y-129557655D02*
G75*
G02*
X155413017Y-128909078I-252258J431700D01*
G01*
X156115791Y-129557657D02*
G75*
G02*
X156368049Y-129489358I252261J-431710D01*
G01*
X156368048Y-126489358D02*
G75*
G02*
X156115790Y-126421059I3J500009D01*
G01*
X157956953Y-129489358D02*
G75*
G02*
X158209212Y-129557657I-3J-500012D01*
G01*
X158209212Y-126421060D02*
G75*
G02*
X157956954Y-126489360I-252262J431710D01*
G01*
X158209212Y-126421060D02*
G75*
G02*
X158911984Y-127069638I252258J-431700D01*
G01*
X158862500Y-127286515D02*
G75*
G02*
X158911979Y-127069635I500000J15D01*
G01*
X158911985Y-128909077D02*
G75*
G02*
X158209212Y-129557657I-450514J-216880D01*
G01*
X158911985Y-128909078D02*
G75*
G02*
X158862500Y-128692200I450515J216878D01*
G01*
%TD*%
M02*
