%TF.GenerationSoftware,KiCad,Pcbnew,9.0.7*%
%TF.CreationDate,2026-01-29T22:12:25-06:00*%
%TF.ProjectId,macropad,6d616372-6f70-4616-942e-6b696361645f,rev?*%
%TF.SameCoordinates,Original*%
%TF.FileFunction,Copper,L2,Bot*%
%TF.FilePolarity,Positive*%
%FSLAX46Y46*%
G04 Gerber Fmt 4.6, Leading zero omitted, Abs format (unit mm)*
G04 Created by KiCad (PCBNEW 9.0.7) date 2026-01-29 22:12:25*
%MOMM*%
%LPD*%
G01*
G04 APERTURE LIST*
G04 Aperture macros list*
%AMRoundRect*
0 Rectangle with rounded corners*
0 $1 Rounding radius*
0 $2 $3 $4 $5 $6 $7 $8 $9 X,Y pos of 4 corners*
0 Add a 4 corners polygon primitive as box body*
4,1,4,$2,$3,$4,$5,$6,$7,$8,$9,$2,$3,0*
0 Add four circle primitives for the rounded corners*
1,1,$1+$1,$2,$3*
1,1,$1+$1,$4,$5*
1,1,$1+$1,$6,$7*
1,1,$1+$1,$8,$9*
0 Add four rect primitives between the rounded corners*
20,1,$1+$1,$2,$3,$4,$5,0*
20,1,$1+$1,$4,$5,$6,$7,0*
20,1,$1+$1,$6,$7,$8,$9,0*
20,1,$1+$1,$8,$9,$2,$3,0*%
G04 Aperture macros list end*
%TA.AperFunction,SMDPad,CuDef*%
%ADD10RoundRect,0.082000X-0.718000X0.328000X-0.718000X-0.328000X0.718000X-0.328000X0.718000X0.328000X0*%
%TD*%
%TA.AperFunction,ComponentPad*%
%ADD11C,2.200000*%
%TD*%
%TA.AperFunction,ComponentPad*%
%ADD12R,1.700000X1.700000*%
%TD*%
%TA.AperFunction,ComponentPad*%
%ADD13C,1.700000*%
%TD*%
%TA.AperFunction,ComponentPad*%
%ADD14C,1.524000*%
%TD*%
%TA.AperFunction,ComponentPad*%
%ADD15R,2.000000X2.000000*%
%TD*%
%TA.AperFunction,ComponentPad*%
%ADD16C,2.000000*%
%TD*%
%TA.AperFunction,ComponentPad*%
%ADD17R,3.200000X2.000000*%
%TD*%
%TA.AperFunction,ViaPad*%
%ADD18C,0.600000*%
%TD*%
%TA.AperFunction,Conductor*%
%ADD19C,0.250000*%
%TD*%
%TA.AperFunction,Conductor*%
%ADD20C,0.200000*%
%TD*%
G04 APERTURE END LIST*
D10*
%TO.P,D4,1,VDD*%
%TO.N,+5V*%
X135512501Y-146289358D03*
%TO.P,D4,2,DOUT*%
%TO.N,Net-(D4-DOUT)*%
X135512501Y-147789358D03*
%TO.P,D4,3,VSS*%
%TO.N,GND*%
X140712501Y-147789358D03*
%TO.P,D4,4,DIN*%
%TO.N,Net-(D3-DOUT)*%
X140712501Y-146289358D03*
%TD*%
D11*
%TO.P,SW5,1,1*%
%TO.N,GND*%
X159702500Y-137795000D03*
%TO.P,SW5,2,2*%
%TO.N,Net-(U1-GPIO27{slash}ADC1{slash}A1)*%
X153352500Y-140335000D03*
%TD*%
D12*
%TO.P,J1,1,Pin_1*%
%TO.N,GND*%
X165337500Y-78630000D03*
D13*
%TO.P,J1,2,Pin_2*%
%TO.N,+3V3*%
X165337500Y-81170000D03*
%TO.P,J1,3,Pin_3*%
%TO.N,SCL*%
X165337500Y-83710000D03*
%TO.P,J1,4,Pin_4*%
%TO.N,SDA*%
X165337500Y-86250000D03*
%TD*%
D11*
%TO.P,SW3,1,1*%
%TO.N,GND*%
X159702500Y-118745000D03*
%TO.P,SW3,2,2*%
%TO.N,Net-(U1-GPIO28{slash}ADC2{slash}A2)*%
X153352500Y-121285000D03*
%TD*%
D10*
%TO.P,D5,1,VDD*%
%TO.N,+5V*%
X154562501Y-146289358D03*
%TO.P,D5,2,DOUT*%
%TO.N,unconnected-(D5-DOUT-Pad2)*%
X154562501Y-147789358D03*
%TO.P,D5,3,VSS*%
%TO.N,GND*%
X159762501Y-147789358D03*
%TO.P,D5,4,DIN*%
%TO.N,Net-(D4-DOUT)*%
X159762501Y-146289358D03*
%TD*%
D14*
%TO.P,U1,1,GPIO26/ADC0/A0*%
%TO.N,Net-(U1-GPIO26{slash}ADC0{slash}A0)*%
X140017500Y-75510000D03*
%TO.P,U1,2,GPIO27/ADC1/A1*%
%TO.N,Net-(U1-GPIO27{slash}ADC1{slash}A1)*%
X140017500Y-78050000D03*
%TO.P,U1,3,GPIO28/ADC2/A2*%
%TO.N,Net-(U1-GPIO28{slash}ADC2{slash}A2)*%
X140017500Y-80590000D03*
%TO.P,U1,4,GPIO29/ADC3/A3*%
%TO.N,Net-(U1-GPIO29{slash}ADC3{slash}A3)*%
X140017500Y-83130000D03*
%TO.P,U1,5,GPIO6/SDA*%
%TO.N,Net-(U1-GPIO6{slash}SDA)*%
X140017500Y-85670000D03*
%TO.P,U1,6,GPIO7/SCL*%
%TO.N,SCL*%
X140017500Y-88210000D03*
%TO.P,U1,7,GPIO0/TX*%
%TO.N,SDA*%
X140017500Y-90750000D03*
%TO.P,U1,8,GPIO1/RX*%
%TO.N,Net-(D1-DIN)*%
X155257500Y-90750000D03*
%TO.P,U1,9,GPIO2/SCK*%
%TO.N,Net-(U1-GPIO2{slash}SCK)*%
X155257500Y-88210000D03*
%TO.P,U1,10,GPIO4/MISO*%
%TO.N,Net-(U1-GPIO4{slash}MISO)*%
X155257500Y-85670000D03*
%TO.P,U1,11,GPIO3/MOSI*%
%TO.N,Net-(U1-GPIO3{slash}MOSI)*%
X155257500Y-83130000D03*
%TO.P,U1,12,3V3*%
%TO.N,+3V3*%
X155257500Y-80590000D03*
%TO.P,U1,13,GND*%
%TO.N,GND*%
X155257500Y-78050000D03*
%TO.P,U1,14,VBUS*%
%TO.N,+5V*%
X155257500Y-75510000D03*
%TD*%
D11*
%TO.P,SW2,1,1*%
%TO.N,GND*%
X140652500Y-118745000D03*
%TO.P,SW2,2,2*%
%TO.N,Net-(U1-GPIO29{slash}ADC3{slash}A3)*%
X134302500Y-121285000D03*
%TD*%
D10*
%TO.P,D2,1,VDD*%
%TO.N,+5V*%
X135512501Y-127239358D03*
%TO.P,D2,2,DOUT*%
%TO.N,Net-(D2-DOUT)*%
X135512501Y-128739358D03*
%TO.P,D2,3,VSS*%
%TO.N,GND*%
X140712501Y-128739358D03*
%TO.P,D2,4,DIN*%
%TO.N,Net-(D1-DOUT)*%
X140712501Y-127239358D03*
%TD*%
%TO.P,D1,1,VDD*%
%TO.N,+5V*%
X135512501Y-108189358D03*
%TO.P,D1,2,DOUT*%
%TO.N,Net-(D1-DOUT)*%
X135512501Y-109689358D03*
%TO.P,D1,3,VSS*%
%TO.N,GND*%
X140712501Y-109689358D03*
%TO.P,D1,4,DIN*%
%TO.N,Net-(D1-DIN)*%
X140712501Y-108189358D03*
%TD*%
%TO.P,D3,1,VDD*%
%TO.N,+5V*%
X154562501Y-127239358D03*
%TO.P,D3,2,DOUT*%
%TO.N,Net-(D3-DOUT)*%
X154562501Y-128739358D03*
%TO.P,D3,3,VSS*%
%TO.N,GND*%
X159762501Y-128739358D03*
%TO.P,D3,4,DIN*%
%TO.N,Net-(D2-DOUT)*%
X159762501Y-127239358D03*
%TD*%
D11*
%TO.P,SW4,1,1*%
%TO.N,GND*%
X140652500Y-137795000D03*
%TO.P,SW4,2,2*%
%TO.N,Net-(U1-GPIO26{slash}ADC0{slash}A0)*%
X134302500Y-140335000D03*
%TD*%
D15*
%TO.P,SW6,A,A*%
%TO.N,Net-(U1-GPIO2{slash}SCK)*%
X150018750Y-102156250D03*
D16*
%TO.P,SW6,B,B*%
%TO.N,Net-(U1-GPIO3{slash}MOSI)*%
X150018750Y-107156250D03*
%TO.P,SW6,C,C*%
%TO.N,GND*%
X150018750Y-104656250D03*
D17*
%TO.P,SW6,MP*%
%TO.N,N/C*%
X157518750Y-99056250D03*
X157518750Y-110256250D03*
D16*
%TO.P,SW6,S1,S1*%
%TO.N,Net-(U1-GPIO4{slash}MISO)*%
X164518750Y-107156250D03*
%TO.P,SW6,S2,S2*%
%TO.N,GND*%
X164518750Y-102156250D03*
%TD*%
D11*
%TO.P,SW1,1,1*%
%TO.N,GND*%
X140652500Y-99695000D03*
%TO.P,SW1,2,2*%
%TO.N,Net-(U1-GPIO6{slash}SDA)*%
X134302500Y-102235000D03*
%TD*%
D18*
%TO.N,GND*%
X159087500Y-132000000D03*
%TO.N,+5V*%
X146837500Y-153250000D03*
X150018750Y-150018750D03*
X150018750Y-133950000D03*
X150018750Y-128587500D03*
%TO.N,Net-(D3-DOUT)*%
X147637500Y-132750000D03*
X142875000Y-145256250D03*
%TO.N,Net-(U1-GPIO27{slash}ADC1{slash}A1)*%
X133837500Y-82000000D03*
X130336500Y-86250000D03*
%TO.N,Net-(U1-GPIO28{slash}ADC2{slash}A2)*%
X132087500Y-132750000D03*
X131587500Y-87000000D03*
%TO.N,Net-(U1-GPIO3{slash}MOSI)*%
X155087500Y-113250000D03*
X150837500Y-113000000D03*
X159337500Y-86000000D03*
%TO.N,SDA*%
X147587500Y-94250000D03*
%TD*%
D19*
%TO.N,GND*%
X159087500Y-132000000D02*
X159762501Y-131324999D01*
X159762501Y-131324999D02*
X159762501Y-128739358D01*
%TO.N,+5V*%
X135512501Y-127239358D02*
X134712501Y-127239358D01*
X153748142Y-146289358D02*
X154562501Y-146289358D01*
X135728500Y-140925669D02*
X135512501Y-141141668D01*
X137555250Y-153250000D02*
X146837500Y-153250000D01*
X135512501Y-141141668D02*
X135512501Y-146289358D01*
X150018750Y-128587500D02*
X151366892Y-127239358D01*
X134712501Y-146289358D02*
X134386501Y-146615358D01*
X134698142Y-108189358D02*
X135512501Y-108189358D01*
X133350000Y-116340138D02*
X133350000Y-109537500D01*
X140468165Y-87122000D02*
X139566835Y-87122000D01*
X151366892Y-127239358D02*
X154562501Y-127239358D01*
X135728500Y-139744331D02*
X135728500Y-140925669D01*
X150018750Y-150018750D02*
X153748142Y-146289358D01*
X152080165Y-75510000D02*
X140468165Y-87122000D01*
X134386501Y-150081251D02*
X137555250Y-153250000D01*
X135736500Y-105851000D02*
X135512501Y-106074999D01*
X133350000Y-137365831D02*
X135728500Y-139744331D01*
X135731250Y-124292921D02*
X135731250Y-118721388D01*
X133350000Y-109537500D02*
X134698142Y-108189358D01*
X135512501Y-146289358D02*
X134712501Y-146289358D01*
X133350000Y-128601859D02*
X133350000Y-137365831D01*
X155257500Y-75510000D02*
X152080165Y-75510000D01*
X139566835Y-87122000D02*
X135736500Y-90952335D01*
X135736500Y-90952335D02*
X135736500Y-105851000D01*
X150018750Y-142545607D02*
X150018750Y-133950000D01*
X153762501Y-146289358D02*
X150018750Y-142545607D01*
X135512501Y-124511670D02*
X135731250Y-124292921D01*
X135512501Y-106074999D02*
X135512501Y-108189358D01*
X134712501Y-127239358D02*
X133350000Y-128601859D01*
X134386501Y-146615358D02*
X134386501Y-150081251D01*
X135731250Y-118721388D02*
X133350000Y-116340138D01*
X135512501Y-127239358D02*
X135512501Y-124511670D01*
X154562501Y-146289358D02*
X153762501Y-146289358D01*
D20*
%TO.N,Net-(D1-DIN)*%
X143337500Y-102931530D02*
X140712501Y-105556529D01*
X148837500Y-90750000D02*
X143337500Y-96250000D01*
X155257500Y-90750000D02*
X148837500Y-90750000D01*
X143337500Y-96250000D02*
X143337500Y-102931530D01*
X140712501Y-105556529D02*
X140712501Y-108189358D01*
%TO.N,Net-(D1-DOUT)*%
X135512501Y-109689358D02*
X135512501Y-117900185D01*
X135512501Y-117900185D02*
X140712501Y-123100185D01*
X140712501Y-123100185D02*
X140712501Y-127239358D01*
%TO.N,Net-(D2-DOUT)*%
X162958108Y-127239358D02*
X159762501Y-127239358D01*
X138112500Y-133350000D02*
X161925000Y-133350000D01*
X164306250Y-128587500D02*
X162958108Y-127239358D01*
X161925000Y-133350000D02*
X164306250Y-130968750D01*
X135512501Y-130750001D02*
X138112500Y-133350000D01*
X135512501Y-128739358D02*
X135512501Y-130750001D01*
X164306250Y-130968750D02*
X164306250Y-128587500D01*
%TO.N,Net-(D3-DOUT)*%
X142875000Y-145256250D02*
X141841892Y-146289358D01*
X141841892Y-146289358D02*
X140712501Y-146289358D01*
X154562501Y-128739358D02*
X151648142Y-128739358D01*
X151648142Y-128739358D02*
X147637500Y-132750000D01*
%TO.N,Net-(D4-DOUT)*%
X164306250Y-147637500D02*
X162958108Y-146289358D01*
X164306250Y-150018750D02*
X164306250Y-147637500D01*
X162958108Y-146289358D02*
X159762501Y-146289358D01*
X161925000Y-152400000D02*
X164306250Y-150018750D01*
X135512501Y-149800001D02*
X138112500Y-152400000D01*
X135512501Y-147789358D02*
X135512501Y-149800001D01*
X138112500Y-152400000D02*
X161925000Y-152400000D01*
%TO.N,Net-(U1-GPIO27{slash}ADC1{slash}A1)*%
X130336500Y-85501000D02*
X133837500Y-82000000D01*
X130336500Y-86250000D02*
X130336500Y-85501000D01*
%TO.N,Net-(U1-GPIO28{slash}ADC2{slash}A2)*%
X129587500Y-130250000D02*
X132087500Y-132750000D01*
X129587500Y-89000000D02*
X129587500Y-130250000D01*
X131587500Y-87000000D02*
X129587500Y-89000000D01*
%TO.N,Net-(U1-GPIO3{slash}MOSI)*%
X151087500Y-113250000D02*
X150837500Y-113000000D01*
X155257500Y-83130000D02*
X156467500Y-83130000D01*
X155087500Y-113250000D02*
X151087500Y-113250000D01*
X156467500Y-83130000D02*
X159337500Y-86000000D01*
%TO.N,SCL*%
X141494500Y-86733000D02*
X162266000Y-86733000D01*
X140017500Y-88210000D02*
X141494500Y-86733000D01*
X162266000Y-86733000D02*
X165252500Y-83746500D01*
%TO.N,SDA*%
X157289000Y-94250000D02*
X147587500Y-94250000D01*
X165252500Y-86286500D02*
X157289000Y-94250000D01*
D19*
%TO.N,+3V3*%
X155874000Y-81206500D02*
X155257500Y-80590000D01*
X165252500Y-81206500D02*
X155874000Y-81206500D01*
%TD*%
%TA.AperFunction,Conductor*%
%TO.N,GND*%
G36*
X170892539Y-73109185D02*
G01*
X170938294Y-73161989D01*
X170949500Y-73213500D01*
X170949500Y-154156750D01*
X170929815Y-154223789D01*
X170877011Y-154269544D01*
X170825500Y-154280750D01*
X147017791Y-154280750D01*
X146950752Y-154261065D01*
X146904997Y-154208261D01*
X146895053Y-154139103D01*
X146924078Y-154075547D01*
X146982856Y-154037773D01*
X146993599Y-154035133D01*
X147048643Y-154024183D01*
X147070997Y-154019737D01*
X147216679Y-153959394D01*
X147347789Y-153871789D01*
X147459289Y-153760289D01*
X147546894Y-153629179D01*
X147607237Y-153483497D01*
X147638000Y-153328842D01*
X147638000Y-153171158D01*
X147633531Y-153148690D01*
X147639760Y-153079099D01*
X147682623Y-153023922D01*
X147748513Y-153000678D01*
X147755149Y-153000500D01*
X161838331Y-153000500D01*
X161838347Y-153000501D01*
X161845943Y-153000501D01*
X162004054Y-153000501D01*
X162004057Y-153000501D01*
X162156785Y-152959577D01*
X162206904Y-152930639D01*
X162293716Y-152880520D01*
X162405520Y-152768716D01*
X162405520Y-152768714D01*
X162415728Y-152758507D01*
X162415730Y-152758504D01*
X164664756Y-150509478D01*
X164664761Y-150509474D01*
X164674964Y-150499270D01*
X164674966Y-150499270D01*
X164786770Y-150387466D01*
X164858225Y-150263702D01*
X164865827Y-150250535D01*
X164906751Y-150097807D01*
X164906751Y-149939693D01*
X164906751Y-149932098D01*
X164906750Y-149932080D01*
X164906750Y-147726560D01*
X164906751Y-147726547D01*
X164906751Y-147558444D01*
X164901637Y-147539358D01*
X164865827Y-147405716D01*
X164810235Y-147309427D01*
X164786774Y-147268790D01*
X164786768Y-147268782D01*
X163445698Y-145927713D01*
X163445696Y-145927710D01*
X163326825Y-145808839D01*
X163326824Y-145808838D01*
X163213276Y-145743281D01*
X163213276Y-145743280D01*
X163213271Y-145743279D01*
X163205113Y-145738568D01*
X163189894Y-145729781D01*
X163151711Y-145719550D01*
X163037165Y-145688857D01*
X162879051Y-145688857D01*
X162871455Y-145688857D01*
X162871439Y-145688858D01*
X161066779Y-145688858D01*
X160999740Y-145669173D01*
X160968403Y-145640344D01*
X160957454Y-145626075D01*
X160895945Y-145545914D01*
X160781707Y-145458257D01*
X160774263Y-145452545D01*
X160632564Y-145393851D01*
X160632562Y-145393850D01*
X160518679Y-145378858D01*
X160518678Y-145378858D01*
X159381087Y-145378858D01*
X159314048Y-145359173D01*
X159281887Y-145329258D01*
X159207078Y-145229511D01*
X159183243Y-145207515D01*
X159072881Y-145105669D01*
X159072878Y-145105667D01*
X159072877Y-145105666D01*
X158918492Y-145008170D01*
X158912300Y-145005688D01*
X158749000Y-144940226D01*
X158748999Y-144940225D01*
X158748995Y-144940224D01*
X158570010Y-144904085D01*
X158566460Y-144903700D01*
X158564908Y-144903055D01*
X158564476Y-144902968D01*
X158564493Y-144902882D01*
X158501937Y-144876894D01*
X158462149Y-144819460D01*
X158459729Y-144749632D01*
X158495445Y-144689581D01*
X158504359Y-144682049D01*
X158566374Y-144634463D01*
X158649542Y-144570646D01*
X158858146Y-144362042D01*
X159037738Y-144127994D01*
X159185243Y-143872507D01*
X159298139Y-143599952D01*
X159374493Y-143314993D01*
X159413000Y-143022506D01*
X159413000Y-142788389D01*
X161142000Y-142788389D01*
X161142000Y-142961611D01*
X161169098Y-143132701D01*
X161222627Y-143297445D01*
X161301268Y-143451788D01*
X161403086Y-143591928D01*
X161525572Y-143714414D01*
X161665712Y-143816232D01*
X161820055Y-143894873D01*
X161984799Y-143948402D01*
X162155889Y-143975500D01*
X162155890Y-143975500D01*
X162329110Y-143975500D01*
X162329111Y-143975500D01*
X162500201Y-143948402D01*
X162664945Y-143894873D01*
X162819288Y-143816232D01*
X162959428Y-143714414D01*
X163081914Y-143591928D01*
X163183732Y-143451788D01*
X163262373Y-143297445D01*
X163315902Y-143132701D01*
X163343000Y-142961611D01*
X163343000Y-142788389D01*
X163315902Y-142617299D01*
X163262373Y-142452555D01*
X163183732Y-142298212D01*
X163081914Y-142158072D01*
X162959428Y-142035586D01*
X162819288Y-141933768D01*
X162664945Y-141855127D01*
X162500201Y-141801598D01*
X162500199Y-141801597D01*
X162500198Y-141801597D01*
X162368771Y-141780781D01*
X162329111Y-141774500D01*
X162155889Y-141774500D01*
X162116228Y-141780781D01*
X161984802Y-141801597D01*
X161820052Y-141855128D01*
X161665711Y-141933768D01*
X161608789Y-141975125D01*
X161525572Y-142035586D01*
X161525570Y-142035588D01*
X161525569Y-142035588D01*
X161403088Y-142158069D01*
X161403088Y-142158070D01*
X161403086Y-142158072D01*
X161359359Y-142218256D01*
X161301268Y-142298211D01*
X161222628Y-142452552D01*
X161169097Y-142617302D01*
X161151555Y-142728058D01*
X161142000Y-142788389D01*
X159413000Y-142788389D01*
X159413000Y-142727494D01*
X159374493Y-142435007D01*
X159298139Y-142150048D01*
X159185243Y-141877493D01*
X159156638Y-141827948D01*
X159037738Y-141622006D01*
X158858147Y-141387959D01*
X158858141Y-141387952D01*
X158649547Y-141179358D01*
X158649540Y-141179352D01*
X158415493Y-140999761D01*
X158160010Y-140852258D01*
X158160000Y-140852254D01*
X157887461Y-140739364D01*
X157887454Y-140739362D01*
X157887452Y-140739361D01*
X157602493Y-140663007D01*
X157553613Y-140656571D01*
X157310013Y-140624500D01*
X157310006Y-140624500D01*
X157014994Y-140624500D01*
X157014986Y-140624500D01*
X156736585Y-140661153D01*
X156722507Y-140663007D01*
X156547928Y-140709785D01*
X156437548Y-140739361D01*
X156437538Y-140739364D01*
X156164999Y-140852254D01*
X156164989Y-140852258D01*
X155909506Y-140999761D01*
X155675459Y-141179352D01*
X155675452Y-141179358D01*
X155466858Y-141387952D01*
X155466852Y-141387959D01*
X155287261Y-141622006D01*
X155139758Y-141877489D01*
X155139754Y-141877499D01*
X155026864Y-142150038D01*
X155026861Y-142150048D01*
X154950508Y-142435004D01*
X154950506Y-142435015D01*
X154912000Y-142727486D01*
X154912000Y-143022513D01*
X154944071Y-143266113D01*
X154950507Y-143314993D01*
X155024712Y-143591930D01*
X155026861Y-143599951D01*
X155026864Y-143599961D01*
X155139754Y-143872500D01*
X155139758Y-143872510D01*
X155287261Y-144127993D01*
X155466852Y-144362040D01*
X155466858Y-144362047D01*
X155675452Y-144570641D01*
X155675459Y-144570647D01*
X155820749Y-144682132D01*
X155861952Y-144738560D01*
X155866107Y-144808306D01*
X155831895Y-144869226D01*
X155770178Y-144901979D01*
X155758654Y-144903783D01*
X155754996Y-144904180D01*
X155576033Y-144940315D01*
X155576028Y-144940316D01*
X155406553Y-145008253D01*
X155252180Y-145105741D01*
X155252171Y-145105748D01*
X155117999Y-145229565D01*
X155072272Y-145290535D01*
X155043231Y-145329258D01*
X154987262Y-145371078D01*
X154944032Y-145378858D01*
X153806320Y-145378858D01*
X153806316Y-145378859D01*
X153805307Y-145378992D01*
X153805006Y-145378945D01*
X153802279Y-145379124D01*
X153802238Y-145378512D01*
X153736273Y-145368213D01*
X153701465Y-145343731D01*
X152457572Y-144099838D01*
X152424087Y-144038515D01*
X152429071Y-143968823D01*
X152470943Y-143912890D01*
X152500743Y-143897437D01*
X152500452Y-143896734D01*
X152504935Y-143894876D01*
X152504945Y-143894873D01*
X152659288Y-143816232D01*
X152799428Y-143714414D01*
X152921914Y-143591928D01*
X153023732Y-143451788D01*
X153102373Y-143297445D01*
X153155902Y-143132701D01*
X153183000Y-142961611D01*
X153183000Y-142788389D01*
X153155902Y-142617299D01*
X153102373Y-142452555D01*
X153023732Y-142298212D01*
X152921914Y-142158072D01*
X152869982Y-142106140D01*
X152836497Y-142044817D01*
X152841481Y-141975125D01*
X152883353Y-141919192D01*
X152948817Y-141894775D01*
X152977061Y-141895986D01*
X152977712Y-141896089D01*
X152977715Y-141896090D01*
X153226538Y-141935500D01*
X153226539Y-141935500D01*
X153478461Y-141935500D01*
X153478462Y-141935500D01*
X153727285Y-141896090D01*
X153966879Y-141818241D01*
X154191345Y-141703870D01*
X154395156Y-141555793D01*
X154573293Y-141377656D01*
X154721370Y-141173845D01*
X154835741Y-140949379D01*
X154913590Y-140709785D01*
X154953000Y-140460962D01*
X154953000Y-140209038D01*
X154913590Y-139960215D01*
X154835741Y-139720621D01*
X154835739Y-139720618D01*
X154835739Y-139720616D01*
X154794247Y-139639184D01*
X154721370Y-139496155D01*
X154619253Y-139355602D01*
X154573298Y-139292350D01*
X154573294Y-139292345D01*
X154395154Y-139114205D01*
X154395149Y-139114201D01*
X154191348Y-138966132D01*
X154191347Y-138966131D01*
X154191345Y-138966130D01*
X154121247Y-138930413D01*
X153966883Y-138851760D01*
X153727285Y-138773910D01*
X153478462Y-138734500D01*
X153226538Y-138734500D01*
X153102126Y-138754205D01*
X152977714Y-138773910D01*
X152738116Y-138851760D01*
X152513651Y-138966132D01*
X152309850Y-139114201D01*
X152309845Y-139114205D01*
X152131705Y-139292345D01*
X152131701Y-139292350D01*
X151983632Y-139496151D01*
X151869260Y-139720616D01*
X151791410Y-139960214D01*
X151752000Y-140209038D01*
X151752000Y-140460961D01*
X151791410Y-140709785D01*
X151869260Y-140949383D01*
X151894930Y-140999762D01*
X151975672Y-141158227D01*
X151983632Y-141173848D01*
X152131701Y-141377649D01*
X152131705Y-141377654D01*
X152131707Y-141377656D01*
X152309844Y-141555793D01*
X152309845Y-141555794D01*
X152309844Y-141555794D01*
X152316161Y-141560383D01*
X152358827Y-141615714D01*
X152364805Y-141685327D01*
X152332199Y-141747122D01*
X152271360Y-141781479D01*
X152223878Y-141783174D01*
X152169111Y-141774500D01*
X151995889Y-141774500D01*
X151956228Y-141780781D01*
X151824802Y-141801597D01*
X151660052Y-141855128D01*
X151505711Y-141933768D01*
X151448789Y-141975125D01*
X151365572Y-142035586D01*
X151365570Y-142035588D01*
X151365569Y-142035588D01*
X151243088Y-142158069D01*
X151243088Y-142158070D01*
X151243086Y-142158072D01*
X151199359Y-142218256D01*
X151141268Y-142298211D01*
X151062626Y-142452556D01*
X151060766Y-142457048D01*
X151059273Y-142456429D01*
X151023806Y-142508265D01*
X150959438Y-142535443D01*
X150890596Y-142523507D01*
X150857661Y-142499928D01*
X150814781Y-142457048D01*
X150680569Y-142322835D01*
X150647084Y-142261512D01*
X150644250Y-142235154D01*
X150644250Y-137669071D01*
X158102500Y-137669071D01*
X158102500Y-137920928D01*
X158141897Y-138169669D01*
X158219719Y-138409184D01*
X158334057Y-138633583D01*
X158408248Y-138735697D01*
X158408248Y-138735698D01*
X159024921Y-138119024D01*
X159037859Y-138150258D01*
X159119937Y-138273097D01*
X159224403Y-138377563D01*
X159347242Y-138459641D01*
X159378474Y-138472577D01*
X158761800Y-139089250D01*
X158863916Y-139163442D01*
X159088315Y-139277780D01*
X159327830Y-139355602D01*
X159576572Y-139395000D01*
X159828428Y-139395000D01*
X160077169Y-139355602D01*
X160316684Y-139277780D01*
X160541075Y-139163446D01*
X160541081Y-139163442D01*
X160643197Y-139089250D01*
X160643198Y-139089250D01*
X160026525Y-138472578D01*
X160057758Y-138459641D01*
X160180597Y-138377563D01*
X160285063Y-138273097D01*
X160367141Y-138150258D01*
X160380078Y-138119025D01*
X160996750Y-138735698D01*
X160996750Y-138735697D01*
X161070942Y-138633581D01*
X161070946Y-138633575D01*
X161185280Y-138409184D01*
X161263102Y-138169669D01*
X161302500Y-137920928D01*
X161302500Y-137669071D01*
X161263102Y-137420330D01*
X161185280Y-137180815D01*
X161070942Y-136956416D01*
X160996750Y-136854301D01*
X160996750Y-136854300D01*
X160380077Y-137470973D01*
X160367141Y-137439742D01*
X160285063Y-137316903D01*
X160180597Y-137212437D01*
X160057758Y-137130359D01*
X160026524Y-137117421D01*
X160643198Y-136500748D01*
X160541083Y-136426557D01*
X160316684Y-136312219D01*
X160077169Y-136234397D01*
X159828428Y-136195000D01*
X159576572Y-136195000D01*
X159327830Y-136234397D01*
X159088315Y-136312219D01*
X158863913Y-136426559D01*
X158761801Y-136500747D01*
X158761800Y-136500748D01*
X159378474Y-137117421D01*
X159347242Y-137130359D01*
X159224403Y-137212437D01*
X159119937Y-137316903D01*
X159037859Y-137439742D01*
X159024921Y-137470974D01*
X158408248Y-136854300D01*
X158408247Y-136854301D01*
X158334059Y-136956413D01*
X158219719Y-137180815D01*
X158141897Y-137420330D01*
X158102500Y-137669071D01*
X150644250Y-137669071D01*
X150644250Y-134492350D01*
X150663935Y-134425311D01*
X150665148Y-134423459D01*
X150665559Y-134422843D01*
X150728144Y-134329179D01*
X150788487Y-134183497D01*
X150793255Y-134159524D01*
X150814981Y-134050308D01*
X150847366Y-133988397D01*
X150908082Y-133953823D01*
X150936598Y-133950500D01*
X161838331Y-133950500D01*
X161838347Y-133950501D01*
X161845943Y-133950501D01*
X162004054Y-133950501D01*
X162004057Y-133950501D01*
X162156785Y-133909577D01*
X162223328Y-133871158D01*
X162223332Y-133871156D01*
X162293709Y-133830524D01*
X162293708Y-133830524D01*
X162293716Y-133830520D01*
X162405520Y-133718716D01*
X162405520Y-133718714D01*
X162415724Y-133708511D01*
X162415728Y-133708506D01*
X164664756Y-131459478D01*
X164664761Y-131459474D01*
X164674964Y-131449270D01*
X164674966Y-131449270D01*
X164786770Y-131337466D01*
X164848514Y-131230521D01*
X164865827Y-131200535D01*
X164906751Y-131047807D01*
X164906751Y-130889693D01*
X164906751Y-130882098D01*
X164906750Y-130882080D01*
X164906750Y-128676560D01*
X164906751Y-128676547D01*
X164906751Y-128508444D01*
X164901637Y-128489358D01*
X164865827Y-128355716D01*
X164810235Y-128259427D01*
X164786774Y-128218790D01*
X164786768Y-128218782D01*
X163445698Y-126877713D01*
X163445696Y-126877710D01*
X163326825Y-126758839D01*
X163326824Y-126758838D01*
X163213276Y-126693281D01*
X163213276Y-126693280D01*
X163213271Y-126693279D01*
X163199007Y-126685043D01*
X163189894Y-126679781D01*
X163151711Y-126669550D01*
X163037165Y-126638857D01*
X162879051Y-126638857D01*
X162871455Y-126638857D01*
X162871439Y-126638858D01*
X161066779Y-126638858D01*
X160999740Y-126619173D01*
X160968403Y-126590344D01*
X160949220Y-126565344D01*
X160895945Y-126495914D01*
X160774264Y-126402546D01*
X160774263Y-126402545D01*
X160632564Y-126343851D01*
X160632562Y-126343850D01*
X160518679Y-126328858D01*
X160518678Y-126328858D01*
X159381087Y-126328858D01*
X159314048Y-126309173D01*
X159281887Y-126279258D01*
X159207078Y-126179511D01*
X159207073Y-126179506D01*
X159072881Y-126055669D01*
X159072878Y-126055667D01*
X159072877Y-126055666D01*
X158918492Y-125958170D01*
X158912300Y-125955688D01*
X158749000Y-125890226D01*
X158748999Y-125890225D01*
X158748995Y-125890224D01*
X158570010Y-125854085D01*
X158566460Y-125853700D01*
X158564908Y-125853055D01*
X158564476Y-125852968D01*
X158564493Y-125852882D01*
X158501937Y-125826894D01*
X158462149Y-125769460D01*
X158459729Y-125699632D01*
X158495445Y-125639581D01*
X158504359Y-125632049D01*
X158649542Y-125520646D01*
X158858146Y-125312042D01*
X159037738Y-125077994D01*
X159185243Y-124822507D01*
X159298139Y-124549952D01*
X159374493Y-124264993D01*
X159413000Y-123972506D01*
X159413000Y-123738389D01*
X161142000Y-123738389D01*
X161142000Y-123911610D01*
X161163840Y-124049507D01*
X161169098Y-124082701D01*
X161222627Y-124247445D01*
X161301268Y-124401788D01*
X161403086Y-124541928D01*
X161525572Y-124664414D01*
X161665712Y-124766232D01*
X161820055Y-124844873D01*
X161984799Y-124898402D01*
X162155889Y-124925500D01*
X162155890Y-124925500D01*
X162329110Y-124925500D01*
X162329111Y-124925500D01*
X162500201Y-124898402D01*
X162664945Y-124844873D01*
X162819288Y-124766232D01*
X162959428Y-124664414D01*
X163081914Y-124541928D01*
X163183732Y-124401788D01*
X163262373Y-124247445D01*
X163315902Y-124082701D01*
X163343000Y-123911611D01*
X163343000Y-123738389D01*
X163315902Y-123567299D01*
X163262373Y-123402555D01*
X163183732Y-123248212D01*
X163081914Y-123108072D01*
X162959428Y-122985586D01*
X162819288Y-122883768D01*
X162664945Y-122805127D01*
X162500201Y-122751598D01*
X162500199Y-122751597D01*
X162500198Y-122751597D01*
X162368771Y-122730781D01*
X162329111Y-122724500D01*
X162155889Y-122724500D01*
X162116228Y-122730781D01*
X161984802Y-122751597D01*
X161820052Y-122805128D01*
X161665711Y-122883768D01*
X161608789Y-122925125D01*
X161525572Y-122985586D01*
X161525570Y-122985588D01*
X161525569Y-122985588D01*
X161403088Y-123108069D01*
X161403088Y-123108070D01*
X161403086Y-123108072D01*
X161359359Y-123168256D01*
X161301268Y-123248211D01*
X161222628Y-123402552D01*
X161169097Y-123567302D01*
X161142000Y-123738389D01*
X159413000Y-123738389D01*
X159413000Y-123677494D01*
X159374493Y-123385007D01*
X159298139Y-123100048D01*
X159185243Y-122827493D01*
X159141065Y-122750975D01*
X159037738Y-122572006D01*
X158858147Y-122337959D01*
X158858141Y-122337952D01*
X158649547Y-122129358D01*
X158649540Y-122129352D01*
X158415493Y-121949761D01*
X158160010Y-121802258D01*
X158160000Y-121802254D01*
X157887461Y-121689364D01*
X157887454Y-121689362D01*
X157887452Y-121689361D01*
X157602493Y-121613007D01*
X157553613Y-121606571D01*
X157310013Y-121574500D01*
X157310006Y-121574500D01*
X157014994Y-121574500D01*
X157014986Y-121574500D01*
X156736585Y-121611153D01*
X156722507Y-121613007D01*
X156547928Y-121659785D01*
X156437548Y-121689361D01*
X156437538Y-121689364D01*
X156164999Y-121802254D01*
X156164989Y-121802258D01*
X155909506Y-121949761D01*
X155675459Y-122129352D01*
X155675452Y-122129358D01*
X155466858Y-122337952D01*
X155466852Y-122337959D01*
X155287261Y-122572006D01*
X155139758Y-122827489D01*
X155139754Y-122827499D01*
X155026864Y-123100038D01*
X155026861Y-123100048D01*
X154950508Y-123385004D01*
X154950506Y-123385015D01*
X154912000Y-123677486D01*
X154912000Y-123972513D01*
X154930488Y-124112937D01*
X154950507Y-124264993D01*
X155024712Y-124541930D01*
X155026861Y-124549951D01*
X155026864Y-124549961D01*
X155139754Y-124822500D01*
X155139758Y-124822510D01*
X155287261Y-125077993D01*
X155466852Y-125312040D01*
X155466858Y-125312047D01*
X155675452Y-125520641D01*
X155675459Y-125520647D01*
X155820749Y-125632132D01*
X155861952Y-125688560D01*
X155866107Y-125758306D01*
X155831895Y-125819226D01*
X155770178Y-125851979D01*
X155758654Y-125853783D01*
X155754996Y-125854180D01*
X155576033Y-125890315D01*
X155576028Y-125890316D01*
X155406553Y-125958253D01*
X155252180Y-126055741D01*
X155252171Y-126055748D01*
X155117999Y-126179565D01*
X155072272Y-126240535D01*
X155043231Y-126279258D01*
X154987262Y-126321078D01*
X154944032Y-126328858D01*
X153806322Y-126328858D01*
X153692446Y-126343849D01*
X153692438Y-126343851D01*
X153550738Y-126402545D01*
X153429057Y-126495914D01*
X153375782Y-126565344D01*
X153319354Y-126606547D01*
X153277406Y-126613858D01*
X151434633Y-126613858D01*
X151434613Y-126613857D01*
X151428499Y-126613857D01*
X151305286Y-126613857D01*
X151204489Y-126633906D01*
X151204484Y-126633906D01*
X151184441Y-126637894D01*
X151184439Y-126637894D01*
X151137289Y-126657425D01*
X151070611Y-126685043D01*
X151070609Y-126685044D01*
X150968158Y-126753499D01*
X150968155Y-126753502D01*
X149959953Y-127761705D01*
X149898630Y-127795190D01*
X149896464Y-127795641D01*
X149785258Y-127817761D01*
X149785248Y-127817764D01*
X149639577Y-127878102D01*
X149639564Y-127878109D01*
X149508461Y-127965710D01*
X149508457Y-127965713D01*
X149396963Y-128077207D01*
X149396960Y-128077211D01*
X149309359Y-128208314D01*
X149309352Y-128208327D01*
X149249014Y-128353998D01*
X149249011Y-128354010D01*
X149218250Y-128508653D01*
X149218250Y-128666346D01*
X149249011Y-128820989D01*
X149249014Y-128821001D01*
X149309352Y-128966672D01*
X149309359Y-128966685D01*
X149396960Y-129097788D01*
X149396963Y-129097792D01*
X149508457Y-129209286D01*
X149508461Y-129209289D01*
X149639564Y-129296890D01*
X149639577Y-129296897D01*
X149743296Y-129339858D01*
X149785253Y-129357237D01*
X149834111Y-129366955D01*
X149887833Y-129377642D01*
X149949744Y-129410027D01*
X149984318Y-129470742D01*
X149980579Y-129540512D01*
X149951323Y-129586940D01*
X147622839Y-131915425D01*
X147561516Y-131948910D01*
X147559350Y-131949361D01*
X147404008Y-131980261D01*
X147403998Y-131980264D01*
X147258327Y-132040602D01*
X147258314Y-132040609D01*
X147127211Y-132128210D01*
X147127207Y-132128213D01*
X147015713Y-132239707D01*
X147015710Y-132239711D01*
X146928109Y-132370814D01*
X146928102Y-132370827D01*
X146867764Y-132516498D01*
X146867761Y-132516508D01*
X146841269Y-132649692D01*
X146808884Y-132711603D01*
X146748168Y-132746177D01*
X146719652Y-132749500D01*
X138412597Y-132749500D01*
X138345558Y-132729815D01*
X138324916Y-132713181D01*
X136149320Y-130537585D01*
X136115835Y-130476262D01*
X136113001Y-130449904D01*
X136113001Y-130091730D01*
X136132686Y-130024691D01*
X136185490Y-129978936D01*
X136254648Y-129968992D01*
X136303209Y-129986886D01*
X136356538Y-130020565D01*
X136356540Y-130020566D01*
X136394379Y-130035734D01*
X136526032Y-130088508D01*
X136526039Y-130088509D01*
X136526041Y-130088510D01*
X136572209Y-130097831D01*
X136705025Y-130124646D01*
X136887603Y-130127783D01*
X137067732Y-130097816D01*
X137239461Y-130035735D01*
X137254622Y-130026899D01*
X137261157Y-130023099D01*
X137261431Y-130023025D01*
X137289253Y-130006765D01*
X137289438Y-130006658D01*
X137292486Y-130005908D01*
X137351761Y-129989858D01*
X138832798Y-129989858D01*
X138832902Y-129989864D01*
X138841105Y-129989863D01*
X138841108Y-129989864D01*
X138873247Y-129989861D01*
X138935806Y-130006792D01*
X138970225Y-130026899D01*
X138971066Y-130027318D01*
X138985537Y-130035752D01*
X139140385Y-130091730D01*
X139157268Y-130097833D01*
X139337400Y-130127799D01*
X139519981Y-130124661D01*
X139698977Y-130088523D01*
X139868473Y-130020577D01*
X140022868Y-129923071D01*
X140157061Y-129799225D01*
X140232247Y-129698963D01*
X140288216Y-129657140D01*
X140331452Y-129649358D01*
X140462501Y-129649358D01*
X140962501Y-129649358D01*
X141468648Y-129649358D01*
X141582431Y-129634378D01*
X141582436Y-129634376D01*
X141724007Y-129575736D01*
X141724008Y-129575736D01*
X141845587Y-129482444D01*
X141938879Y-129360865D01*
X141938879Y-129360864D01*
X141997519Y-129219293D01*
X141997521Y-129219288D01*
X142012501Y-129105504D01*
X142012501Y-128989358D01*
X140962501Y-128989358D01*
X140962501Y-129649358D01*
X140462501Y-129649358D01*
X140462501Y-128863358D01*
X140482186Y-128796319D01*
X140534990Y-128750564D01*
X140586501Y-128739358D01*
X140712501Y-128739358D01*
X140712501Y-128613358D01*
X140732186Y-128546319D01*
X140784990Y-128500564D01*
X140836501Y-128489358D01*
X142012501Y-128489358D01*
X142012501Y-128373211D01*
X141997521Y-128259427D01*
X141997519Y-128259422D01*
X141938879Y-128117851D01*
X141938876Y-128117846D01*
X141898521Y-128065254D01*
X141873327Y-128000085D01*
X141887365Y-127931640D01*
X141898522Y-127914281D01*
X141939313Y-127861121D01*
X141945093Y-127847168D01*
X141998008Y-127719421D01*
X142013001Y-127605535D01*
X142013000Y-126873182D01*
X142010478Y-126854025D01*
X141998009Y-126759303D01*
X141998008Y-126759295D01*
X141939313Y-126617595D01*
X141845945Y-126495914D01*
X141724264Y-126402546D01*
X141724263Y-126402545D01*
X141582564Y-126343851D01*
X141582562Y-126343850D01*
X141468679Y-126328858D01*
X141468678Y-126328858D01*
X141437001Y-126328858D01*
X141369962Y-126309173D01*
X141324207Y-126256369D01*
X141313001Y-126204858D01*
X141313001Y-123738389D01*
X142092000Y-123738389D01*
X142092000Y-123911610D01*
X142113840Y-124049507D01*
X142119098Y-124082701D01*
X142172627Y-124247445D01*
X142251268Y-124401788D01*
X142353086Y-124541928D01*
X142475572Y-124664414D01*
X142615712Y-124766232D01*
X142770055Y-124844873D01*
X142934799Y-124898402D01*
X143105889Y-124925500D01*
X143105890Y-124925500D01*
X143279110Y-124925500D01*
X143279111Y-124925500D01*
X143450201Y-124898402D01*
X143614945Y-124844873D01*
X143769288Y-124766232D01*
X143909428Y-124664414D01*
X144031914Y-124541928D01*
X144133732Y-124401788D01*
X144212373Y-124247445D01*
X144265902Y-124082701D01*
X144293000Y-123911611D01*
X144293000Y-123738389D01*
X150982000Y-123738389D01*
X150982000Y-123911610D01*
X151003840Y-124049507D01*
X151009098Y-124082701D01*
X151062627Y-124247445D01*
X151141268Y-124401788D01*
X151243086Y-124541928D01*
X151365572Y-124664414D01*
X151505712Y-124766232D01*
X151660055Y-124844873D01*
X151824799Y-124898402D01*
X151995889Y-124925500D01*
X151995890Y-124925500D01*
X152169110Y-124925500D01*
X152169111Y-124925500D01*
X152340201Y-124898402D01*
X152504945Y-124844873D01*
X152659288Y-124766232D01*
X152799428Y-124664414D01*
X152921914Y-124541928D01*
X153023732Y-124401788D01*
X153102373Y-124247445D01*
X153155902Y-124082701D01*
X153183000Y-123911611D01*
X153183000Y-123738389D01*
X153155902Y-123567299D01*
X153102373Y-123402555D01*
X153023732Y-123248212D01*
X152921914Y-123108072D01*
X152869982Y-123056140D01*
X152836497Y-122994817D01*
X152841481Y-122925125D01*
X152883353Y-122869192D01*
X152948817Y-122844775D01*
X152977061Y-122845986D01*
X152977712Y-122846089D01*
X152977715Y-122846090D01*
X153226538Y-122885500D01*
X153226539Y-122885500D01*
X153478461Y-122885500D01*
X153478462Y-122885500D01*
X153727285Y-122846090D01*
X153966879Y-122768241D01*
X154191345Y-122653870D01*
X154395156Y-122505793D01*
X154573293Y-122327656D01*
X154721370Y-122123845D01*
X154835741Y-121899379D01*
X154913590Y-121659785D01*
X154953000Y-121410962D01*
X154953000Y-121159038D01*
X154913590Y-120910215D01*
X154835741Y-120670621D01*
X154835739Y-120670618D01*
X154835739Y-120670616D01*
X154794247Y-120589184D01*
X154721370Y-120446155D01*
X154619253Y-120305602D01*
X154573298Y-120242350D01*
X154573294Y-120242345D01*
X154395154Y-120064205D01*
X154395149Y-120064201D01*
X154191348Y-119916132D01*
X154191347Y-119916131D01*
X154191345Y-119916130D01*
X154121247Y-119880413D01*
X153966883Y-119801760D01*
X153727285Y-119723910D01*
X153478462Y-119684500D01*
X153226538Y-119684500D01*
X153102126Y-119704205D01*
X152977714Y-119723910D01*
X152738116Y-119801760D01*
X152513651Y-119916132D01*
X152309850Y-120064201D01*
X152309845Y-120064205D01*
X152131705Y-120242345D01*
X152131701Y-120242350D01*
X151983632Y-120446151D01*
X151869260Y-120670616D01*
X151791410Y-120910214D01*
X151752000Y-121159038D01*
X151752000Y-121410961D01*
X151791410Y-121659785D01*
X151869260Y-121899383D01*
X151894930Y-121949762D01*
X151970817Y-122098699D01*
X151983632Y-122123848D01*
X152131701Y-122327649D01*
X152131705Y-122327654D01*
X152131707Y-122327656D01*
X152309844Y-122505793D01*
X152309845Y-122505794D01*
X152309844Y-122505794D01*
X152316161Y-122510383D01*
X152358827Y-122565714D01*
X152364805Y-122635327D01*
X152332199Y-122697122D01*
X152271360Y-122731479D01*
X152223878Y-122733174D01*
X152169111Y-122724500D01*
X151995889Y-122724500D01*
X151956228Y-122730781D01*
X151824802Y-122751597D01*
X151660052Y-122805128D01*
X151505711Y-122883768D01*
X151448789Y-122925125D01*
X151365572Y-122985586D01*
X151365570Y-122985588D01*
X151365569Y-122985588D01*
X151243088Y-123108069D01*
X151243088Y-123108070D01*
X151243086Y-123108072D01*
X151199359Y-123168256D01*
X151141268Y-123248211D01*
X151062628Y-123402552D01*
X151009097Y-123567302D01*
X150982000Y-123738389D01*
X144293000Y-123738389D01*
X144265902Y-123567299D01*
X144212373Y-123402555D01*
X144133732Y-123248212D01*
X144031914Y-123108072D01*
X143909428Y-122985586D01*
X143769288Y-122883768D01*
X143614945Y-122805127D01*
X143450201Y-122751598D01*
X143450199Y-122751597D01*
X143450198Y-122751597D01*
X143318771Y-122730781D01*
X143279111Y-122724500D01*
X143105889Y-122724500D01*
X143066228Y-122730781D01*
X142934802Y-122751597D01*
X142770052Y-122805128D01*
X142615711Y-122883768D01*
X142558789Y-122925125D01*
X142475572Y-122985586D01*
X142475570Y-122985588D01*
X142475569Y-122985588D01*
X142353088Y-123108069D01*
X142353088Y-123108070D01*
X142353086Y-123108072D01*
X142309359Y-123168256D01*
X142251268Y-123248211D01*
X142172628Y-123402552D01*
X142119097Y-123567302D01*
X142092000Y-123738389D01*
X141313001Y-123738389D01*
X141313001Y-123189245D01*
X141313002Y-123189232D01*
X141313002Y-123021129D01*
X141287277Y-122925125D01*
X141272078Y-122868401D01*
X141252421Y-122834354D01*
X141193025Y-122731475D01*
X141193019Y-122731467D01*
X137080623Y-118619071D01*
X139052500Y-118619071D01*
X139052500Y-118870928D01*
X139091897Y-119119669D01*
X139169719Y-119359184D01*
X139284057Y-119583583D01*
X139358248Y-119685697D01*
X139358248Y-119685698D01*
X139974921Y-119069024D01*
X139987859Y-119100258D01*
X140069937Y-119223097D01*
X140174403Y-119327563D01*
X140297242Y-119409641D01*
X140328474Y-119422577D01*
X139711800Y-120039250D01*
X139813916Y-120113442D01*
X140038315Y-120227780D01*
X140277830Y-120305602D01*
X140526572Y-120345000D01*
X140778428Y-120345000D01*
X141027169Y-120305602D01*
X141266684Y-120227780D01*
X141491075Y-120113446D01*
X141491081Y-120113442D01*
X141593197Y-120039250D01*
X141593198Y-120039250D01*
X140976525Y-119422578D01*
X141007758Y-119409641D01*
X141130597Y-119327563D01*
X141235063Y-119223097D01*
X141317141Y-119100258D01*
X141330077Y-119069025D01*
X141946750Y-119685698D01*
X141946750Y-119685697D01*
X142020942Y-119583581D01*
X142020946Y-119583575D01*
X142135280Y-119359184D01*
X142213102Y-119119669D01*
X142252500Y-118870928D01*
X142252500Y-118619071D01*
X158102500Y-118619071D01*
X158102500Y-118870928D01*
X158141897Y-119119669D01*
X158219719Y-119359184D01*
X158334057Y-119583583D01*
X158408248Y-119685697D01*
X158408248Y-119685698D01*
X159024921Y-119069024D01*
X159037859Y-119100258D01*
X159119937Y-119223097D01*
X159224403Y-119327563D01*
X159347242Y-119409641D01*
X159378474Y-119422577D01*
X158761800Y-120039250D01*
X158863916Y-120113442D01*
X159088315Y-120227780D01*
X159327830Y-120305602D01*
X159576572Y-120345000D01*
X159828428Y-120345000D01*
X160077169Y-120305602D01*
X160316684Y-120227780D01*
X160541075Y-120113446D01*
X160541081Y-120113442D01*
X160643197Y-120039250D01*
X160643198Y-120039250D01*
X160026525Y-119422578D01*
X160057758Y-119409641D01*
X160180597Y-119327563D01*
X160285063Y-119223097D01*
X160367141Y-119100258D01*
X160380078Y-119069025D01*
X160996750Y-119685698D01*
X160996750Y-119685697D01*
X161070942Y-119583581D01*
X161070946Y-119583575D01*
X161185280Y-119359184D01*
X161263102Y-119119669D01*
X161302500Y-118870928D01*
X161302500Y-118619071D01*
X161263102Y-118370330D01*
X161185280Y-118130815D01*
X161070942Y-117906416D01*
X160996750Y-117804301D01*
X160996750Y-117804300D01*
X160380077Y-118420973D01*
X160367141Y-118389742D01*
X160285063Y-118266903D01*
X160180597Y-118162437D01*
X160057758Y-118080359D01*
X160026524Y-118067421D01*
X160643198Y-117450748D01*
X160541083Y-117376557D01*
X160316684Y-117262219D01*
X160077169Y-117184397D01*
X159828428Y-117145000D01*
X159576572Y-117145000D01*
X159327830Y-117184397D01*
X159088315Y-117262219D01*
X158863913Y-117376559D01*
X158761801Y-117450747D01*
X158761800Y-117450748D01*
X159378474Y-118067421D01*
X159347242Y-118080359D01*
X159224403Y-118162437D01*
X159119937Y-118266903D01*
X159037859Y-118389742D01*
X159024921Y-118420974D01*
X158408248Y-117804300D01*
X158408247Y-117804301D01*
X158334059Y-117906413D01*
X158219719Y-118130815D01*
X158141897Y-118370330D01*
X158102500Y-118619071D01*
X142252500Y-118619071D01*
X142213102Y-118370330D01*
X142135280Y-118130815D01*
X142020942Y-117906416D01*
X141946750Y-117804301D01*
X141946750Y-117804300D01*
X141330077Y-118420973D01*
X141317141Y-118389742D01*
X141235063Y-118266903D01*
X141130597Y-118162437D01*
X141007758Y-118080359D01*
X140976524Y-118067421D01*
X141593198Y-117450748D01*
X141491083Y-117376557D01*
X141266684Y-117262219D01*
X141027169Y-117184397D01*
X140778428Y-117145000D01*
X140526572Y-117145000D01*
X140277830Y-117184397D01*
X140038315Y-117262219D01*
X139813913Y-117376559D01*
X139711801Y-117450747D01*
X139711800Y-117450748D01*
X140328474Y-118067421D01*
X140297242Y-118080359D01*
X140174403Y-118162437D01*
X140069937Y-118266903D01*
X139987859Y-118389742D01*
X139974921Y-118420974D01*
X139358248Y-117804300D01*
X139358247Y-117804301D01*
X139284059Y-117906413D01*
X139169719Y-118130815D01*
X139091897Y-118370330D01*
X139052500Y-118619071D01*
X137080623Y-118619071D01*
X136149320Y-117687768D01*
X136134616Y-117660840D01*
X136118024Y-117635022D01*
X136117132Y-117628821D01*
X136115835Y-117626445D01*
X136113001Y-117600087D01*
X136113001Y-112921153D01*
X150037000Y-112921153D01*
X150037000Y-113078846D01*
X150067761Y-113233489D01*
X150067764Y-113233501D01*
X150128102Y-113379172D01*
X150128109Y-113379185D01*
X150215710Y-113510288D01*
X150215713Y-113510292D01*
X150327207Y-113621786D01*
X150327211Y-113621789D01*
X150458314Y-113709390D01*
X150458327Y-113709397D01*
X150603998Y-113769735D01*
X150604003Y-113769737D01*
X150758653Y-113800499D01*
X150758656Y-113800500D01*
X150758658Y-113800500D01*
X150809138Y-113800500D01*
X150842087Y-113804958D01*
X150852857Y-113807926D01*
X150855716Y-113809577D01*
X150967519Y-113839534D01*
X151008442Y-113850500D01*
X151008443Y-113850500D01*
X154507734Y-113850500D01*
X154574773Y-113870185D01*
X154576625Y-113871398D01*
X154708314Y-113959390D01*
X154708327Y-113959397D01*
X154853998Y-114019735D01*
X154854003Y-114019737D01*
X155008653Y-114050499D01*
X155008656Y-114050500D01*
X155008658Y-114050500D01*
X155166344Y-114050500D01*
X155166345Y-114050499D01*
X155320997Y-114019737D01*
X155466679Y-113959394D01*
X155597789Y-113871789D01*
X155709289Y-113760289D01*
X155796894Y-113629179D01*
X155857237Y-113483497D01*
X155888000Y-113328842D01*
X155888000Y-113171158D01*
X155888000Y-113171155D01*
X155887999Y-113171153D01*
X155857238Y-113016510D01*
X155857237Y-113016503D01*
X155817742Y-112921153D01*
X155796897Y-112870827D01*
X155796890Y-112870814D01*
X155709289Y-112739711D01*
X155709286Y-112739707D01*
X155597792Y-112628213D01*
X155597788Y-112628210D01*
X155466685Y-112540609D01*
X155466672Y-112540602D01*
X155321001Y-112480264D01*
X155320989Y-112480261D01*
X155166345Y-112449500D01*
X155166342Y-112449500D01*
X155008658Y-112449500D01*
X155008655Y-112449500D01*
X154854010Y-112480261D01*
X154853998Y-112480264D01*
X154708327Y-112540602D01*
X154708314Y-112540609D01*
X154576625Y-112628602D01*
X154509947Y-112649480D01*
X154507734Y-112649500D01*
X151632336Y-112649500D01*
X151565297Y-112629815D01*
X151529234Y-112594391D01*
X151459289Y-112489710D01*
X151347792Y-112378213D01*
X151347788Y-112378210D01*
X151216685Y-112290609D01*
X151216672Y-112290602D01*
X151071001Y-112230264D01*
X151070989Y-112230261D01*
X150916345Y-112199500D01*
X150916342Y-112199500D01*
X150758658Y-112199500D01*
X150758655Y-112199500D01*
X150604010Y-112230261D01*
X150603998Y-112230264D01*
X150458327Y-112290602D01*
X150458314Y-112290609D01*
X150327211Y-112378210D01*
X150327207Y-112378213D01*
X150215713Y-112489707D01*
X150215710Y-112489711D01*
X150128109Y-112620814D01*
X150128102Y-112620827D01*
X150067764Y-112766498D01*
X150067761Y-112766510D01*
X150037000Y-112921153D01*
X136113001Y-112921153D01*
X136113001Y-111041730D01*
X136132686Y-110974691D01*
X136185490Y-110928936D01*
X136254648Y-110918992D01*
X136303209Y-110936886D01*
X136356538Y-110970565D01*
X136356540Y-110970566D01*
X136394379Y-110985734D01*
X136526032Y-111038508D01*
X136526039Y-111038509D01*
X136526041Y-111038510D01*
X136572209Y-111047831D01*
X136705025Y-111074646D01*
X136887603Y-111077783D01*
X137067732Y-111047816D01*
X137239461Y-110985735D01*
X137254622Y-110976899D01*
X137261157Y-110973099D01*
X137261431Y-110973025D01*
X137289253Y-110956765D01*
X137289438Y-110956658D01*
X137292486Y-110955908D01*
X137351761Y-110939858D01*
X138832798Y-110939858D01*
X138832902Y-110939864D01*
X138841105Y-110939863D01*
X138841108Y-110939864D01*
X138873247Y-110939861D01*
X138935806Y-110956792D01*
X138970225Y-110976899D01*
X138971066Y-110977318D01*
X138985537Y-110985752D01*
X139140385Y-111041730D01*
X139157268Y-111047833D01*
X139337400Y-111077799D01*
X139519981Y-111074661D01*
X139698977Y-111038523D01*
X139868473Y-110970577D01*
X140022868Y-110873071D01*
X140157061Y-110749225D01*
X140232247Y-110648963D01*
X140288216Y-110607140D01*
X140331452Y-110599358D01*
X140462501Y-110599358D01*
X140962501Y-110599358D01*
X141468648Y-110599358D01*
X141582431Y-110584378D01*
X141582436Y-110584376D01*
X141724007Y-110525736D01*
X141724008Y-110525736D01*
X141845587Y-110432444D01*
X141938879Y-110310865D01*
X141938879Y-110310864D01*
X141997519Y-110169293D01*
X141997521Y-110169288D01*
X142012501Y-110055504D01*
X142012501Y-109939358D01*
X140962501Y-109939358D01*
X140962501Y-110599358D01*
X140462501Y-110599358D01*
X140462501Y-109813358D01*
X140482186Y-109746319D01*
X140534990Y-109700564D01*
X140586501Y-109689358D01*
X140712501Y-109689358D01*
X140712501Y-109563358D01*
X140732186Y-109496319D01*
X140784990Y-109450564D01*
X140836501Y-109439358D01*
X142012501Y-109439358D01*
X142012501Y-109323212D01*
X141999076Y-109221242D01*
X141999076Y-109221239D01*
X141997521Y-109209428D01*
X141997519Y-109209422D01*
X141997089Y-109208385D01*
X155418250Y-109208385D01*
X155418250Y-111304120D01*
X155418251Y-111304126D01*
X155424658Y-111363733D01*
X155474952Y-111498578D01*
X155474956Y-111498585D01*
X155561202Y-111613794D01*
X155561205Y-111613797D01*
X155676414Y-111700043D01*
X155676421Y-111700047D01*
X155811267Y-111750341D01*
X155811266Y-111750341D01*
X155818194Y-111751085D01*
X155870877Y-111756750D01*
X159166622Y-111756749D01*
X159226233Y-111750341D01*
X159361081Y-111700046D01*
X159476296Y-111613796D01*
X159562546Y-111498581D01*
X159612841Y-111363733D01*
X159619250Y-111304123D01*
X159619249Y-109208378D01*
X159612841Y-109148767D01*
X159609111Y-109138767D01*
X159562547Y-109013921D01*
X159562543Y-109013914D01*
X159476297Y-108898705D01*
X159476294Y-108898702D01*
X159361085Y-108812456D01*
X159361078Y-108812452D01*
X159226232Y-108762158D01*
X159226233Y-108762158D01*
X159166633Y-108755751D01*
X159166631Y-108755750D01*
X159166623Y-108755750D01*
X159166614Y-108755750D01*
X155870879Y-108755750D01*
X155870873Y-108755751D01*
X155811266Y-108762158D01*
X155676421Y-108812452D01*
X155676414Y-108812456D01*
X155561205Y-108898702D01*
X155561202Y-108898705D01*
X155474956Y-109013914D01*
X155474952Y-109013921D01*
X155424658Y-109148767D01*
X155418251Y-109208366D01*
X155418251Y-109208373D01*
X155418250Y-109208385D01*
X141997089Y-109208385D01*
X141938879Y-109067851D01*
X141938876Y-109067846D01*
X141898521Y-109015254D01*
X141873327Y-108950085D01*
X141887365Y-108881640D01*
X141898522Y-108864281D01*
X141939313Y-108811121D01*
X141962248Y-108755751D01*
X141998008Y-108669421D01*
X142013001Y-108555535D01*
X142013000Y-107823182D01*
X142012025Y-107815778D01*
X141998009Y-107709303D01*
X141998008Y-107709295D01*
X141939313Y-107567595D01*
X141845945Y-107445914D01*
X141724264Y-107352546D01*
X141724263Y-107352545D01*
X141582564Y-107293851D01*
X141582562Y-107293850D01*
X141468679Y-107278858D01*
X141468678Y-107278858D01*
X141437001Y-107278858D01*
X141428315Y-107276307D01*
X141419354Y-107277596D01*
X141395313Y-107266617D01*
X141369962Y-107259173D01*
X141364034Y-107252332D01*
X141355798Y-107248571D01*
X141341508Y-107226336D01*
X141324207Y-107206369D01*
X141321919Y-107195854D01*
X141318024Y-107189793D01*
X141313001Y-107154858D01*
X141313001Y-105856625D01*
X141332686Y-105789586D01*
X141349316Y-105768948D01*
X141967793Y-105150470D01*
X142029114Y-105116987D01*
X142098805Y-105121971D01*
X142154739Y-105163842D01*
X142170003Y-105193267D01*
X142170766Y-105192952D01*
X142172626Y-105197443D01*
X142172627Y-105197445D01*
X142251268Y-105351788D01*
X142353086Y-105491928D01*
X142475572Y-105614414D01*
X142615712Y-105716232D01*
X142770055Y-105794873D01*
X142934799Y-105848402D01*
X143105889Y-105875500D01*
X143105890Y-105875500D01*
X143279110Y-105875500D01*
X143279111Y-105875500D01*
X143450201Y-105848402D01*
X143614945Y-105794873D01*
X143769288Y-105716232D01*
X143909428Y-105614414D01*
X144031914Y-105491928D01*
X144133732Y-105351788D01*
X144212373Y-105197445D01*
X144265902Y-105032701D01*
X144293000Y-104861611D01*
X144293000Y-104688389D01*
X144265902Y-104517299D01*
X144212373Y-104352555D01*
X144133732Y-104198212D01*
X144031914Y-104058072D01*
X143909428Y-103935586D01*
X143769288Y-103833768D01*
X143614945Y-103755127D01*
X143614944Y-103755126D01*
X143614943Y-103755126D01*
X143612654Y-103754177D01*
X143612319Y-103754154D01*
X143611975Y-103753897D01*
X143610452Y-103753266D01*
X143610613Y-103752876D01*
X143586366Y-103734725D01*
X143559632Y-103716431D01*
X143558570Y-103713917D01*
X143556386Y-103712282D01*
X143545060Y-103681918D01*
X143532456Y-103652063D01*
X143532922Y-103649373D01*
X143531969Y-103646818D01*
X143538856Y-103615157D01*
X143544395Y-103583221D01*
X143546418Y-103580394D01*
X143546821Y-103578545D01*
X143567969Y-103550294D01*
X143696006Y-103422258D01*
X143696011Y-103422254D01*
X143706214Y-103412050D01*
X143706216Y-103412050D01*
X143818020Y-103300246D01*
X143882347Y-103188828D01*
X143889712Y-103176071D01*
X143897076Y-103163317D01*
X143898064Y-103159631D01*
X143938000Y-103010587D01*
X143938000Y-102852473D01*
X143938000Y-101108385D01*
X148518250Y-101108385D01*
X148518250Y-103204120D01*
X148518251Y-103204126D01*
X148524658Y-103263733D01*
X148574952Y-103398578D01*
X148574956Y-103398585D01*
X148661202Y-103513794D01*
X148661203Y-103513794D01*
X148661204Y-103513796D01*
X148704693Y-103546352D01*
X148779349Y-103602240D01*
X148821219Y-103658174D01*
X148826203Y-103727865D01*
X148805355Y-103774391D01*
X148735837Y-103870074D01*
X148628647Y-104080447D01*
X148555684Y-104305002D01*
X148518750Y-104538197D01*
X148518750Y-104774302D01*
X148555684Y-105007497D01*
X148628647Y-105232052D01*
X148735837Y-105442424D01*
X148796088Y-105525354D01*
X148796090Y-105525355D01*
X149535787Y-104785658D01*
X149552825Y-104849243D01*
X149618651Y-104963257D01*
X149711743Y-105056349D01*
X149825757Y-105122175D01*
X149889340Y-105139212D01*
X149143030Y-105885521D01*
X149133855Y-105929197D01*
X149097489Y-105970865D01*
X149041240Y-106011732D01*
X148874235Y-106178737D01*
X148874235Y-106178738D01*
X148874233Y-106178740D01*
X148826070Y-106245030D01*
X148735407Y-106369816D01*
X148628183Y-106580253D01*
X148555196Y-106804881D01*
X148518250Y-107038152D01*
X148518250Y-107274347D01*
X148555196Y-107507618D01*
X148628183Y-107732246D01*
X148725041Y-107922338D01*
X148735407Y-107942683D01*
X148874233Y-108133760D01*
X149041240Y-108300767D01*
X149232317Y-108439593D01*
X149331741Y-108490252D01*
X149442753Y-108546816D01*
X149442755Y-108546816D01*
X149442758Y-108546818D01*
X149563162Y-108585939D01*
X149667381Y-108619803D01*
X149900653Y-108656750D01*
X149900658Y-108656750D01*
X150136847Y-108656750D01*
X150370118Y-108619803D01*
X150594742Y-108546818D01*
X150805183Y-108439593D01*
X150996260Y-108300767D01*
X151163267Y-108133760D01*
X151302093Y-107942683D01*
X151409318Y-107732242D01*
X151482303Y-107507618D01*
X151506864Y-107352545D01*
X151519250Y-107274347D01*
X151519250Y-107038152D01*
X163018250Y-107038152D01*
X163018250Y-107274347D01*
X163055196Y-107507618D01*
X163128183Y-107732246D01*
X163225041Y-107922338D01*
X163235407Y-107942683D01*
X163374233Y-108133760D01*
X163541240Y-108300767D01*
X163732317Y-108439593D01*
X163831741Y-108490252D01*
X163942753Y-108546816D01*
X163942755Y-108546816D01*
X163942758Y-108546818D01*
X164063162Y-108585939D01*
X164167381Y-108619803D01*
X164400653Y-108656750D01*
X164400658Y-108656750D01*
X164636847Y-108656750D01*
X164870118Y-108619803D01*
X165094742Y-108546818D01*
X165305183Y-108439593D01*
X165496260Y-108300767D01*
X165663267Y-108133760D01*
X165802093Y-107942683D01*
X165909318Y-107732242D01*
X165982303Y-107507618D01*
X166006864Y-107352545D01*
X166019250Y-107274347D01*
X166019250Y-107038152D01*
X165982303Y-106804881D01*
X165931859Y-106649632D01*
X165909318Y-106580258D01*
X165909316Y-106580255D01*
X165909316Y-106580253D01*
X165802092Y-106369816D01*
X165792096Y-106356058D01*
X165663267Y-106178740D01*
X165496260Y-106011733D01*
X165305183Y-105872907D01*
X165278297Y-105859208D01*
X165094746Y-105765683D01*
X164870118Y-105692696D01*
X164636847Y-105655750D01*
X164636842Y-105655750D01*
X164400658Y-105655750D01*
X164400653Y-105655750D01*
X164167381Y-105692696D01*
X163942753Y-105765683D01*
X163732316Y-105872907D01*
X163623300Y-105952112D01*
X163541240Y-106011733D01*
X163541238Y-106011735D01*
X163541237Y-106011735D01*
X163374235Y-106178737D01*
X163374235Y-106178738D01*
X163374233Y-106178740D01*
X163326070Y-106245030D01*
X163235407Y-106369816D01*
X163128183Y-106580253D01*
X163055196Y-106804881D01*
X163018250Y-107038152D01*
X151519250Y-107038152D01*
X151482303Y-106804881D01*
X151431859Y-106649632D01*
X151409318Y-106580258D01*
X151409316Y-106580255D01*
X151409316Y-106580253D01*
X151302092Y-106369816D01*
X151292096Y-106356058D01*
X151163267Y-106178740D01*
X150996260Y-106011733D01*
X150940009Y-105970864D01*
X150897345Y-105915534D01*
X150892652Y-105883705D01*
X150148158Y-105139212D01*
X150211743Y-105122175D01*
X150325757Y-105056349D01*
X150418849Y-104963257D01*
X150484675Y-104849243D01*
X150501712Y-104785659D01*
X151241408Y-105525355D01*
X151241408Y-105525354D01*
X151301664Y-105442419D01*
X151301668Y-105442413D01*
X151408852Y-105232052D01*
X151481815Y-105007497D01*
X151518750Y-104774302D01*
X151518750Y-104538197D01*
X151481815Y-104305002D01*
X151408852Y-104080447D01*
X151301664Y-103870078D01*
X151232144Y-103774392D01*
X151208664Y-103708585D01*
X151224489Y-103640531D01*
X151258151Y-103602239D01*
X151261079Y-103600046D01*
X151261081Y-103600046D01*
X151376296Y-103513796D01*
X151462546Y-103398581D01*
X151512841Y-103263733D01*
X151519250Y-103204123D01*
X151519249Y-102038197D01*
X163018750Y-102038197D01*
X163018750Y-102274302D01*
X163055684Y-102507497D01*
X163128647Y-102732052D01*
X163235837Y-102942424D01*
X163296088Y-103025354D01*
X163296090Y-103025355D01*
X164035787Y-102285658D01*
X164052825Y-102349243D01*
X164118651Y-102463257D01*
X164211743Y-102556349D01*
X164325757Y-102622175D01*
X164389340Y-102639212D01*
X163649643Y-103378908D01*
X163732578Y-103439164D01*
X163942947Y-103546352D01*
X164167502Y-103619315D01*
X164167501Y-103619315D01*
X164400698Y-103656250D01*
X164636802Y-103656250D01*
X164869997Y-103619315D01*
X165094552Y-103546352D01*
X165304913Y-103439168D01*
X165304919Y-103439164D01*
X165387854Y-103378908D01*
X165387855Y-103378908D01*
X164648158Y-102639212D01*
X164711743Y-102622175D01*
X164825757Y-102556349D01*
X164918849Y-102463257D01*
X164984675Y-102349243D01*
X165001712Y-102285658D01*
X165741408Y-103025355D01*
X165741408Y-103025354D01*
X165801664Y-102942419D01*
X165801668Y-102942413D01*
X165908852Y-102732052D01*
X165981815Y-102507497D01*
X166018750Y-102274302D01*
X166018750Y-102038197D01*
X165981815Y-101805002D01*
X165908852Y-101580447D01*
X165801664Y-101370078D01*
X165741408Y-101287144D01*
X165741408Y-101287143D01*
X165001712Y-102026840D01*
X164984675Y-101963257D01*
X164918849Y-101849243D01*
X164825757Y-101756151D01*
X164711743Y-101690325D01*
X164648159Y-101673287D01*
X165387855Y-100933590D01*
X165387854Y-100933588D01*
X165304924Y-100873337D01*
X165094552Y-100766147D01*
X164869997Y-100693184D01*
X164869998Y-100693184D01*
X164636802Y-100656250D01*
X164400698Y-100656250D01*
X164167502Y-100693184D01*
X163942947Y-100766147D01*
X163732580Y-100873334D01*
X163649644Y-100933590D01*
X164389341Y-101673287D01*
X164325757Y-101690325D01*
X164211743Y-101756151D01*
X164118651Y-101849243D01*
X164052825Y-101963257D01*
X164035787Y-102026840D01*
X163296090Y-101287144D01*
X163235834Y-101370080D01*
X163128647Y-101580447D01*
X163055684Y-101805002D01*
X163018750Y-102038197D01*
X151519249Y-102038197D01*
X151519249Y-101108378D01*
X151512841Y-101048767D01*
X151512840Y-101048764D01*
X151503672Y-101024181D01*
X151462547Y-100913921D01*
X151462543Y-100913914D01*
X151376297Y-100798705D01*
X151376294Y-100798702D01*
X151261085Y-100712456D01*
X151261078Y-100712452D01*
X151126232Y-100662158D01*
X151126233Y-100662158D01*
X151066633Y-100655751D01*
X151066631Y-100655750D01*
X151066623Y-100655750D01*
X151066614Y-100655750D01*
X148970879Y-100655750D01*
X148970873Y-100655751D01*
X148911266Y-100662158D01*
X148776421Y-100712452D01*
X148776414Y-100712456D01*
X148661205Y-100798702D01*
X148661202Y-100798705D01*
X148574956Y-100913914D01*
X148574952Y-100913921D01*
X148524658Y-101048767D01*
X148518251Y-101108366D01*
X148518251Y-101108373D01*
X148518250Y-101108385D01*
X143938000Y-101108385D01*
X143938000Y-98008385D01*
X155418250Y-98008385D01*
X155418250Y-100104120D01*
X155418251Y-100104126D01*
X155424658Y-100163733D01*
X155474952Y-100298578D01*
X155474956Y-100298585D01*
X155561202Y-100413794D01*
X155561205Y-100413797D01*
X155676414Y-100500043D01*
X155676421Y-100500047D01*
X155811267Y-100550341D01*
X155811266Y-100550341D01*
X155818194Y-100551085D01*
X155870877Y-100556750D01*
X159166622Y-100556749D01*
X159226233Y-100550341D01*
X159361081Y-100500046D01*
X159476296Y-100413796D01*
X159562546Y-100298581D01*
X159612841Y-100163733D01*
X159619250Y-100104123D01*
X159619249Y-98008378D01*
X159612841Y-97948767D01*
X159562546Y-97813919D01*
X159562545Y-97813918D01*
X159562543Y-97813914D01*
X159476297Y-97698705D01*
X159476294Y-97698702D01*
X159361085Y-97612456D01*
X159361078Y-97612452D01*
X159226232Y-97562158D01*
X159226233Y-97562158D01*
X159166633Y-97555751D01*
X159166631Y-97555750D01*
X159166623Y-97555750D01*
X159166614Y-97555750D01*
X155870879Y-97555750D01*
X155870873Y-97555751D01*
X155811266Y-97562158D01*
X155676421Y-97612452D01*
X155676414Y-97612456D01*
X155561205Y-97698702D01*
X155561202Y-97698705D01*
X155474956Y-97813914D01*
X155474952Y-97813921D01*
X155424658Y-97948767D01*
X155418251Y-98008366D01*
X155418251Y-98008373D01*
X155418250Y-98008385D01*
X143938000Y-98008385D01*
X143938000Y-96550097D01*
X143957685Y-96483058D01*
X143974319Y-96462416D01*
X144667257Y-95769478D01*
X146658058Y-93778677D01*
X146719378Y-93745194D01*
X146789070Y-93750178D01*
X146845003Y-93792050D01*
X146869420Y-93857514D01*
X146860298Y-93913811D01*
X146817763Y-94016503D01*
X146817761Y-94016510D01*
X146787000Y-94171153D01*
X146787000Y-94328846D01*
X146817761Y-94483489D01*
X146817764Y-94483501D01*
X146878102Y-94629172D01*
X146878109Y-94629185D01*
X146965710Y-94760288D01*
X146965713Y-94760292D01*
X147077207Y-94871786D01*
X147077211Y-94871789D01*
X147208314Y-94959390D01*
X147208327Y-94959397D01*
X147353998Y-95019735D01*
X147354003Y-95019737D01*
X147508653Y-95050499D01*
X147508656Y-95050500D01*
X147508658Y-95050500D01*
X147666344Y-95050500D01*
X147666345Y-95050499D01*
X147820997Y-95019737D01*
X147966679Y-94959394D01*
X147966685Y-94959390D01*
X148098375Y-94871398D01*
X148165053Y-94850520D01*
X148167266Y-94850500D01*
X157202331Y-94850500D01*
X157202347Y-94850501D01*
X157209943Y-94850501D01*
X157368054Y-94850501D01*
X157368057Y-94850501D01*
X157520785Y-94809577D01*
X157570904Y-94780639D01*
X157657716Y-94730520D01*
X157769520Y-94618716D01*
X157769520Y-94618714D01*
X157779728Y-94608507D01*
X157779729Y-94608504D01*
X164816373Y-87571861D01*
X164877694Y-87538378D01*
X164942368Y-87541612D01*
X165021257Y-87567246D01*
X165231213Y-87600500D01*
X165231214Y-87600500D01*
X165443786Y-87600500D01*
X165443787Y-87600500D01*
X165653743Y-87567246D01*
X165855912Y-87501557D01*
X166045316Y-87405051D01*
X166067289Y-87389086D01*
X166217286Y-87280109D01*
X166217288Y-87280106D01*
X166217292Y-87280104D01*
X166367604Y-87129792D01*
X166367606Y-87129788D01*
X166367609Y-87129786D01*
X166491402Y-86959397D01*
X166492551Y-86957816D01*
X166589057Y-86768412D01*
X166654746Y-86566243D01*
X166688000Y-86356287D01*
X166688000Y-86143713D01*
X166654746Y-85933757D01*
X166589057Y-85731588D01*
X166492551Y-85542184D01*
X166492549Y-85542181D01*
X166492548Y-85542179D01*
X166367609Y-85370213D01*
X166217286Y-85219890D01*
X166045320Y-85094951D01*
X166044615Y-85094591D01*
X166036554Y-85090485D01*
X165985759Y-85042512D01*
X165968963Y-84974692D01*
X165991499Y-84908556D01*
X166036554Y-84869515D01*
X166045316Y-84865051D01*
X166067289Y-84849086D01*
X166217286Y-84740109D01*
X166217288Y-84740106D01*
X166217292Y-84740104D01*
X166367604Y-84589792D01*
X166367606Y-84589788D01*
X166367609Y-84589786D01*
X166492548Y-84417820D01*
X166492547Y-84417820D01*
X166492551Y-84417816D01*
X166589057Y-84228412D01*
X166654746Y-84026243D01*
X166688000Y-83816287D01*
X166688000Y-83603713D01*
X166654746Y-83393757D01*
X166589057Y-83191588D01*
X166492551Y-83002184D01*
X166492549Y-83002181D01*
X166492548Y-83002179D01*
X166367609Y-82830213D01*
X166217286Y-82679890D01*
X166045320Y-82554951D01*
X166044615Y-82554591D01*
X166036554Y-82550485D01*
X165985759Y-82502512D01*
X165968963Y-82434692D01*
X165991499Y-82368556D01*
X166036554Y-82329515D01*
X166045316Y-82325051D01*
X166067289Y-82309086D01*
X166217286Y-82200109D01*
X166217288Y-82200106D01*
X166217292Y-82200104D01*
X166367604Y-82049792D01*
X166367606Y-82049788D01*
X166367609Y-82049786D01*
X166492548Y-81877820D01*
X166492547Y-81877820D01*
X166492551Y-81877816D01*
X166589057Y-81688412D01*
X166654746Y-81486243D01*
X166688000Y-81276287D01*
X166688000Y-81063713D01*
X166654746Y-80853757D01*
X166589057Y-80651588D01*
X166492551Y-80462184D01*
X166492549Y-80462181D01*
X166492548Y-80462179D01*
X166367609Y-80290213D01*
X166253681Y-80176285D01*
X166220196Y-80114962D01*
X166225180Y-80045270D01*
X166267052Y-79989337D01*
X166298029Y-79972422D01*
X166429586Y-79923354D01*
X166429593Y-79923350D01*
X166544687Y-79837190D01*
X166544690Y-79837187D01*
X166630850Y-79722093D01*
X166630854Y-79722086D01*
X166681096Y-79587379D01*
X166681098Y-79587372D01*
X166687499Y-79527844D01*
X166687500Y-79527827D01*
X166687500Y-78880000D01*
X165770512Y-78880000D01*
X165803425Y-78822993D01*
X165837500Y-78695826D01*
X165837500Y-78564174D01*
X165803425Y-78437007D01*
X165770512Y-78380000D01*
X166687500Y-78380000D01*
X166687500Y-77732172D01*
X166687499Y-77732155D01*
X166681098Y-77672627D01*
X166681096Y-77672620D01*
X166630854Y-77537913D01*
X166630850Y-77537906D01*
X166544690Y-77422812D01*
X166544687Y-77422809D01*
X166429593Y-77336649D01*
X166429586Y-77336645D01*
X166294879Y-77286403D01*
X166294872Y-77286401D01*
X166235344Y-77280000D01*
X165587500Y-77280000D01*
X165587500Y-78196988D01*
X165530493Y-78164075D01*
X165403326Y-78130000D01*
X165271674Y-78130000D01*
X165144507Y-78164075D01*
X165087500Y-78196988D01*
X165087500Y-77280000D01*
X164439655Y-77280000D01*
X164380127Y-77286401D01*
X164380120Y-77286403D01*
X164245413Y-77336645D01*
X164245406Y-77336649D01*
X164130312Y-77422809D01*
X164130309Y-77422812D01*
X164044149Y-77537906D01*
X164044145Y-77537913D01*
X163993903Y-77672620D01*
X163993901Y-77672627D01*
X163987500Y-77732155D01*
X163987500Y-78380000D01*
X164904488Y-78380000D01*
X164871575Y-78437007D01*
X164837500Y-78564174D01*
X164837500Y-78695826D01*
X164871575Y-78822993D01*
X164904488Y-78880000D01*
X163987500Y-78880000D01*
X163987500Y-79527844D01*
X163993901Y-79587372D01*
X163993903Y-79587379D01*
X164044145Y-79722086D01*
X164044149Y-79722093D01*
X164130309Y-79837187D01*
X164130312Y-79837190D01*
X164245406Y-79923350D01*
X164245413Y-79923354D01*
X164376970Y-79972422D01*
X164432904Y-80014293D01*
X164457321Y-80079758D01*
X164442469Y-80148031D01*
X164421319Y-80176285D01*
X164307389Y-80290215D01*
X164182449Y-80462182D01*
X164156407Y-80513294D01*
X164108433Y-80564091D01*
X164045922Y-80581000D01*
X156640217Y-80581000D01*
X156573178Y-80561315D01*
X156527423Y-80508511D01*
X156517744Y-80476398D01*
X156515493Y-80462184D01*
X156488913Y-80294364D01*
X156438724Y-80139896D01*
X156427506Y-80105370D01*
X156427505Y-80105367D01*
X156337286Y-79928305D01*
X156271085Y-79837187D01*
X156220481Y-79767536D01*
X156079964Y-79627019D01*
X155919194Y-79510213D01*
X155762167Y-79430203D01*
X155711372Y-79382229D01*
X155694577Y-79314408D01*
X155717114Y-79248273D01*
X155762169Y-79209234D01*
X155918922Y-79129364D01*
X155956216Y-79102268D01*
X155341595Y-78487647D01*
X155429071Y-78464208D01*
X155530430Y-78405689D01*
X155613189Y-78322930D01*
X155671708Y-78221571D01*
X155695147Y-78134094D01*
X156309768Y-78748715D01*
X156336862Y-78711425D01*
X156427042Y-78534437D01*
X156488424Y-78345523D01*
X156488424Y-78345520D01*
X156519500Y-78149321D01*
X156519500Y-77950678D01*
X156488425Y-77754484D01*
X156488422Y-77754471D01*
X156427042Y-77565562D01*
X156336858Y-77388567D01*
X156309768Y-77351283D01*
X155695147Y-77965904D01*
X155671708Y-77878429D01*
X155613189Y-77777070D01*
X155530430Y-77694311D01*
X155429071Y-77635792D01*
X155341594Y-77612352D01*
X155956216Y-76997731D01*
X155956215Y-76997730D01*
X155918932Y-76970641D01*
X155762168Y-76890765D01*
X155711372Y-76842790D01*
X155694577Y-76774969D01*
X155717115Y-76708834D01*
X155762167Y-76669796D01*
X155919194Y-76589787D01*
X156079964Y-76472981D01*
X156220481Y-76332464D01*
X156337287Y-76171694D01*
X156427505Y-75994632D01*
X156488913Y-75805636D01*
X156520000Y-75609361D01*
X156520000Y-75410639D01*
X156488913Y-75214364D01*
X156427505Y-75025368D01*
X156427505Y-75025367D01*
X156361852Y-74896518D01*
X156337287Y-74848306D01*
X156220481Y-74687536D01*
X156079964Y-74547019D01*
X155919194Y-74430213D01*
X155742132Y-74339994D01*
X155742129Y-74339993D01*
X155553137Y-74278587D01*
X155454998Y-74263043D01*
X155356861Y-74247500D01*
X155158139Y-74247500D01*
X155092714Y-74257862D01*
X154961862Y-74278587D01*
X154772870Y-74339993D01*
X154772867Y-74339994D01*
X154595805Y-74430213D01*
X154435033Y-74547021D01*
X154294521Y-74687533D01*
X154188553Y-74833386D01*
X154133223Y-74876051D01*
X154088235Y-74884500D01*
X152018554Y-74884500D01*
X151967700Y-74894615D01*
X151967695Y-74894616D01*
X151958136Y-74896518D01*
X151897713Y-74908537D01*
X151850562Y-74928067D01*
X151783880Y-74955688D01*
X151783879Y-74955689D01*
X151761512Y-74970633D01*
X151761509Y-74970635D01*
X151681433Y-75024140D01*
X151637870Y-75067703D01*
X151594307Y-75111267D01*
X151594304Y-75111270D01*
X141412178Y-85293395D01*
X141350855Y-85326880D01*
X141281163Y-85321896D01*
X141225230Y-85280024D01*
X141206566Y-85244031D01*
X141187507Y-85185373D01*
X141187505Y-85185367D01*
X141097286Y-85008305D01*
X141090121Y-84998443D01*
X140980481Y-84847536D01*
X140839964Y-84707019D01*
X140679194Y-84590213D01*
X140522718Y-84510484D01*
X140471923Y-84462510D01*
X140455128Y-84394689D01*
X140477665Y-84328554D01*
X140522718Y-84289515D01*
X140679194Y-84209787D01*
X140839964Y-84092981D01*
X140980481Y-83952464D01*
X141097287Y-83791694D01*
X141187505Y-83614632D01*
X141248913Y-83425636D01*
X141280000Y-83229361D01*
X141280000Y-83030639D01*
X141248913Y-82834364D01*
X141198722Y-82679890D01*
X141187506Y-82645370D01*
X141187505Y-82645367D01*
X141128467Y-82529500D01*
X141097287Y-82468306D01*
X140980481Y-82307536D01*
X140839964Y-82167019D01*
X140679194Y-82050213D01*
X140522718Y-81970484D01*
X140471923Y-81922510D01*
X140455128Y-81854689D01*
X140477665Y-81788554D01*
X140522718Y-81749515D01*
X140679194Y-81669787D01*
X140839964Y-81552981D01*
X140980481Y-81412464D01*
X141097287Y-81251694D01*
X141187505Y-81074632D01*
X141248913Y-80885636D01*
X141280000Y-80689361D01*
X141280000Y-80490639D01*
X141248913Y-80294364D01*
X141198724Y-80139896D01*
X141187506Y-80105370D01*
X141187505Y-80105367D01*
X141097286Y-79928305D01*
X141031085Y-79837187D01*
X140980481Y-79767536D01*
X140839964Y-79627019D01*
X140679194Y-79510213D01*
X140522718Y-79430484D01*
X140471923Y-79382510D01*
X140455128Y-79314689D01*
X140477665Y-79248554D01*
X140522718Y-79209515D01*
X140679194Y-79129787D01*
X140839964Y-79012981D01*
X140980481Y-78872464D01*
X141097287Y-78711694D01*
X141187505Y-78534632D01*
X141248913Y-78345636D01*
X141280000Y-78149361D01*
X141280000Y-77950639D01*
X141248913Y-77754364D01*
X141187505Y-77565368D01*
X141187505Y-77565367D01*
X141141535Y-77475149D01*
X141097287Y-77388306D01*
X140980481Y-77227536D01*
X140839964Y-77087019D01*
X140679194Y-76970213D01*
X140522718Y-76890484D01*
X140471923Y-76842510D01*
X140455128Y-76774689D01*
X140477665Y-76708554D01*
X140522718Y-76669515D01*
X140679194Y-76589787D01*
X140839964Y-76472981D01*
X140980481Y-76332464D01*
X141097287Y-76171694D01*
X141187505Y-75994632D01*
X141248913Y-75805636D01*
X141280000Y-75609361D01*
X141280000Y-75410639D01*
X141248913Y-75214364D01*
X141187505Y-75025368D01*
X141187505Y-75025367D01*
X141121852Y-74896518D01*
X141097287Y-74848306D01*
X140980481Y-74687536D01*
X140839964Y-74547019D01*
X140679194Y-74430213D01*
X140502132Y-74339994D01*
X140502129Y-74339993D01*
X140313137Y-74278587D01*
X140214998Y-74263043D01*
X140116861Y-74247500D01*
X139918139Y-74247500D01*
X139852714Y-74257862D01*
X139721862Y-74278587D01*
X139532870Y-74339993D01*
X139532867Y-74339994D01*
X139355805Y-74430213D01*
X139195033Y-74547021D01*
X139054521Y-74687533D01*
X138937713Y-74848305D01*
X138847494Y-75025367D01*
X138847493Y-75025370D01*
X138786087Y-75214362D01*
X138755000Y-75410639D01*
X138755000Y-75609360D01*
X138786087Y-75805637D01*
X138847493Y-75994629D01*
X138847494Y-75994632D01*
X138919271Y-76135500D01*
X138937713Y-76171694D01*
X139054519Y-76332464D01*
X139195036Y-76472981D01*
X139355806Y-76589787D01*
X139474332Y-76650179D01*
X139512280Y-76669515D01*
X139563076Y-76717490D01*
X139579871Y-76785311D01*
X139557333Y-76851446D01*
X139512280Y-76890485D01*
X139355805Y-76970213D01*
X139195033Y-77087021D01*
X139054521Y-77227533D01*
X138937713Y-77388305D01*
X138847494Y-77565367D01*
X138847493Y-77565370D01*
X138786087Y-77754362D01*
X138766437Y-77878429D01*
X138755000Y-77950639D01*
X138755000Y-78149361D01*
X138766437Y-78221571D01*
X138786087Y-78345637D01*
X138847493Y-78534629D01*
X138847494Y-78534632D01*
X138862547Y-78564174D01*
X138937713Y-78711694D01*
X139054519Y-78872464D01*
X139195036Y-79012981D01*
X139355806Y-79129787D01*
X139474332Y-79190179D01*
X139512280Y-79209515D01*
X139563076Y-79257490D01*
X139579871Y-79325311D01*
X139557333Y-79391446D01*
X139512280Y-79430485D01*
X139355805Y-79510213D01*
X139195033Y-79627021D01*
X139054521Y-79767533D01*
X138937713Y-79928305D01*
X138847494Y-80105367D01*
X138847493Y-80105370D01*
X138786087Y-80294362D01*
X138755000Y-80490639D01*
X138755000Y-80689360D01*
X138786087Y-80885637D01*
X138847493Y-81074629D01*
X138847494Y-81074632D01*
X138926792Y-81230261D01*
X138937713Y-81251694D01*
X139054519Y-81412464D01*
X139195036Y-81552981D01*
X139355806Y-81669787D01*
X139474332Y-81730179D01*
X139512280Y-81749515D01*
X139563076Y-81797490D01*
X139579871Y-81865311D01*
X139557333Y-81931446D01*
X139512280Y-81970485D01*
X139355805Y-82050213D01*
X139195033Y-82167021D01*
X139054521Y-82307533D01*
X138937713Y-82468305D01*
X138847494Y-82645367D01*
X138847493Y-82645370D01*
X138786087Y-82834362D01*
X138755000Y-83030639D01*
X138755000Y-83229360D01*
X138786087Y-83425637D01*
X138847493Y-83614629D01*
X138847494Y-83614632D01*
X138937713Y-83791694D01*
X139054519Y-83952464D01*
X139195036Y-84092981D01*
X139355806Y-84209787D01*
X139474332Y-84270179D01*
X139512280Y-84289515D01*
X139563076Y-84337490D01*
X139579871Y-84405311D01*
X139557333Y-84471446D01*
X139512280Y-84510485D01*
X139355805Y-84590213D01*
X139195033Y-84707021D01*
X139054521Y-84847533D01*
X138937713Y-85008305D01*
X138847494Y-85185367D01*
X138847493Y-85185370D01*
X138786087Y-85374362D01*
X138755000Y-85570639D01*
X138755000Y-85769360D01*
X138786087Y-85965637D01*
X138847493Y-86154629D01*
X138847494Y-86154632D01*
X138916779Y-86290609D01*
X138937713Y-86331694D01*
X139054519Y-86492464D01*
X139054521Y-86492466D01*
X139095468Y-86533413D01*
X139128953Y-86594736D01*
X139123969Y-86664428D01*
X139095468Y-86708775D01*
X135337769Y-90466475D01*
X135250644Y-90553599D01*
X135250638Y-90553607D01*
X135182192Y-90656040D01*
X135182184Y-90656054D01*
X135148847Y-90736542D01*
X135143323Y-90749878D01*
X135135037Y-90769880D01*
X135135035Y-90769888D01*
X135111000Y-90890724D01*
X135111000Y-100648318D01*
X135091315Y-100715357D01*
X135038511Y-100761112D01*
X134969353Y-100771056D01*
X134930708Y-100758804D01*
X134916886Y-100751762D01*
X134916882Y-100751761D01*
X134916879Y-100751759D01*
X134677285Y-100673910D01*
X134428462Y-100634500D01*
X134176538Y-100634500D01*
X134052126Y-100654205D01*
X133927714Y-100673910D01*
X133688116Y-100751760D01*
X133463651Y-100866132D01*
X133259850Y-101014201D01*
X133259845Y-101014205D01*
X133081705Y-101192345D01*
X133081701Y-101192350D01*
X132933632Y-101396151D01*
X132819260Y-101620616D01*
X132744975Y-101849243D01*
X132741410Y-101860215D01*
X132702000Y-102109038D01*
X132702000Y-102360962D01*
X132727902Y-102524500D01*
X132741410Y-102609785D01*
X132819260Y-102849383D01*
X132897913Y-103003747D01*
X132918142Y-103043449D01*
X132933632Y-103073848D01*
X133081701Y-103277649D01*
X133081705Y-103277654D01*
X133081707Y-103277656D01*
X133259844Y-103455793D01*
X133259845Y-103455794D01*
X133259844Y-103455794D01*
X133266161Y-103460383D01*
X133308827Y-103515714D01*
X133314805Y-103585327D01*
X133282199Y-103647122D01*
X133221360Y-103681479D01*
X133173878Y-103683174D01*
X133119111Y-103674500D01*
X132945889Y-103674500D01*
X132906228Y-103680781D01*
X132774802Y-103701597D01*
X132610052Y-103755128D01*
X132455711Y-103833768D01*
X132398789Y-103875125D01*
X132315572Y-103935586D01*
X132315570Y-103935588D01*
X132315569Y-103935588D01*
X132193088Y-104058069D01*
X132193088Y-104058070D01*
X132193086Y-104058072D01*
X132176830Y-104080447D01*
X132091268Y-104198211D01*
X132012628Y-104352552D01*
X131959097Y-104517302D01*
X131947516Y-104590424D01*
X131932000Y-104688389D01*
X131932000Y-104861611D01*
X131959098Y-105032701D01*
X132012627Y-105197445D01*
X132091268Y-105351788D01*
X132193086Y-105491928D01*
X132315572Y-105614414D01*
X132455712Y-105716232D01*
X132610055Y-105794873D01*
X132774799Y-105848402D01*
X132945889Y-105875500D01*
X132945890Y-105875500D01*
X133119110Y-105875500D01*
X133119111Y-105875500D01*
X133290201Y-105848402D01*
X133454945Y-105794873D01*
X133609288Y-105716232D01*
X133749428Y-105614414D01*
X133871914Y-105491928D01*
X133973732Y-105351788D01*
X134052373Y-105197445D01*
X134105902Y-105032701D01*
X134133000Y-104861611D01*
X134133000Y-104688389D01*
X134105902Y-104517299D01*
X134052373Y-104352555D01*
X133973732Y-104198212D01*
X133871914Y-104058072D01*
X133819982Y-104006140D01*
X133786497Y-103944817D01*
X133791481Y-103875125D01*
X133833353Y-103819192D01*
X133898817Y-103794775D01*
X133927061Y-103795986D01*
X133927712Y-103796089D01*
X133927715Y-103796090D01*
X134176538Y-103835500D01*
X134176539Y-103835500D01*
X134428461Y-103835500D01*
X134428462Y-103835500D01*
X134677285Y-103796090D01*
X134916879Y-103718241D01*
X134930703Y-103711196D01*
X134999372Y-103698300D01*
X135064113Y-103724575D01*
X135104371Y-103781680D01*
X135111000Y-103821681D01*
X135111000Y-105540546D01*
X135103772Y-105565161D01*
X135100447Y-105590605D01*
X135093189Y-105601202D01*
X135091315Y-105607585D01*
X135081748Y-105620538D01*
X135078370Y-105624538D01*
X135026643Y-105676266D01*
X134999939Y-105716232D01*
X134996078Y-105722008D01*
X134996072Y-105722017D01*
X134958191Y-105778708D01*
X134958186Y-105778717D01*
X134929323Y-105848402D01*
X134924848Y-105859206D01*
X134919324Y-105872542D01*
X134911038Y-105892544D01*
X134911036Y-105892552D01*
X134887001Y-106013388D01*
X134887001Y-107154858D01*
X134867316Y-107221897D01*
X134814512Y-107267652D01*
X134763013Y-107278858D01*
X134756324Y-107278858D01*
X134642446Y-107293848D01*
X134642438Y-107293851D01*
X134500738Y-107352545D01*
X134379057Y-107445914D01*
X134285688Y-107567595D01*
X134226994Y-107709293D01*
X134222387Y-107744285D01*
X134194119Y-107808181D01*
X134187129Y-107815778D01*
X133247159Y-108755750D01*
X132951269Y-109051640D01*
X132951267Y-109051642D01*
X132918044Y-109084865D01*
X132864142Y-109138766D01*
X132857460Y-109148767D01*
X132832097Y-109186726D01*
X132795688Y-109241214D01*
X132762789Y-109320642D01*
X132760732Y-109325606D01*
X132760725Y-109325621D01*
X132748539Y-109355039D01*
X132748535Y-109355053D01*
X132743663Y-109379546D01*
X132743664Y-109379547D01*
X132729847Y-109449014D01*
X132729846Y-109449016D01*
X132724500Y-109475891D01*
X132724500Y-116401749D01*
X132748535Y-116522582D01*
X132748540Y-116522599D01*
X132795685Y-116636418D01*
X132795687Y-116636421D01*
X132795688Y-116636424D01*
X132829915Y-116687647D01*
X132864142Y-116738871D01*
X132951267Y-116825996D01*
X132951270Y-116825998D01*
X132958554Y-116833282D01*
X135069431Y-118944159D01*
X135102916Y-119005482D01*
X135105750Y-119031840D01*
X135105750Y-119695643D01*
X135086065Y-119762682D01*
X135033261Y-119808437D01*
X134964103Y-119818381D01*
X134925459Y-119806130D01*
X134916884Y-119801761D01*
X134916881Y-119801760D01*
X134916879Y-119801759D01*
X134677285Y-119723910D01*
X134428462Y-119684500D01*
X134176538Y-119684500D01*
X134052126Y-119704205D01*
X133927714Y-119723910D01*
X133688116Y-119801760D01*
X133463651Y-119916132D01*
X133259850Y-120064201D01*
X133259845Y-120064205D01*
X133081705Y-120242345D01*
X133081701Y-120242350D01*
X132933632Y-120446151D01*
X132819260Y-120670616D01*
X132741410Y-120910214D01*
X132702000Y-121159038D01*
X132702000Y-121410961D01*
X132741410Y-121659785D01*
X132819260Y-121899383D01*
X132844930Y-121949762D01*
X132920817Y-122098699D01*
X132933632Y-122123848D01*
X133081701Y-122327649D01*
X133081705Y-122327654D01*
X133081707Y-122327656D01*
X133259844Y-122505793D01*
X133259845Y-122505794D01*
X133259844Y-122505794D01*
X133266161Y-122510383D01*
X133308827Y-122565714D01*
X133314805Y-122635327D01*
X133282199Y-122697122D01*
X133221360Y-122731479D01*
X133173878Y-122733174D01*
X133119111Y-122724500D01*
X132945889Y-122724500D01*
X132906228Y-122730781D01*
X132774802Y-122751597D01*
X132610052Y-122805128D01*
X132455711Y-122883768D01*
X132398789Y-122925125D01*
X132315572Y-122985586D01*
X132315570Y-122985588D01*
X132315569Y-122985588D01*
X132193088Y-123108069D01*
X132193088Y-123108070D01*
X132193086Y-123108072D01*
X132149359Y-123168256D01*
X132091268Y-123248211D01*
X132012628Y-123402552D01*
X131959097Y-123567302D01*
X131932000Y-123738389D01*
X131932000Y-123911610D01*
X131953840Y-124049507D01*
X131959098Y-124082701D01*
X132012627Y-124247445D01*
X132091268Y-124401788D01*
X132193086Y-124541928D01*
X132315572Y-124664414D01*
X132455712Y-124766232D01*
X132610055Y-124844873D01*
X132774799Y-124898402D01*
X132945889Y-124925500D01*
X132945890Y-124925500D01*
X133119110Y-124925500D01*
X133119111Y-124925500D01*
X133290201Y-124898402D01*
X133454945Y-124844873D01*
X133609288Y-124766232D01*
X133749428Y-124664414D01*
X133871914Y-124541928D01*
X133973732Y-124401788D01*
X134052373Y-124247445D01*
X134105902Y-124082701D01*
X134133000Y-123911611D01*
X134133000Y-123738389D01*
X134105902Y-123567299D01*
X134052373Y-123402555D01*
X133973732Y-123248212D01*
X133871914Y-123108072D01*
X133819982Y-123056140D01*
X133786497Y-122994817D01*
X133791481Y-122925125D01*
X133833353Y-122869192D01*
X133898817Y-122844775D01*
X133927061Y-122845986D01*
X133927712Y-122846089D01*
X133927715Y-122846090D01*
X134176538Y-122885500D01*
X134176539Y-122885500D01*
X134428461Y-122885500D01*
X134428462Y-122885500D01*
X134677285Y-122846090D01*
X134916879Y-122768241D01*
X134925452Y-122763873D01*
X134994121Y-122750975D01*
X135058862Y-122777249D01*
X135099121Y-122834354D01*
X135105750Y-122874356D01*
X135105750Y-123982468D01*
X135086065Y-124049507D01*
X135069431Y-124070149D01*
X135026645Y-124112934D01*
X135026639Y-124112942D01*
X134958191Y-124215378D01*
X134958189Y-124215383D01*
X134937641Y-124264992D01*
X134937641Y-124264993D01*
X134911039Y-124329215D01*
X134911036Y-124329225D01*
X134887001Y-124450059D01*
X134887001Y-126204858D01*
X134867316Y-126271897D01*
X134814512Y-126317652D01*
X134763013Y-126328858D01*
X134756324Y-126328858D01*
X134642446Y-126343848D01*
X134642438Y-126343851D01*
X134500738Y-126402545D01*
X134379057Y-126495914D01*
X134285688Y-126617595D01*
X134226994Y-126759293D01*
X134226994Y-126759294D01*
X134220210Y-126810820D01*
X134191942Y-126874716D01*
X134184952Y-126882314D01*
X133249507Y-127817761D01*
X132951269Y-128115999D01*
X132951267Y-128116001D01*
X132928410Y-128138858D01*
X132864144Y-128203123D01*
X132864142Y-128203126D01*
X132848986Y-128225809D01*
X132848985Y-128225811D01*
X132848984Y-128225810D01*
X132795686Y-128305576D01*
X132795685Y-128305577D01*
X132767683Y-128373181D01*
X132767684Y-128373182D01*
X132754527Y-128404944D01*
X132754525Y-128404951D01*
X132750403Y-128414904D01*
X132748537Y-128419408D01*
X132726008Y-128532674D01*
X132725733Y-128534055D01*
X132725727Y-128534083D01*
X132724501Y-128540247D01*
X132724500Y-128540258D01*
X132724500Y-131980888D01*
X132704815Y-132047927D01*
X132652011Y-132093682D01*
X132582853Y-132103626D01*
X132531609Y-132083990D01*
X132466685Y-132040609D01*
X132466672Y-132040602D01*
X132321001Y-131980264D01*
X132320991Y-131980261D01*
X132165649Y-131949361D01*
X132103738Y-131916976D01*
X132102160Y-131915425D01*
X130224319Y-130037584D01*
X130190834Y-129976261D01*
X130188000Y-129949903D01*
X130188000Y-89300097D01*
X130207685Y-89233058D01*
X130224319Y-89212416D01*
X130805453Y-88631282D01*
X131602162Y-87834572D01*
X131663483Y-87801089D01*
X131665650Y-87800638D01*
X131723585Y-87789113D01*
X131820997Y-87769737D01*
X131966679Y-87709394D01*
X132097789Y-87621789D01*
X132209289Y-87510289D01*
X132296894Y-87379179D01*
X132357237Y-87233497D01*
X132388000Y-87078842D01*
X132388000Y-86921158D01*
X132388000Y-86921155D01*
X132387999Y-86921153D01*
X132357617Y-86768414D01*
X132357237Y-86766503D01*
X132354663Y-86760288D01*
X132296897Y-86620827D01*
X132296890Y-86620814D01*
X132209289Y-86489711D01*
X132209286Y-86489707D01*
X132097792Y-86378213D01*
X132097788Y-86378210D01*
X131966685Y-86290609D01*
X131966672Y-86290602D01*
X131821001Y-86230264D01*
X131820989Y-86230261D01*
X131666345Y-86199500D01*
X131666342Y-86199500D01*
X131508658Y-86199500D01*
X131508655Y-86199500D01*
X131354010Y-86230261D01*
X131353999Y-86230264D01*
X131303970Y-86250986D01*
X131234501Y-86258453D01*
X131172022Y-86227177D01*
X131136371Y-86167088D01*
X131134903Y-86160615D01*
X131111789Y-86044414D01*
X131106237Y-86016503D01*
X131085168Y-85965637D01*
X131045897Y-85870827D01*
X131045890Y-85870814D01*
X131010314Y-85817571D01*
X130989436Y-85750894D01*
X131007920Y-85683513D01*
X131025735Y-85660999D01*
X131678429Y-85008305D01*
X133852164Y-82834571D01*
X133913485Y-82801088D01*
X133915652Y-82800637D01*
X133916341Y-82800500D01*
X133916342Y-82800500D01*
X134070997Y-82769737D01*
X134216679Y-82709394D01*
X134347789Y-82621789D01*
X134459289Y-82510289D01*
X134546894Y-82379179D01*
X134607237Y-82233497D01*
X134638000Y-82078842D01*
X134638000Y-81921158D01*
X134638000Y-81921155D01*
X134637999Y-81921153D01*
X134615484Y-81807963D01*
X134607237Y-81766503D01*
X134607235Y-81766498D01*
X134546897Y-81620827D01*
X134546890Y-81620814D01*
X134459289Y-81489711D01*
X134459286Y-81489707D01*
X134347792Y-81378213D01*
X134347788Y-81378210D01*
X134216685Y-81290609D01*
X134216672Y-81290602D01*
X134071001Y-81230264D01*
X134070989Y-81230261D01*
X133916345Y-81199500D01*
X133916342Y-81199500D01*
X133758658Y-81199500D01*
X133758655Y-81199500D01*
X133604010Y-81230261D01*
X133603998Y-81230264D01*
X133458327Y-81290602D01*
X133458314Y-81290609D01*
X133327211Y-81378210D01*
X133327207Y-81378213D01*
X133215713Y-81489707D01*
X133215710Y-81489711D01*
X133128109Y-81620814D01*
X133128102Y-81620827D01*
X133067764Y-81766498D01*
X133067761Y-81766508D01*
X133036862Y-81921848D01*
X133004477Y-81983759D01*
X133002926Y-81985337D01*
X129967786Y-85020478D01*
X129855981Y-85132282D01*
X129855980Y-85132284D01*
X129817173Y-85199500D01*
X129776923Y-85269215D01*
X129735999Y-85421943D01*
X129735999Y-85421945D01*
X129735999Y-85590046D01*
X129736000Y-85590059D01*
X129736000Y-85670234D01*
X129716315Y-85737273D01*
X129715102Y-85739125D01*
X129627109Y-85870814D01*
X129627102Y-85870827D01*
X129566764Y-86016498D01*
X129566761Y-86016510D01*
X129536000Y-86171153D01*
X129536000Y-86328846D01*
X129566761Y-86483489D01*
X129566764Y-86483501D01*
X129627102Y-86629172D01*
X129627109Y-86629185D01*
X129714710Y-86760288D01*
X129714713Y-86760292D01*
X129826207Y-86871786D01*
X129826211Y-86871789D01*
X129957314Y-86959390D01*
X129957327Y-86959397D01*
X130102998Y-87019735D01*
X130103003Y-87019737D01*
X130257653Y-87050499D01*
X130257656Y-87050500D01*
X130388403Y-87050500D01*
X130455442Y-87070185D01*
X130501197Y-87122989D01*
X130511141Y-87192147D01*
X130482116Y-87255703D01*
X130476086Y-87262178D01*
X129828768Y-87909496D01*
X129218786Y-88519478D01*
X129106981Y-88631282D01*
X129106979Y-88631285D01*
X129056861Y-88718094D01*
X129056859Y-88718096D01*
X129027925Y-88768209D01*
X129027924Y-88768210D01*
X129027923Y-88768215D01*
X128986999Y-88920943D01*
X128986999Y-88920945D01*
X128986999Y-89089046D01*
X128987000Y-89089059D01*
X128987000Y-130163330D01*
X128986999Y-130163348D01*
X128986999Y-130329054D01*
X128986998Y-130329054D01*
X128986999Y-130329057D01*
X129027923Y-130481785D01*
X129031639Y-130488221D01*
X129031642Y-130488233D01*
X129031645Y-130488232D01*
X129106975Y-130618709D01*
X129106981Y-130618717D01*
X129225849Y-130737585D01*
X129225855Y-130737590D01*
X131252925Y-132764660D01*
X131286410Y-132825983D01*
X131286861Y-132828149D01*
X131317761Y-132983491D01*
X131317764Y-132983501D01*
X131378102Y-133129172D01*
X131378109Y-133129185D01*
X131465710Y-133260288D01*
X131465713Y-133260292D01*
X131577207Y-133371786D01*
X131577211Y-133371789D01*
X131708314Y-133459390D01*
X131708327Y-133459397D01*
X131852492Y-133519111D01*
X131854003Y-133519737D01*
X132008653Y-133550499D01*
X132008656Y-133550500D01*
X132008658Y-133550500D01*
X132166344Y-133550500D01*
X132166345Y-133550499D01*
X132320997Y-133519737D01*
X132466679Y-133459394D01*
X132531610Y-133416008D01*
X132598286Y-133395131D01*
X132665666Y-133413615D01*
X132712357Y-133465594D01*
X132724500Y-133519111D01*
X132724500Y-137427442D01*
X132748535Y-137548275D01*
X132748540Y-137548292D01*
X132795685Y-137662111D01*
X132795687Y-137662114D01*
X132795688Y-137662117D01*
X132829915Y-137713340D01*
X132864142Y-137764564D01*
X132951267Y-137851689D01*
X132951270Y-137851691D01*
X132958554Y-137858975D01*
X133743704Y-138644125D01*
X133777189Y-138705448D01*
X133772205Y-138775140D01*
X133730333Y-138831073D01*
X133694354Y-138849733D01*
X133688120Y-138851759D01*
X133463651Y-138966132D01*
X133259850Y-139114201D01*
X133259845Y-139114205D01*
X133081705Y-139292345D01*
X133081701Y-139292350D01*
X132933632Y-139496151D01*
X132819260Y-139720616D01*
X132741410Y-139960214D01*
X132702000Y-140209038D01*
X132702000Y-140460961D01*
X132741410Y-140709785D01*
X132819260Y-140949383D01*
X132844930Y-140999762D01*
X132925672Y-141158227D01*
X132933632Y-141173848D01*
X133081701Y-141377649D01*
X133081705Y-141377654D01*
X133081707Y-141377656D01*
X133259844Y-141555793D01*
X133259845Y-141555794D01*
X133259844Y-141555794D01*
X133266161Y-141560383D01*
X133308827Y-141615714D01*
X133314805Y-141685327D01*
X133282199Y-141747122D01*
X133221360Y-141781479D01*
X133173878Y-141783174D01*
X133119111Y-141774500D01*
X132945889Y-141774500D01*
X132906228Y-141780781D01*
X132774802Y-141801597D01*
X132610052Y-141855128D01*
X132455711Y-141933768D01*
X132398789Y-141975125D01*
X132315572Y-142035586D01*
X132315570Y-142035588D01*
X132315569Y-142035588D01*
X132193088Y-142158069D01*
X132193088Y-142158070D01*
X132193086Y-142158072D01*
X132149359Y-142218256D01*
X132091268Y-142298211D01*
X132012628Y-142452552D01*
X131959097Y-142617302D01*
X131941555Y-142728058D01*
X131932000Y-142788389D01*
X131932000Y-142961611D01*
X131959098Y-143132701D01*
X132012627Y-143297445D01*
X132091268Y-143451788D01*
X132193086Y-143591928D01*
X132315572Y-143714414D01*
X132455712Y-143816232D01*
X132610055Y-143894873D01*
X132774799Y-143948402D01*
X132945889Y-143975500D01*
X132945890Y-143975500D01*
X133119110Y-143975500D01*
X133119111Y-143975500D01*
X133290201Y-143948402D01*
X133454945Y-143894873D01*
X133609288Y-143816232D01*
X133749428Y-143714414D01*
X133871914Y-143591928D01*
X133973732Y-143451788D01*
X134052373Y-143297445D01*
X134105902Y-143132701D01*
X134133000Y-142961611D01*
X134133000Y-142788389D01*
X134105902Y-142617299D01*
X134052373Y-142452555D01*
X133973732Y-142298212D01*
X133871914Y-142158072D01*
X133819982Y-142106140D01*
X133786497Y-142044817D01*
X133791481Y-141975125D01*
X133833353Y-141919192D01*
X133898817Y-141894775D01*
X133927061Y-141895986D01*
X133927712Y-141896089D01*
X133927715Y-141896090D01*
X134176538Y-141935500D01*
X134176539Y-141935500D01*
X134428461Y-141935500D01*
X134428462Y-141935500D01*
X134677285Y-141896090D01*
X134724683Y-141880688D01*
X134794522Y-141878692D01*
X134854355Y-141914772D01*
X134885184Y-141977472D01*
X134887001Y-141998619D01*
X134887001Y-145254858D01*
X134867316Y-145321897D01*
X134814512Y-145367652D01*
X134763013Y-145378858D01*
X134756324Y-145378858D01*
X134642446Y-145393848D01*
X134642438Y-145393851D01*
X134500738Y-145452545D01*
X134379057Y-145545914D01*
X134285688Y-145667595D01*
X134226994Y-145809293D01*
X134226994Y-145809294D01*
X134220210Y-145860820D01*
X134191942Y-145924716D01*
X134184953Y-145932314D01*
X133987770Y-146129498D01*
X133987768Y-146129500D01*
X133944205Y-146173062D01*
X133900643Y-146216624D01*
X133875399Y-146254405D01*
X133875398Y-146254404D01*
X133832190Y-146319070D01*
X133832186Y-146319077D01*
X133785041Y-146432896D01*
X133785036Y-146432912D01*
X133763332Y-146542028D01*
X133763333Y-146542029D01*
X133761001Y-146553753D01*
X133761001Y-150142861D01*
X133782760Y-150252251D01*
X133785038Y-150263703D01*
X133798848Y-150297043D01*
X133832189Y-150377537D01*
X133847534Y-150400501D01*
X133852377Y-150407749D01*
X133900642Y-150479984D01*
X133992087Y-150571429D01*
X133992109Y-150571449D01*
X137066266Y-153645606D01*
X137066295Y-153645637D01*
X137156514Y-153735856D01*
X137193079Y-153760288D01*
X137193081Y-153760289D01*
X137258965Y-153804312D01*
X137300495Y-153821514D01*
X137372798Y-153851463D01*
X137433221Y-153863481D01*
X137493643Y-153875500D01*
X137493644Y-153875500D01*
X146295150Y-153875500D01*
X146362189Y-153895185D01*
X146364041Y-153896398D01*
X146458321Y-153959394D01*
X146458323Y-153959395D01*
X146458327Y-153959397D01*
X146603998Y-154019735D01*
X146604003Y-154019737D01*
X146604007Y-154019737D01*
X146604008Y-154019738D01*
X146681401Y-154035133D01*
X146743312Y-154067518D01*
X146777886Y-154128234D01*
X146774146Y-154198003D01*
X146733279Y-154254675D01*
X146668261Y-154280257D01*
X146657209Y-154280750D01*
X130971066Y-154280750D01*
X130966429Y-154280663D01*
X130476941Y-154262344D01*
X130467693Y-154261651D01*
X129983245Y-154207063D01*
X129974076Y-154205681D01*
X129495062Y-154115044D01*
X129486022Y-154112981D01*
X129015105Y-153986796D01*
X129006244Y-153984062D01*
X128546092Y-153823045D01*
X128537460Y-153819657D01*
X128090631Y-153624705D01*
X128082276Y-153620682D01*
X127651251Y-153392876D01*
X127643221Y-153388240D01*
X127230428Y-153128863D01*
X127222766Y-153123639D01*
X126830512Y-152834138D01*
X126823262Y-152828356D01*
X126453739Y-152510354D01*
X126446942Y-152504047D01*
X126102221Y-152159324D01*
X126095913Y-152152526D01*
X125820452Y-151832432D01*
X125777901Y-151782987D01*
X125772132Y-151775752D01*
X125482636Y-151383496D01*
X125477415Y-151375840D01*
X125218033Y-150963034D01*
X125213397Y-150955003D01*
X124985596Y-150523980D01*
X124981585Y-150515651D01*
X124844294Y-150200974D01*
X124786627Y-150068799D01*
X124783239Y-150060168D01*
X124622218Y-149599997D01*
X124619485Y-149591135D01*
X124608802Y-149551266D01*
X124493304Y-149120217D01*
X124491248Y-149111209D01*
X124400610Y-148632172D01*
X124399229Y-148623009D01*
X124344643Y-148138542D01*
X124343953Y-148129326D01*
X124325586Y-147638488D01*
X124325500Y-147633853D01*
X124325500Y-80360176D01*
X124345185Y-80293137D01*
X124361819Y-80272495D01*
X131508495Y-73125819D01*
X131569818Y-73092334D01*
X131596176Y-73089500D01*
X170825500Y-73089500D01*
X170892539Y-73109185D01*
G37*
%TD.AperFunction*%
%TA.AperFunction,Conductor*%
G36*
X134180703Y-129107294D02*
G01*
X134218477Y-129166072D01*
X134222439Y-129184824D01*
X134226992Y-129219412D01*
X134226994Y-129219420D01*
X134285688Y-129361120D01*
X134285689Y-129361121D01*
X134379057Y-129482802D01*
X134500738Y-129576170D01*
X134642438Y-129634865D01*
X134756324Y-129649858D01*
X134788000Y-129649857D01*
X134855038Y-129669540D01*
X134900794Y-129722342D01*
X134912001Y-129773857D01*
X134912001Y-130663331D01*
X134912000Y-130663349D01*
X134912000Y-130829055D01*
X134911999Y-130829055D01*
X134952924Y-130981786D01*
X134981859Y-131031901D01*
X134981860Y-131031905D01*
X134981861Y-131031905D01*
X135031980Y-131118715D01*
X135031982Y-131118718D01*
X135150850Y-131237586D01*
X135150856Y-131237591D01*
X137627639Y-133714374D01*
X137627649Y-133714385D01*
X137631979Y-133718715D01*
X137631980Y-133718716D01*
X137743784Y-133830520D01*
X137743786Y-133830521D01*
X137743790Y-133830524D01*
X137814167Y-133871156D01*
X137814171Y-133871157D01*
X137814172Y-133871158D01*
X137880715Y-133909577D01*
X138033443Y-133950501D01*
X138033446Y-133950501D01*
X138199153Y-133950501D01*
X138199169Y-133950500D01*
X149100902Y-133950500D01*
X149167941Y-133970185D01*
X149213696Y-134022989D01*
X149222519Y-134050308D01*
X149249011Y-134183491D01*
X149249014Y-134183501D01*
X149309352Y-134329172D01*
X149309359Y-134329184D01*
X149372352Y-134423459D01*
X149393230Y-134490136D01*
X149393250Y-134492350D01*
X149393250Y-142607218D01*
X149417285Y-142728051D01*
X149417290Y-142728068D01*
X149464435Y-142841887D01*
X149464437Y-142841890D01*
X149464438Y-142841893D01*
X149498665Y-142893116D01*
X149532892Y-142944340D01*
X149620017Y-143031465D01*
X149620019Y-143031466D01*
X149629982Y-143041429D01*
X152783050Y-146194497D01*
X152816535Y-146255820D01*
X152811551Y-146325512D01*
X152783050Y-146369859D01*
X149959953Y-149192955D01*
X149898630Y-149226440D01*
X149896464Y-149226891D01*
X149785258Y-149249011D01*
X149785248Y-149249014D01*
X149639577Y-149309352D01*
X149639564Y-149309359D01*
X149508461Y-149396960D01*
X149508457Y-149396963D01*
X149396963Y-149508457D01*
X149396960Y-149508461D01*
X149309359Y-149639564D01*
X149309352Y-149639577D01*
X149249014Y-149785248D01*
X149249011Y-149785260D01*
X149218250Y-149939903D01*
X149218250Y-150097596D01*
X149249011Y-150252239D01*
X149249014Y-150252251D01*
X149309352Y-150397922D01*
X149309359Y-150397935D01*
X149396960Y-150529038D01*
X149396963Y-150529042D01*
X149508457Y-150640536D01*
X149508461Y-150640539D01*
X149639564Y-150728140D01*
X149639577Y-150728147D01*
X149785248Y-150788485D01*
X149785253Y-150788487D01*
X149939903Y-150819249D01*
X149939906Y-150819250D01*
X149939908Y-150819250D01*
X150097594Y-150819250D01*
X150097595Y-150819249D01*
X150252247Y-150788487D01*
X150397929Y-150728144D01*
X150529039Y-150640539D01*
X150640539Y-150529039D01*
X150728144Y-150397929D01*
X150732478Y-150387467D01*
X150769932Y-150297043D01*
X150788487Y-150252247D01*
X150810608Y-150141032D01*
X150842990Y-150079125D01*
X150844485Y-150077603D01*
X153050322Y-147871766D01*
X153111643Y-147838283D01*
X153181335Y-147843267D01*
X153237268Y-147885139D01*
X153261685Y-147950603D01*
X153262001Y-147959448D01*
X153262001Y-148155536D01*
X153276992Y-148269412D01*
X153276994Y-148269420D01*
X153335688Y-148411120D01*
X153335689Y-148411121D01*
X153429057Y-148532802D01*
X153550738Y-148626170D01*
X153692438Y-148684865D01*
X153806324Y-148699858D01*
X154943942Y-148699857D01*
X155010981Y-148719542D01*
X155043146Y-148749462D01*
X155117953Y-148849216D01*
X155252144Y-148973060D01*
X155406538Y-149070565D01*
X155576032Y-149138508D01*
X155576039Y-149138509D01*
X155576041Y-149138510D01*
X155622209Y-149147831D01*
X155755025Y-149174646D01*
X155937603Y-149177783D01*
X156117732Y-149147816D01*
X156289461Y-149085735D01*
X156304622Y-149076899D01*
X156311157Y-149073099D01*
X156311431Y-149073025D01*
X156339253Y-149056765D01*
X156339438Y-149056658D01*
X156342486Y-149055908D01*
X156401761Y-149039858D01*
X157882798Y-149039858D01*
X157882902Y-149039864D01*
X157891105Y-149039863D01*
X157891108Y-149039864D01*
X157923247Y-149039861D01*
X157985806Y-149056792D01*
X158020225Y-149076899D01*
X158021066Y-149077318D01*
X158035537Y-149085752D01*
X158190385Y-149141730D01*
X158207268Y-149147833D01*
X158387400Y-149177799D01*
X158569981Y-149174661D01*
X158748977Y-149138523D01*
X158918473Y-149070577D01*
X159072868Y-148973071D01*
X159207061Y-148849225D01*
X159282247Y-148748963D01*
X159338216Y-148707140D01*
X159381452Y-148699358D01*
X159512501Y-148699358D01*
X160012501Y-148699358D01*
X160518648Y-148699358D01*
X160632431Y-148684378D01*
X160632436Y-148684376D01*
X160774007Y-148625736D01*
X160774008Y-148625736D01*
X160895587Y-148532444D01*
X160988879Y-148410865D01*
X160988879Y-148410864D01*
X161047519Y-148269293D01*
X161047521Y-148269288D01*
X161062501Y-148155504D01*
X161062501Y-148039358D01*
X160012501Y-148039358D01*
X160012501Y-148699358D01*
X159512501Y-148699358D01*
X159512501Y-147913358D01*
X159532186Y-147846319D01*
X159584990Y-147800564D01*
X159636501Y-147789358D01*
X159762501Y-147789358D01*
X159762501Y-147663358D01*
X159782186Y-147596319D01*
X159834990Y-147550564D01*
X159886501Y-147539358D01*
X161062501Y-147539358D01*
X161062501Y-147423211D01*
X161047521Y-147309427D01*
X161047519Y-147309422D01*
X160988879Y-147167851D01*
X160988876Y-147167846D01*
X160948521Y-147115254D01*
X160938480Y-147089282D01*
X160925425Y-147064681D01*
X160926054Y-147057140D01*
X160923327Y-147050085D01*
X160928922Y-147022803D01*
X160931240Y-146995053D01*
X160936555Y-146985588D01*
X160937365Y-146981640D01*
X160948516Y-146964289D01*
X160968404Y-146938369D01*
X161024833Y-146897168D01*
X161066779Y-146889858D01*
X162658011Y-146889858D01*
X162725050Y-146909543D01*
X162745692Y-146926177D01*
X163669431Y-147849916D01*
X163702916Y-147911239D01*
X163705750Y-147937597D01*
X163705750Y-149718653D01*
X163686065Y-149785692D01*
X163669431Y-149806334D01*
X161712584Y-151763181D01*
X161651261Y-151796666D01*
X161624903Y-151799500D01*
X138412597Y-151799500D01*
X138345558Y-151779815D01*
X138324916Y-151763181D01*
X136149320Y-149587585D01*
X136115835Y-149526262D01*
X136113001Y-149499904D01*
X136113001Y-149141730D01*
X136132686Y-149074691D01*
X136185490Y-149028936D01*
X136254648Y-149018992D01*
X136303209Y-149036886D01*
X136356538Y-149070565D01*
X136356540Y-149070566D01*
X136394379Y-149085734D01*
X136526032Y-149138508D01*
X136526039Y-149138509D01*
X136526041Y-149138510D01*
X136572209Y-149147831D01*
X136705025Y-149174646D01*
X136887603Y-149177783D01*
X137067732Y-149147816D01*
X137239461Y-149085735D01*
X137254622Y-149076899D01*
X137261157Y-149073099D01*
X137261431Y-149073025D01*
X137289253Y-149056765D01*
X137289438Y-149056658D01*
X137292486Y-149055908D01*
X137351761Y-149039858D01*
X138832798Y-149039858D01*
X138832902Y-149039864D01*
X138841105Y-149039863D01*
X138841108Y-149039864D01*
X138873247Y-149039861D01*
X138935806Y-149056792D01*
X138970225Y-149076899D01*
X138971066Y-149077318D01*
X138985537Y-149085752D01*
X139140385Y-149141730D01*
X139157268Y-149147833D01*
X139337400Y-149177799D01*
X139519981Y-149174661D01*
X139698977Y-149138523D01*
X139868473Y-149070577D01*
X140022868Y-148973071D01*
X140157061Y-148849225D01*
X140232247Y-148748963D01*
X140288216Y-148707140D01*
X140331452Y-148699358D01*
X140462501Y-148699358D01*
X140962501Y-148699358D01*
X141468648Y-148699358D01*
X141582431Y-148684378D01*
X141582436Y-148684376D01*
X141724007Y-148625736D01*
X141724008Y-148625736D01*
X141845587Y-148532444D01*
X141938879Y-148410865D01*
X141938879Y-148410864D01*
X141997519Y-148269293D01*
X141997521Y-148269288D01*
X142012501Y-148155504D01*
X142012501Y-148039358D01*
X140962501Y-148039358D01*
X140962501Y-148699358D01*
X140462501Y-148699358D01*
X140462501Y-147913358D01*
X140482186Y-147846319D01*
X140534990Y-147800564D01*
X140586501Y-147789358D01*
X140712501Y-147789358D01*
X140712501Y-147663358D01*
X140732186Y-147596319D01*
X140784990Y-147550564D01*
X140836501Y-147539358D01*
X142012501Y-147539358D01*
X142012501Y-147423211D01*
X141997521Y-147309427D01*
X141997519Y-147309422D01*
X141938879Y-147167851D01*
X141938876Y-147167846D01*
X141898521Y-147115254D01*
X141888481Y-147089283D01*
X141875426Y-147064684D01*
X141876055Y-147057142D01*
X141873327Y-147050085D01*
X141878922Y-147022803D01*
X141881239Y-146995056D01*
X141886554Y-146985589D01*
X141887365Y-146981640D01*
X141898515Y-146964289D01*
X141938980Y-146911553D01*
X141995406Y-146870352D01*
X142005245Y-146867271D01*
X142073677Y-146848935D01*
X142153408Y-146802902D01*
X142210608Y-146769878D01*
X142322412Y-146658074D01*
X142322412Y-146658072D01*
X142332616Y-146647869D01*
X142332619Y-146647864D01*
X142889662Y-146090822D01*
X142950983Y-146057339D01*
X142953150Y-146056888D01*
X143011085Y-146045363D01*
X143108497Y-146025987D01*
X143254179Y-145965644D01*
X143385289Y-145878039D01*
X143496789Y-145766539D01*
X143584394Y-145635429D01*
X143644737Y-145489747D01*
X143675500Y-145335092D01*
X143675500Y-145177408D01*
X143675500Y-145177405D01*
X143675499Y-145177403D01*
X143661230Y-145105669D01*
X143644737Y-145022753D01*
X143638696Y-145008169D01*
X143584397Y-144877077D01*
X143584390Y-144877064D01*
X143496789Y-144745961D01*
X143496786Y-144745957D01*
X143385292Y-144634463D01*
X143385288Y-144634460D01*
X143254185Y-144546859D01*
X143254172Y-144546852D01*
X143108501Y-144486514D01*
X143108489Y-144486511D01*
X142953845Y-144455750D01*
X142953842Y-144455750D01*
X142796158Y-144455750D01*
X142796155Y-144455750D01*
X142641510Y-144486511D01*
X142641498Y-144486514D01*
X142495827Y-144546852D01*
X142495814Y-144546859D01*
X142364711Y-144634460D01*
X142364707Y-144634463D01*
X142253213Y-144745957D01*
X142253210Y-144745961D01*
X142165609Y-144877064D01*
X142165602Y-144877077D01*
X142105264Y-145022748D01*
X142105261Y-145022758D01*
X142074361Y-145178100D01*
X142041976Y-145240011D01*
X142040425Y-145241589D01*
X141857241Y-145424772D01*
X141795918Y-145458257D01*
X141726226Y-145453273D01*
X141722107Y-145451652D01*
X141582564Y-145393851D01*
X141582562Y-145393850D01*
X141468679Y-145378858D01*
X141468678Y-145378858D01*
X140331087Y-145378858D01*
X140264048Y-145359173D01*
X140231887Y-145329258D01*
X140157078Y-145229511D01*
X140133243Y-145207515D01*
X140022881Y-145105669D01*
X140022878Y-145105667D01*
X140022877Y-145105666D01*
X139868492Y-145008170D01*
X139862300Y-145005688D01*
X139699000Y-144940226D01*
X139698999Y-144940225D01*
X139698995Y-144940224D01*
X139520010Y-144904085D01*
X139516460Y-144903700D01*
X139514908Y-144903055D01*
X139514476Y-144902968D01*
X139514493Y-144902882D01*
X139451937Y-144876894D01*
X139412149Y-144819460D01*
X139409729Y-144749632D01*
X139445445Y-144689581D01*
X139454359Y-144682049D01*
X139516374Y-144634463D01*
X139599542Y-144570646D01*
X139808146Y-144362042D01*
X139987738Y-144127994D01*
X140135243Y-143872507D01*
X140248139Y-143599952D01*
X140324493Y-143314993D01*
X140363000Y-143022506D01*
X140363000Y-142788389D01*
X142092000Y-142788389D01*
X142092000Y-142961611D01*
X142119098Y-143132701D01*
X142172627Y-143297445D01*
X142251268Y-143451788D01*
X142353086Y-143591928D01*
X142475572Y-143714414D01*
X142615712Y-143816232D01*
X142770055Y-143894873D01*
X142934799Y-143948402D01*
X143105889Y-143975500D01*
X143105890Y-143975500D01*
X143279110Y-143975500D01*
X143279111Y-143975500D01*
X143450201Y-143948402D01*
X143614945Y-143894873D01*
X143769288Y-143816232D01*
X143909428Y-143714414D01*
X144031914Y-143591928D01*
X144133732Y-143451788D01*
X144212373Y-143297445D01*
X144265902Y-143132701D01*
X144293000Y-142961611D01*
X144293000Y-142788389D01*
X144265902Y-142617299D01*
X144212373Y-142452555D01*
X144133732Y-142298212D01*
X144031914Y-142158072D01*
X143909428Y-142035586D01*
X143769288Y-141933768D01*
X143614945Y-141855127D01*
X143450201Y-141801598D01*
X143450199Y-141801597D01*
X143450198Y-141801597D01*
X143318771Y-141780781D01*
X143279111Y-141774500D01*
X143105889Y-141774500D01*
X143066228Y-141780781D01*
X142934802Y-141801597D01*
X142770052Y-141855128D01*
X142615711Y-141933768D01*
X142558789Y-141975125D01*
X142475572Y-142035586D01*
X142475570Y-142035588D01*
X142475569Y-142035588D01*
X142353088Y-142158069D01*
X142353088Y-142158070D01*
X142353086Y-142158072D01*
X142309359Y-142218256D01*
X142251268Y-142298211D01*
X142172628Y-142452552D01*
X142119097Y-142617302D01*
X142101555Y-142728058D01*
X142092000Y-142788389D01*
X140363000Y-142788389D01*
X140363000Y-142727494D01*
X140324493Y-142435007D01*
X140248139Y-142150048D01*
X140135243Y-141877493D01*
X140106638Y-141827948D01*
X139987738Y-141622006D01*
X139808147Y-141387959D01*
X139808141Y-141387952D01*
X139599547Y-141179358D01*
X139599540Y-141179352D01*
X139365493Y-140999761D01*
X139110010Y-140852258D01*
X139110000Y-140852254D01*
X138837461Y-140739364D01*
X138837454Y-140739362D01*
X138837452Y-140739361D01*
X138552493Y-140663007D01*
X138503613Y-140656571D01*
X138260013Y-140624500D01*
X138260006Y-140624500D01*
X137964994Y-140624500D01*
X137964986Y-140624500D01*
X137686585Y-140661153D01*
X137672507Y-140663007D01*
X137497928Y-140709785D01*
X137387548Y-140739361D01*
X137387538Y-140739364D01*
X137114999Y-140852254D01*
X137114989Y-140852258D01*
X136859506Y-140999761D01*
X136625460Y-141179351D01*
X136511449Y-141293362D01*
X136450126Y-141326846D01*
X136380434Y-141321862D01*
X136324501Y-141279990D01*
X136300084Y-141214526D01*
X136309206Y-141158231D01*
X136329963Y-141108120D01*
X136354000Y-140987275D01*
X136354000Y-140864062D01*
X136354000Y-139682725D01*
X136353380Y-139679611D01*
X136353381Y-139679595D01*
X136353378Y-139679596D01*
X136339906Y-139611871D01*
X136329963Y-139561880D01*
X136282812Y-139448046D01*
X136265756Y-139422521D01*
X136214358Y-139345598D01*
X136127233Y-139258473D01*
X136127229Y-139258470D01*
X134537830Y-137669071D01*
X139052500Y-137669071D01*
X139052500Y-137920928D01*
X139091897Y-138169669D01*
X139169719Y-138409184D01*
X139284057Y-138633583D01*
X139358248Y-138735697D01*
X139358248Y-138735698D01*
X139974921Y-138119024D01*
X139987859Y-138150258D01*
X140069937Y-138273097D01*
X140174403Y-138377563D01*
X140297242Y-138459641D01*
X140328474Y-138472577D01*
X139711800Y-139089250D01*
X139813916Y-139163442D01*
X140038315Y-139277780D01*
X140277830Y-139355602D01*
X140526572Y-139395000D01*
X140778428Y-139395000D01*
X141027169Y-139355602D01*
X141266684Y-139277780D01*
X141491075Y-139163446D01*
X141491081Y-139163442D01*
X141593197Y-139089250D01*
X141593198Y-139089250D01*
X140976525Y-138472578D01*
X141007758Y-138459641D01*
X141130597Y-138377563D01*
X141235063Y-138273097D01*
X141317141Y-138150258D01*
X141330077Y-138119025D01*
X141946750Y-138735698D01*
X141946750Y-138735697D01*
X142020942Y-138633581D01*
X142020946Y-138633575D01*
X142135280Y-138409184D01*
X142213102Y-138169669D01*
X142252500Y-137920928D01*
X142252500Y-137669071D01*
X142213102Y-137420330D01*
X142135280Y-137180815D01*
X142020942Y-136956416D01*
X141946750Y-136854301D01*
X141946750Y-136854300D01*
X141330077Y-137470973D01*
X141317141Y-137439742D01*
X141235063Y-137316903D01*
X141130597Y-137212437D01*
X141007758Y-137130359D01*
X140976524Y-137117421D01*
X141593198Y-136500748D01*
X141491083Y-136426557D01*
X141266684Y-136312219D01*
X141027169Y-136234397D01*
X140778428Y-136195000D01*
X140526572Y-136195000D01*
X140277830Y-136234397D01*
X140038315Y-136312219D01*
X139813913Y-136426559D01*
X139711801Y-136500747D01*
X139711800Y-136500748D01*
X140328474Y-137117421D01*
X140297242Y-137130359D01*
X140174403Y-137212437D01*
X140069937Y-137316903D01*
X139987859Y-137439742D01*
X139974921Y-137470974D01*
X139358248Y-136854300D01*
X139358247Y-136854301D01*
X139284059Y-136956413D01*
X139169719Y-137180815D01*
X139091897Y-137420330D01*
X139052500Y-137669071D01*
X134537830Y-137669071D01*
X134011819Y-137143060D01*
X133978334Y-137081737D01*
X133975500Y-137055379D01*
X133975500Y-129201007D01*
X133995185Y-129133968D01*
X134047989Y-129088213D01*
X134117147Y-129078269D01*
X134180703Y-129107294D01*
G37*
%TD.AperFunction*%
%TA.AperFunction,Conductor*%
G36*
X162725050Y-127859543D02*
G01*
X162745692Y-127876177D01*
X163669431Y-128799916D01*
X163702916Y-128861239D01*
X163705750Y-128887597D01*
X163705750Y-130668653D01*
X163686065Y-130735692D01*
X163669431Y-130756334D01*
X161712584Y-132713181D01*
X161651261Y-132746666D01*
X161624903Y-132749500D01*
X148786597Y-132749500D01*
X148719558Y-132729815D01*
X148673803Y-132677011D01*
X148663859Y-132607853D01*
X148692884Y-132544297D01*
X148698916Y-132537819D01*
X151860558Y-129376177D01*
X151921881Y-129342692D01*
X151948239Y-129339858D01*
X153258223Y-129339858D01*
X153325262Y-129359543D01*
X153356599Y-129388372D01*
X153429057Y-129482802D01*
X153550738Y-129576170D01*
X153692438Y-129634865D01*
X153806324Y-129649858D01*
X154943942Y-129649857D01*
X155010981Y-129669542D01*
X155043146Y-129699462D01*
X155117953Y-129799216D01*
X155252144Y-129923060D01*
X155406538Y-130020565D01*
X155576032Y-130088508D01*
X155576039Y-130088509D01*
X155576041Y-130088510D01*
X155622209Y-130097831D01*
X155755025Y-130124646D01*
X155937603Y-130127783D01*
X156117732Y-130097816D01*
X156289461Y-130035735D01*
X156304622Y-130026899D01*
X156311157Y-130023099D01*
X156311431Y-130023025D01*
X156339253Y-130006765D01*
X156339438Y-130006658D01*
X156342486Y-130005908D01*
X156401761Y-129989858D01*
X157882798Y-129989858D01*
X157882902Y-129989864D01*
X157891105Y-129989863D01*
X157891108Y-129989864D01*
X157923247Y-129989861D01*
X157985806Y-130006792D01*
X158020225Y-130026899D01*
X158021066Y-130027318D01*
X158035537Y-130035752D01*
X158190385Y-130091730D01*
X158207268Y-130097833D01*
X158387400Y-130127799D01*
X158569981Y-130124661D01*
X158748977Y-130088523D01*
X158918473Y-130020577D01*
X159072868Y-129923071D01*
X159207061Y-129799225D01*
X159282247Y-129698963D01*
X159338216Y-129657140D01*
X159381452Y-129649358D01*
X159512501Y-129649358D01*
X160012501Y-129649358D01*
X160518648Y-129649358D01*
X160632431Y-129634378D01*
X160632436Y-129634376D01*
X160774007Y-129575736D01*
X160774008Y-129575736D01*
X160895587Y-129482444D01*
X160988879Y-129360865D01*
X160988879Y-129360864D01*
X161047519Y-129219293D01*
X161047521Y-129219288D01*
X161062501Y-129105504D01*
X161062501Y-128989358D01*
X160012501Y-128989358D01*
X160012501Y-129649358D01*
X159512501Y-129649358D01*
X159512501Y-128863358D01*
X159532186Y-128796319D01*
X159584990Y-128750564D01*
X159636501Y-128739358D01*
X159762501Y-128739358D01*
X159762501Y-128613358D01*
X159782186Y-128546319D01*
X159834990Y-128500564D01*
X159886501Y-128489358D01*
X161062501Y-128489358D01*
X161062501Y-128373211D01*
X161047521Y-128259427D01*
X161047519Y-128259422D01*
X160988879Y-128117851D01*
X160988876Y-128117846D01*
X160948521Y-128065254D01*
X160938480Y-128039282D01*
X160925425Y-128014681D01*
X160926054Y-128007140D01*
X160923327Y-128000085D01*
X160928922Y-127972803D01*
X160931240Y-127945053D01*
X160936555Y-127935588D01*
X160937365Y-127931640D01*
X160948516Y-127914289D01*
X160968404Y-127888369D01*
X161024833Y-127847168D01*
X161066779Y-127839858D01*
X162658011Y-127839858D01*
X162725050Y-127859543D01*
G37*
%TD.AperFunction*%
%TA.AperFunction,Conductor*%
G36*
X154157454Y-87353185D02*
G01*
X154203209Y-87405989D01*
X154213153Y-87475147D01*
X154190732Y-87530386D01*
X154177715Y-87548301D01*
X154087494Y-87725367D01*
X154087493Y-87725370D01*
X154026087Y-87914362D01*
X153995000Y-88110639D01*
X153995000Y-88309360D01*
X154026087Y-88505637D01*
X154087493Y-88694629D01*
X154087494Y-88694632D01*
X154145028Y-88807547D01*
X154177713Y-88871694D01*
X154294519Y-89032464D01*
X154435036Y-89172981D01*
X154595806Y-89289787D01*
X154714332Y-89350179D01*
X154752280Y-89369515D01*
X154803076Y-89417490D01*
X154819871Y-89485311D01*
X154797333Y-89551446D01*
X154752280Y-89590485D01*
X154595805Y-89670213D01*
X154435033Y-89787021D01*
X154294521Y-89927533D01*
X154177710Y-90088309D01*
X154176500Y-90090285D01*
X154175843Y-90090878D01*
X154174849Y-90092248D01*
X154174561Y-90092039D01*
X154124690Y-90137163D01*
X154070770Y-90149500D01*
X148924170Y-90149500D01*
X148924154Y-90149499D01*
X148916558Y-90149499D01*
X148758443Y-90149499D01*
X148682079Y-90169961D01*
X148605714Y-90190423D01*
X148605709Y-90190426D01*
X148468790Y-90269475D01*
X148468782Y-90269481D01*
X142856981Y-95881282D01*
X142856979Y-95881285D01*
X142806861Y-95968094D01*
X142806859Y-95968096D01*
X142777925Y-96018209D01*
X142777924Y-96018210D01*
X142777923Y-96018215D01*
X142736999Y-96170943D01*
X142736999Y-96170945D01*
X142736999Y-96339046D01*
X142737000Y-96339059D01*
X142737000Y-102631432D01*
X142717315Y-102698471D01*
X142700681Y-102719113D01*
X140574681Y-104845113D01*
X140513358Y-104878598D01*
X140443666Y-104873614D01*
X140387733Y-104831742D01*
X140363316Y-104766278D01*
X140363000Y-104757432D01*
X140363000Y-104627500D01*
X140362999Y-104627486D01*
X140355056Y-104567154D01*
X140324493Y-104335007D01*
X140248139Y-104050048D01*
X140135243Y-103777493D01*
X140122329Y-103755126D01*
X139987738Y-103522006D01*
X139808147Y-103287959D01*
X139808141Y-103287952D01*
X139599547Y-103079358D01*
X139599540Y-103079352D01*
X139365493Y-102899761D01*
X139110010Y-102752258D01*
X139110000Y-102752254D01*
X138837461Y-102639364D01*
X138837454Y-102639362D01*
X138837452Y-102639361D01*
X138552493Y-102563007D01*
X138501921Y-102556349D01*
X138260013Y-102524500D01*
X138260006Y-102524500D01*
X137964994Y-102524500D01*
X137964986Y-102524500D01*
X137686585Y-102561153D01*
X137672507Y-102563007D01*
X137417140Y-102631432D01*
X137387548Y-102639361D01*
X137387538Y-102639364D01*
X137114999Y-102752254D01*
X137114989Y-102752258D01*
X136859506Y-102899761D01*
X136625459Y-103079352D01*
X136625452Y-103079358D01*
X136573681Y-103131130D01*
X136512358Y-103164615D01*
X136442666Y-103159631D01*
X136386733Y-103117759D01*
X136362316Y-103052295D01*
X136362000Y-103043449D01*
X136362000Y-99569071D01*
X139052500Y-99569071D01*
X139052500Y-99820928D01*
X139091897Y-100069669D01*
X139169719Y-100309184D01*
X139284057Y-100533583D01*
X139358248Y-100635697D01*
X139358248Y-100635698D01*
X139974921Y-100019024D01*
X139987859Y-100050258D01*
X140069937Y-100173097D01*
X140174403Y-100277563D01*
X140297242Y-100359641D01*
X140328474Y-100372577D01*
X139711800Y-100989250D01*
X139813916Y-101063442D01*
X140038315Y-101177780D01*
X140277830Y-101255602D01*
X140526572Y-101295000D01*
X140778428Y-101295000D01*
X141027169Y-101255602D01*
X141266684Y-101177780D01*
X141491075Y-101063446D01*
X141491081Y-101063442D01*
X141593197Y-100989250D01*
X141593198Y-100989250D01*
X140976525Y-100372578D01*
X141007758Y-100359641D01*
X141130597Y-100277563D01*
X141235063Y-100173097D01*
X141317141Y-100050258D01*
X141330077Y-100019025D01*
X141946750Y-100635698D01*
X141946750Y-100635697D01*
X142020942Y-100533581D01*
X142020946Y-100533575D01*
X142135280Y-100309184D01*
X142213102Y-100069669D01*
X142252500Y-99820928D01*
X142252500Y-99569071D01*
X142213102Y-99320330D01*
X142135280Y-99080815D01*
X142020942Y-98856416D01*
X141946750Y-98754301D01*
X141946750Y-98754300D01*
X141330077Y-99370973D01*
X141317141Y-99339742D01*
X141235063Y-99216903D01*
X141130597Y-99112437D01*
X141007758Y-99030359D01*
X140976524Y-99017421D01*
X141593198Y-98400748D01*
X141491083Y-98326557D01*
X141266684Y-98212219D01*
X141027169Y-98134397D01*
X140778428Y-98095000D01*
X140526572Y-98095000D01*
X140277830Y-98134397D01*
X140038315Y-98212219D01*
X139813913Y-98326559D01*
X139711801Y-98400747D01*
X139711800Y-98400748D01*
X140328474Y-99017421D01*
X140297242Y-99030359D01*
X140174403Y-99112437D01*
X140069937Y-99216903D01*
X139987859Y-99339742D01*
X139974921Y-99370974D01*
X139358248Y-98754300D01*
X139358247Y-98754301D01*
X139284059Y-98856413D01*
X139169719Y-99080815D01*
X139091897Y-99320330D01*
X139052500Y-99569071D01*
X136362000Y-99569071D01*
X136362000Y-91262787D01*
X136381685Y-91195748D01*
X136398319Y-91175106D01*
X137485120Y-90088305D01*
X138737378Y-88836046D01*
X138798699Y-88802563D01*
X138868391Y-88807547D01*
X138924324Y-88849419D01*
X138935539Y-88867428D01*
X138937713Y-88871694D01*
X139054519Y-89032464D01*
X139195036Y-89172981D01*
X139355806Y-89289787D01*
X139474332Y-89350179D01*
X139512280Y-89369515D01*
X139563076Y-89417490D01*
X139579871Y-89485311D01*
X139557333Y-89551446D01*
X139512280Y-89590485D01*
X139355805Y-89670213D01*
X139195033Y-89787021D01*
X139054521Y-89927533D01*
X138937713Y-90088305D01*
X138847494Y-90265367D01*
X138847493Y-90265370D01*
X138786087Y-90454362D01*
X138755000Y-90650639D01*
X138755000Y-90849360D01*
X138786087Y-91045637D01*
X138847493Y-91234629D01*
X138847494Y-91234632D01*
X138906533Y-91350500D01*
X138937713Y-91411694D01*
X139054519Y-91572464D01*
X139195036Y-91712981D01*
X139355806Y-91829787D01*
X139442649Y-91874035D01*
X139532867Y-91920005D01*
X139532870Y-91920006D01*
X139627366Y-91950709D01*
X139721864Y-91981413D01*
X139918139Y-92012500D01*
X139918140Y-92012500D01*
X140116860Y-92012500D01*
X140116861Y-92012500D01*
X140313136Y-91981413D01*
X140502132Y-91920005D01*
X140679194Y-91829787D01*
X140839964Y-91712981D01*
X140980481Y-91572464D01*
X141097287Y-91411694D01*
X141187505Y-91234632D01*
X141248913Y-91045636D01*
X141280000Y-90849361D01*
X141280000Y-90650639D01*
X141248913Y-90454364D01*
X141218209Y-90359866D01*
X141187506Y-90265370D01*
X141187505Y-90265367D01*
X141128467Y-90149500D01*
X141097287Y-90088306D01*
X140980481Y-89927536D01*
X140839964Y-89787019D01*
X140679194Y-89670213D01*
X140522718Y-89590484D01*
X140471923Y-89542510D01*
X140455128Y-89474689D01*
X140477665Y-89408554D01*
X140522718Y-89369515D01*
X140679194Y-89289787D01*
X140839964Y-89172981D01*
X140980481Y-89032464D01*
X141097287Y-88871694D01*
X141187505Y-88694632D01*
X141248913Y-88505636D01*
X141280000Y-88309361D01*
X141280000Y-88110639D01*
X141248913Y-87914364D01*
X141248911Y-87914358D01*
X141248370Y-87912104D01*
X141248414Y-87911215D01*
X141248151Y-87909552D01*
X141248500Y-87909496D01*
X141251859Y-87842321D01*
X141281262Y-87795472D01*
X141706916Y-87369819D01*
X141768239Y-87336334D01*
X141794597Y-87333500D01*
X154090415Y-87333500D01*
X154157454Y-87353185D01*
G37*
%TD.AperFunction*%
%TA.AperFunction,Conductor*%
G36*
X154155274Y-76155185D02*
G01*
X154188552Y-76186613D01*
X154294519Y-76332464D01*
X154435036Y-76472981D01*
X154595806Y-76589787D01*
X154752832Y-76669796D01*
X154803627Y-76717769D01*
X154820422Y-76785590D01*
X154797885Y-76851725D01*
X154752832Y-76890764D01*
X154596066Y-76970641D01*
X154558783Y-76997729D01*
X154558782Y-76997730D01*
X155173406Y-77612352D01*
X155085929Y-77635792D01*
X154984570Y-77694311D01*
X154901811Y-77777070D01*
X154843292Y-77878429D01*
X154819852Y-77965905D01*
X154205230Y-77351282D01*
X154205229Y-77351283D01*
X154178143Y-77388564D01*
X154087957Y-77565562D01*
X154026575Y-77754476D01*
X154026575Y-77754479D01*
X153995500Y-77950678D01*
X153995500Y-78149321D01*
X154026575Y-78345520D01*
X154026575Y-78345523D01*
X154087957Y-78534437D01*
X154178141Y-78711432D01*
X154205230Y-78748715D01*
X154205231Y-78748716D01*
X154819852Y-78134094D01*
X154843292Y-78221571D01*
X154901811Y-78322930D01*
X154984570Y-78405689D01*
X155085929Y-78464208D01*
X155173405Y-78487647D01*
X154558783Y-79102268D01*
X154558783Y-79102269D01*
X154596067Y-79129358D01*
X154752831Y-79209234D01*
X154803627Y-79257209D01*
X154820422Y-79325030D01*
X154797884Y-79391165D01*
X154752831Y-79430204D01*
X154595805Y-79510213D01*
X154435033Y-79627021D01*
X154294521Y-79767533D01*
X154177713Y-79928305D01*
X154087494Y-80105367D01*
X154087493Y-80105370D01*
X154026087Y-80294362D01*
X153995000Y-80490639D01*
X153995000Y-80689360D01*
X154026087Y-80885637D01*
X154087493Y-81074629D01*
X154087494Y-81074632D01*
X154166792Y-81230261D01*
X154177713Y-81251694D01*
X154294519Y-81412464D01*
X154435036Y-81552981D01*
X154595806Y-81669787D01*
X154714332Y-81730179D01*
X154752280Y-81749515D01*
X154803076Y-81797490D01*
X154819871Y-81865311D01*
X154797333Y-81931446D01*
X154752280Y-81970485D01*
X154595805Y-82050213D01*
X154435033Y-82167021D01*
X154294521Y-82307533D01*
X154177713Y-82468305D01*
X154087494Y-82645367D01*
X154087493Y-82645370D01*
X154026087Y-82834362D01*
X153995000Y-83030639D01*
X153995000Y-83229360D01*
X154026087Y-83425637D01*
X154087493Y-83614629D01*
X154087494Y-83614632D01*
X154177713Y-83791694D01*
X154294519Y-83952464D01*
X154435036Y-84092981D01*
X154595806Y-84209787D01*
X154714332Y-84270179D01*
X154752280Y-84289515D01*
X154803076Y-84337490D01*
X154819871Y-84405311D01*
X154797333Y-84471446D01*
X154752280Y-84510485D01*
X154595805Y-84590213D01*
X154435033Y-84707021D01*
X154294521Y-84847533D01*
X154177713Y-85008305D01*
X154087494Y-85185367D01*
X154087493Y-85185370D01*
X154026087Y-85374362D01*
X153995000Y-85570639D01*
X153995000Y-85769360D01*
X154026086Y-85965636D01*
X154027563Y-85970179D01*
X154029560Y-86040020D01*
X153993481Y-86099854D01*
X153930781Y-86130683D01*
X153909633Y-86132500D01*
X142641617Y-86132500D01*
X142574578Y-86112815D01*
X142528823Y-86060011D01*
X142518879Y-85990853D01*
X142547904Y-85927297D01*
X142553936Y-85920819D01*
X152302936Y-76171819D01*
X152364259Y-76138334D01*
X152390617Y-76135500D01*
X154088235Y-76135500D01*
X154155274Y-76155185D01*
G37*
%TD.AperFunction*%
%TD*%
M02*
