M48
; DRILL file {KiCad 9.0.7} date 2026-01-29T22:11:54-0600
; FORMAT={-:-/ absolute / metric / decimal}
; #@! TF.CreationDate,2026-01-29T22:11:54-06:00
; #@! TF.GenerationSoftware,Kicad,Pcbnew,9.0.7
; #@! TF.FileFunction,Plated,1,2,PTH
FMAT,2
METRIC
; #@! TA.AperFunction,Plated,PTH,ViaDrill
T1C0.300
; #@! TA.AperFunction,Plated,PTH,ComponentDrill
T2C0.889
; #@! TA.AperFunction,Plated,PTH,ComponentDrill
T3C1.000
; #@! TA.AperFunction,Plated,PTH,ComponentDrill
T4C1.500
%
G90
G05
T1
X130.337Y-86.25
X131.588Y-87.0
X132.088Y-132.75
X133.838Y-82.0
X142.875Y-145.256
X146.838Y-153.25
X147.588Y-94.25
X147.637Y-132.75
X150.019Y-128.588
X150.019Y-133.95
X150.019Y-150.019
X150.838Y-113.0
X155.088Y-113.25
X159.088Y-132.0
X159.338Y-86.0
T2
X140.017Y-75.51
X140.017Y-78.05
X140.017Y-80.59
X140.017Y-83.13
X140.017Y-85.67
X140.017Y-88.21
X140.017Y-90.75
X155.257Y-75.51
X155.257Y-78.05
X155.257Y-80.59
X155.257Y-83.13
X155.257Y-85.67
X155.257Y-88.21
X155.257Y-90.75
T3
X150.019Y-102.156
X150.019Y-104.656
X150.019Y-107.156
X164.519Y-102.156
X164.519Y-107.156
X165.338Y-78.63
X165.338Y-81.17
X165.338Y-83.71
X165.338Y-86.25
T4
X134.302Y-102.235
X134.302Y-121.285
X134.302Y-140.335
X140.653Y-99.695
X140.653Y-118.745
X140.653Y-137.795
X153.352Y-121.285
X153.352Y-140.335
X159.702Y-118.745
X159.702Y-137.795
T4
G00X156.869Y-99.056
M15
G01X158.169Y-99.056
M16
G05
G00X156.869Y-110.256
M15
G01X158.169Y-110.256
M16
G05
M30
