%TF.GenerationSoftware,KiCad,Pcbnew,9.0.7*%
%TF.CreationDate,2026-01-29T22:12:25-06:00*%
%TF.ProjectId,macropad,6d616372-6f70-4616-942e-6b696361645f,rev?*%
%TF.SameCoordinates,Original*%
%TF.FileFunction,Copper,L1,Top*%
%TF.FilePolarity,Positive*%
%FSLAX46Y46*%
G04 Gerber Fmt 4.6, Leading zero omitted, Abs format (unit mm)*
G04 Created by KiCad (PCBNEW 9.0.7) date 2026-01-29 22:12:25*
%MOMM*%
%LPD*%
G01*
G04 APERTURE LIST*
G04 Aperture macros list*
%AMRoundRect*
0 Rectangle with rounded corners*
0 $1 Rounding radius*
0 $2 $3 $4 $5 $6 $7 $8 $9 X,Y pos of 4 corners*
0 Add a 4 corners polygon primitive as box body*
4,1,4,$2,$3,$4,$5,$6,$7,$8,$9,$2,$3,0*
0 Add four circle primitives for the rounded corners*
1,1,$1+$1,$2,$3*
1,1,$1+$1,$4,$5*
1,1,$1+$1,$6,$7*
1,1,$1+$1,$8,$9*
0 Add four rect primitives between the rounded corners*
20,1,$1+$1,$2,$3,$4,$5,0*
20,1,$1+$1,$4,$5,$6,$7,0*
20,1,$1+$1,$6,$7,$8,$9,0*
20,1,$1+$1,$8,$9,$2,$3,0*%
G04 Aperture macros list end*
%ADD10C,0.300000*%
%TA.AperFunction,NonConductor*%
%ADD11C,0.300000*%
%TD*%
%TA.AperFunction,ComponentPad*%
%ADD12C,2.200000*%
%TD*%
%TA.AperFunction,ComponentPad*%
%ADD13R,1.700000X1.700000*%
%TD*%
%TA.AperFunction,ComponentPad*%
%ADD14C,1.700000*%
%TD*%
%TA.AperFunction,SMDPad,CuDef*%
%ADD15RoundRect,0.152400X1.063600X0.609600X-1.063600X0.609600X-1.063600X-0.609600X1.063600X-0.609600X0*%
%TD*%
%TA.AperFunction,ComponentPad*%
%ADD16C,1.524000*%
%TD*%
%TA.AperFunction,SMDPad,CuDef*%
%ADD17RoundRect,0.152400X-1.063600X-0.609600X1.063600X-0.609600X1.063600X0.609600X-1.063600X0.609600X0*%
%TD*%
%TA.AperFunction,ComponentPad*%
%ADD18R,2.000000X2.000000*%
%TD*%
%TA.AperFunction,ComponentPad*%
%ADD19C,2.000000*%
%TD*%
%TA.AperFunction,ComponentPad*%
%ADD20R,3.200000X2.000000*%
%TD*%
%TA.AperFunction,ViaPad*%
%ADD21C,0.600000*%
%TD*%
%TA.AperFunction,Conductor*%
%ADD22C,0.250000*%
%TD*%
%TA.AperFunction,Conductor*%
%ADD23C,0.200000*%
%TD*%
G04 APERTURE END LIST*
D10*
D11*
X127388328Y-146587689D02*
X125888328Y-146587689D01*
X125888328Y-146587689D02*
X126959757Y-146087689D01*
X126959757Y-146087689D02*
X125888328Y-145587689D01*
X125888328Y-145587689D02*
X127388328Y-145587689D01*
X126388328Y-144230546D02*
X127388328Y-144230546D01*
X126388328Y-144873403D02*
X127174042Y-144873403D01*
X127174042Y-144873403D02*
X127316900Y-144801974D01*
X127316900Y-144801974D02*
X127388328Y-144659117D01*
X127388328Y-144659117D02*
X127388328Y-144444831D01*
X127388328Y-144444831D02*
X127316900Y-144301974D01*
X127316900Y-144301974D02*
X127245471Y-144230546D01*
X127388328Y-143301974D02*
X127316900Y-143444831D01*
X127316900Y-143444831D02*
X127174042Y-143516260D01*
X127174042Y-143516260D02*
X125888328Y-143516260D01*
X127388328Y-142516260D02*
X127316900Y-142659117D01*
X127316900Y-142659117D02*
X127174042Y-142730546D01*
X127174042Y-142730546D02*
X125888328Y-142730546D01*
X127388328Y-141944832D02*
X126388328Y-141944832D01*
X125888328Y-141944832D02*
X125959757Y-142016260D01*
X125959757Y-142016260D02*
X126031185Y-141944832D01*
X126031185Y-141944832D02*
X125959757Y-141873403D01*
X125959757Y-141873403D02*
X125888328Y-141944832D01*
X125888328Y-141944832D02*
X126031185Y-141944832D01*
X126816900Y-141230546D02*
X126816900Y-140087689D01*
X126388328Y-139373403D02*
X127888328Y-139373403D01*
X126459757Y-139373403D02*
X126388328Y-139230546D01*
X126388328Y-139230546D02*
X126388328Y-138944831D01*
X126388328Y-138944831D02*
X126459757Y-138801974D01*
X126459757Y-138801974D02*
X126531185Y-138730546D01*
X126531185Y-138730546D02*
X126674042Y-138659117D01*
X126674042Y-138659117D02*
X127102614Y-138659117D01*
X127102614Y-138659117D02*
X127245471Y-138730546D01*
X127245471Y-138730546D02*
X127316900Y-138801974D01*
X127316900Y-138801974D02*
X127388328Y-138944831D01*
X127388328Y-138944831D02*
X127388328Y-139230546D01*
X127388328Y-139230546D02*
X127316900Y-139373403D01*
X127388328Y-137373403D02*
X126602614Y-137373403D01*
X126602614Y-137373403D02*
X126459757Y-137444831D01*
X126459757Y-137444831D02*
X126388328Y-137587688D01*
X126388328Y-137587688D02*
X126388328Y-137873403D01*
X126388328Y-137873403D02*
X126459757Y-138016260D01*
X127316900Y-137373403D02*
X127388328Y-137516260D01*
X127388328Y-137516260D02*
X127388328Y-137873403D01*
X127388328Y-137873403D02*
X127316900Y-138016260D01*
X127316900Y-138016260D02*
X127174042Y-138087688D01*
X127174042Y-138087688D02*
X127031185Y-138087688D01*
X127031185Y-138087688D02*
X126888328Y-138016260D01*
X126888328Y-138016260D02*
X126816900Y-137873403D01*
X126816900Y-137873403D02*
X126816900Y-137516260D01*
X126816900Y-137516260D02*
X126745471Y-137373403D01*
X127388328Y-136016260D02*
X125888328Y-136016260D01*
X127316900Y-136016260D02*
X127388328Y-136159117D01*
X127388328Y-136159117D02*
X127388328Y-136444831D01*
X127388328Y-136444831D02*
X127316900Y-136587688D01*
X127316900Y-136587688D02*
X127245471Y-136659117D01*
X127245471Y-136659117D02*
X127102614Y-136730545D01*
X127102614Y-136730545D02*
X126674042Y-136730545D01*
X126674042Y-136730545D02*
X126531185Y-136659117D01*
X126531185Y-136659117D02*
X126459757Y-136587688D01*
X126459757Y-136587688D02*
X126388328Y-136444831D01*
X126388328Y-136444831D02*
X126388328Y-136159117D01*
X126388328Y-136159117D02*
X126459757Y-136016260D01*
X126602614Y-133659117D02*
X126674042Y-133444831D01*
X126674042Y-133444831D02*
X126745471Y-133373402D01*
X126745471Y-133373402D02*
X126888328Y-133301974D01*
X126888328Y-133301974D02*
X127102614Y-133301974D01*
X127102614Y-133301974D02*
X127245471Y-133373402D01*
X127245471Y-133373402D02*
X127316900Y-133444831D01*
X127316900Y-133444831D02*
X127388328Y-133587688D01*
X127388328Y-133587688D02*
X127388328Y-134159117D01*
X127388328Y-134159117D02*
X125888328Y-134159117D01*
X125888328Y-134159117D02*
X125888328Y-133659117D01*
X125888328Y-133659117D02*
X125959757Y-133516260D01*
X125959757Y-133516260D02*
X126031185Y-133444831D01*
X126031185Y-133444831D02*
X126174042Y-133373402D01*
X126174042Y-133373402D02*
X126316900Y-133373402D01*
X126316900Y-133373402D02*
X126459757Y-133444831D01*
X126459757Y-133444831D02*
X126531185Y-133516260D01*
X126531185Y-133516260D02*
X126602614Y-133659117D01*
X126602614Y-133659117D02*
X126602614Y-134159117D01*
X126388328Y-132801974D02*
X127388328Y-132444831D01*
X126388328Y-132087688D02*
X127388328Y-132444831D01*
X127388328Y-132444831D02*
X127745471Y-132587688D01*
X127745471Y-132587688D02*
X127816900Y-132659117D01*
X127816900Y-132659117D02*
X127888328Y-132801974D01*
X126959757Y-130444831D02*
X126959757Y-129730546D01*
X127388328Y-130587688D02*
X125888328Y-130087688D01*
X125888328Y-130087688D02*
X127388328Y-129587688D01*
X127388328Y-128873403D02*
X127316900Y-129016260D01*
X127316900Y-129016260D02*
X127174042Y-129087689D01*
X127174042Y-129087689D02*
X125888328Y-129087689D01*
X126388328Y-128444832D02*
X127388328Y-128087689D01*
X127388328Y-128087689D02*
X126388328Y-127730546D01*
X127388328Y-127159118D02*
X126388328Y-127159118D01*
X125888328Y-127159118D02*
X125959757Y-127230546D01*
X125959757Y-127230546D02*
X126031185Y-127159118D01*
X126031185Y-127159118D02*
X125959757Y-127087689D01*
X125959757Y-127087689D02*
X125888328Y-127159118D01*
X125888328Y-127159118D02*
X126031185Y-127159118D01*
X126388328Y-126444832D02*
X127388328Y-126444832D01*
X126531185Y-126444832D02*
X126459757Y-126373403D01*
X126459757Y-126373403D02*
X126388328Y-126230546D01*
X126388328Y-126230546D02*
X126388328Y-126016260D01*
X126388328Y-126016260D02*
X126459757Y-125873403D01*
X126459757Y-125873403D02*
X126602614Y-125801975D01*
X126602614Y-125801975D02*
X127388328Y-125801975D01*
X127388328Y-123944832D02*
X125888328Y-123944832D01*
X125888328Y-123944832D02*
X127388328Y-123087689D01*
X127388328Y-123087689D02*
X125888328Y-123087689D01*
X126388328Y-121730546D02*
X127602614Y-121730546D01*
X127602614Y-121730546D02*
X127745471Y-121801974D01*
X127745471Y-121801974D02*
X127816900Y-121873403D01*
X127816900Y-121873403D02*
X127888328Y-122016260D01*
X127888328Y-122016260D02*
X127888328Y-122230546D01*
X127888328Y-122230546D02*
X127816900Y-122373403D01*
X127316900Y-121730546D02*
X127388328Y-121873403D01*
X127388328Y-121873403D02*
X127388328Y-122159117D01*
X127388328Y-122159117D02*
X127316900Y-122301974D01*
X127316900Y-122301974D02*
X127245471Y-122373403D01*
X127245471Y-122373403D02*
X127102614Y-122444831D01*
X127102614Y-122444831D02*
X126674042Y-122444831D01*
X126674042Y-122444831D02*
X126531185Y-122373403D01*
X126531185Y-122373403D02*
X126459757Y-122301974D01*
X126459757Y-122301974D02*
X126388328Y-122159117D01*
X126388328Y-122159117D02*
X126388328Y-121873403D01*
X126388328Y-121873403D02*
X126459757Y-121730546D01*
X126388328Y-120373403D02*
X127388328Y-120373403D01*
X126388328Y-121016260D02*
X127174042Y-121016260D01*
X127174042Y-121016260D02*
X127316900Y-120944831D01*
X127316900Y-120944831D02*
X127388328Y-120801974D01*
X127388328Y-120801974D02*
X127388328Y-120587688D01*
X127388328Y-120587688D02*
X127316900Y-120444831D01*
X127316900Y-120444831D02*
X127245471Y-120373403D01*
X126388328Y-119801974D02*
X127388328Y-119444831D01*
X126388328Y-119087688D02*
X127388328Y-119444831D01*
X127388328Y-119444831D02*
X127745471Y-119587688D01*
X127745471Y-119587688D02*
X127816900Y-119659117D01*
X127816900Y-119659117D02*
X127888328Y-119801974D01*
X127316900Y-117944831D02*
X127388328Y-118087688D01*
X127388328Y-118087688D02*
X127388328Y-118373403D01*
X127388328Y-118373403D02*
X127316900Y-118516260D01*
X127316900Y-118516260D02*
X127174042Y-118587688D01*
X127174042Y-118587688D02*
X126602614Y-118587688D01*
X126602614Y-118587688D02*
X126459757Y-118516260D01*
X126459757Y-118516260D02*
X126388328Y-118373403D01*
X126388328Y-118373403D02*
X126388328Y-118087688D01*
X126388328Y-118087688D02*
X126459757Y-117944831D01*
X126459757Y-117944831D02*
X126602614Y-117873403D01*
X126602614Y-117873403D02*
X126745471Y-117873403D01*
X126745471Y-117873403D02*
X126888328Y-118587688D01*
X126388328Y-117230546D02*
X127388328Y-117230546D01*
X126531185Y-117230546D02*
X126459757Y-117159117D01*
X126459757Y-117159117D02*
X126388328Y-117016260D01*
X126388328Y-117016260D02*
X126388328Y-116801974D01*
X126388328Y-116801974D02*
X126459757Y-116659117D01*
X126459757Y-116659117D02*
X126602614Y-116587689D01*
X126602614Y-116587689D02*
X127388328Y-116587689D01*
D12*
%TO.P,SW5,1,1*%
%TO.N,GND*%
X159702500Y-137795000D03*
%TO.P,SW5,2,2*%
%TO.N,Net-(U1-GPIO27{slash}ADC1{slash}A1)*%
X153352500Y-140335000D03*
%TD*%
D13*
%TO.P,J1,1,Pin_1*%
%TO.N,GND*%
X165337500Y-78630000D03*
D14*
%TO.P,J1,2,Pin_2*%
%TO.N,+3V3*%
X165337500Y-81170000D03*
%TO.P,J1,3,Pin_3*%
%TO.N,SCL*%
X165337500Y-83710000D03*
%TO.P,J1,4,Pin_4*%
%TO.N,SDA*%
X165337500Y-86250000D03*
%TD*%
D12*
%TO.P,SW3,1,1*%
%TO.N,GND*%
X159702500Y-118745000D03*
%TO.P,SW3,2,2*%
%TO.N,Net-(U1-GPIO28{slash}ADC2{slash}A2)*%
X153352500Y-121285000D03*
%TD*%
D15*
%TO.P,U1,1,GPIO26/ADC0/A0*%
%TO.N,Net-(U1-GPIO26{slash}ADC0{slash}A0)*%
X139182500Y-75510000D03*
D16*
X140017500Y-75510000D03*
D15*
%TO.P,U1,2,GPIO27/ADC1/A1*%
%TO.N,Net-(U1-GPIO27{slash}ADC1{slash}A1)*%
X139182500Y-78050000D03*
D16*
X140017500Y-78050000D03*
D15*
%TO.P,U1,3,GPIO28/ADC2/A2*%
%TO.N,Net-(U1-GPIO28{slash}ADC2{slash}A2)*%
X139182500Y-80590000D03*
D16*
X140017500Y-80590000D03*
D15*
%TO.P,U1,4,GPIO29/ADC3/A3*%
%TO.N,Net-(U1-GPIO29{slash}ADC3{slash}A3)*%
X139182500Y-83130000D03*
D16*
X140017500Y-83130000D03*
D15*
%TO.P,U1,5,GPIO6/SDA*%
%TO.N,Net-(U1-GPIO6{slash}SDA)*%
X139182500Y-85670000D03*
D16*
X140017500Y-85670000D03*
D15*
%TO.P,U1,6,GPIO7/SCL*%
%TO.N,SCL*%
X139182500Y-88210000D03*
D16*
X140017500Y-88210000D03*
D15*
%TO.P,U1,7,GPIO0/TX*%
%TO.N,SDA*%
X139182500Y-90750000D03*
D16*
X140017500Y-90750000D03*
%TO.P,U1,8,GPIO1/RX*%
%TO.N,Net-(D1-DIN)*%
X155257500Y-90750000D03*
D17*
X156092500Y-90750000D03*
D16*
%TO.P,U1,9,GPIO2/SCK*%
%TO.N,Net-(U1-GPIO2{slash}SCK)*%
X155257500Y-88210000D03*
D17*
X156092500Y-88210000D03*
D16*
%TO.P,U1,10,GPIO4/MISO*%
%TO.N,Net-(U1-GPIO4{slash}MISO)*%
X155257500Y-85670000D03*
D17*
X156092500Y-85670000D03*
D16*
%TO.P,U1,11,GPIO3/MOSI*%
%TO.N,Net-(U1-GPIO3{slash}MOSI)*%
X155257500Y-83130000D03*
D17*
X156092500Y-83130000D03*
D16*
%TO.P,U1,12,3V3*%
%TO.N,+3V3*%
X155257500Y-80590000D03*
D17*
X156092500Y-80590000D03*
D16*
%TO.P,U1,13,GND*%
%TO.N,GND*%
X155257500Y-78050000D03*
D17*
X156092500Y-78050000D03*
D16*
%TO.P,U1,14,VBUS*%
%TO.N,+5V*%
X155257500Y-75510000D03*
D17*
X156092500Y-75510000D03*
%TD*%
D12*
%TO.P,SW2,1,1*%
%TO.N,GND*%
X140652500Y-118745000D03*
%TO.P,SW2,2,2*%
%TO.N,Net-(U1-GPIO29{slash}ADC3{slash}A3)*%
X134302500Y-121285000D03*
%TD*%
%TO.P,SW4,1,1*%
%TO.N,GND*%
X140652500Y-137795000D03*
%TO.P,SW4,2,2*%
%TO.N,Net-(U1-GPIO26{slash}ADC0{slash}A0)*%
X134302500Y-140335000D03*
%TD*%
D18*
%TO.P,SW6,A,A*%
%TO.N,Net-(U1-GPIO2{slash}SCK)*%
X150018750Y-102156250D03*
D19*
%TO.P,SW6,B,B*%
%TO.N,Net-(U1-GPIO3{slash}MOSI)*%
X150018750Y-107156250D03*
%TO.P,SW6,C,C*%
%TO.N,GND*%
X150018750Y-104656250D03*
D20*
%TO.P,SW6,MP*%
%TO.N,N/C*%
X157518750Y-99056250D03*
X157518750Y-110256250D03*
D19*
%TO.P,SW6,S1,S1*%
%TO.N,Net-(U1-GPIO4{slash}MISO)*%
X164518750Y-107156250D03*
%TO.P,SW6,S2,S2*%
%TO.N,GND*%
X164518750Y-102156250D03*
%TD*%
D12*
%TO.P,SW1,1,1*%
%TO.N,GND*%
X140652500Y-99695000D03*
%TO.P,SW1,2,2*%
%TO.N,Net-(U1-GPIO6{slash}SDA)*%
X134302500Y-102235000D03*
%TD*%
D21*
%TO.N,GND*%
X159087500Y-132000000D03*
%TO.N,+5V*%
X146837500Y-153250000D03*
X150018750Y-150018750D03*
X150018750Y-133950000D03*
X150018750Y-128587500D03*
%TO.N,Net-(D3-DOUT)*%
X147637500Y-132750000D03*
X142875000Y-145256250D03*
%TO.N,Net-(U1-GPIO27{slash}ADC1{slash}A1)*%
X133837500Y-82000000D03*
X130336500Y-86250000D03*
%TO.N,Net-(U1-GPIO28{slash}ADC2{slash}A2)*%
X132087500Y-132750000D03*
X131587500Y-87000000D03*
%TO.N,Net-(U1-GPIO3{slash}MOSI)*%
X155087500Y-113250000D03*
X150837500Y-113000000D03*
X159337500Y-86000000D03*
%TO.N,SDA*%
X147587500Y-94250000D03*
%TD*%
D22*
%TO.N,GND*%
X159702500Y-137795000D02*
X159702500Y-132615000D01*
D23*
X154957500Y-114000000D02*
X159702500Y-118745000D01*
X152837500Y-112750000D02*
X154087500Y-114000000D01*
X154087500Y-114000000D02*
X154957500Y-114000000D01*
X152837500Y-107475000D02*
X152837500Y-112750000D01*
X150018750Y-104656250D02*
X152837500Y-107475000D01*
D22*
X159702500Y-132615000D02*
X159087500Y-132000000D01*
%TO.N,+5V*%
X150018750Y-151600000D02*
X150018750Y-150018750D01*
X146837500Y-153250000D02*
X148368750Y-153250000D01*
X148368750Y-153250000D02*
X150018750Y-151600000D01*
X150018750Y-133950000D02*
X150018750Y-128587500D01*
D23*
%TO.N,Net-(D3-DOUT)*%
X147637500Y-140493750D02*
X142875000Y-145256250D01*
X147637500Y-132750000D02*
X147637500Y-140493750D01*
%TO.N,Net-(U1-GPIO26{slash}ADC0{slash}A0)*%
X134302500Y-140335000D02*
X130936500Y-136969000D01*
X130936500Y-83513370D02*
X138939870Y-75510000D01*
X138939870Y-75510000D02*
X140017500Y-75510000D01*
X130936500Y-136969000D02*
X130936500Y-83513370D01*
%TO.N,Net-(U1-GPIO27{slash}ADC1{slash}A1)*%
X132087500Y-150250000D02*
X130535500Y-148698000D01*
X153352500Y-140335000D02*
X151796866Y-140335000D01*
X130336500Y-136051000D02*
X130336500Y-86250000D01*
X141881866Y-150250000D02*
X132087500Y-150250000D01*
X137787500Y-78050000D02*
X140017500Y-78050000D01*
X130535500Y-148698000D02*
X130535500Y-136250000D01*
X133837500Y-82000000D02*
X137787500Y-78050000D01*
X130535500Y-136250000D02*
X130336500Y-136051000D01*
X151796866Y-140335000D02*
X141881866Y-150250000D01*
%TO.N,Net-(U1-GPIO28{slash}ADC2{slash}A2)*%
X137997500Y-80590000D02*
X131587500Y-87000000D01*
X140017500Y-80590000D02*
X137997500Y-80590000D01*
X151796866Y-121285000D02*
X153352500Y-121285000D01*
X132087500Y-132750000D02*
X140331866Y-132750000D01*
X140331866Y-132750000D02*
X151796866Y-121285000D01*
%TO.N,Net-(U1-GPIO6{slash}SDA)*%
X134302500Y-90307370D02*
X138939870Y-85670000D01*
X138939870Y-85670000D02*
X140017500Y-85670000D01*
X134302500Y-102235000D02*
X134302500Y-90307370D01*
%TO.N,Net-(U1-GPIO29{slash}ADC3{slash}A3)*%
X131337500Y-118320000D02*
X131337500Y-91196374D01*
X139403874Y-83130000D02*
X140017500Y-83130000D01*
X134302500Y-121285000D02*
X131337500Y-118320000D01*
X131337500Y-91196374D02*
X139403874Y-83130000D01*
%TO.N,Net-(U1-GPIO4{slash}MISO)*%
X162337500Y-104975000D02*
X164518750Y-107156250D01*
X162337500Y-91672370D02*
X162337500Y-104975000D01*
X155257500Y-85670000D02*
X156335130Y-85670000D01*
X156335130Y-85670000D02*
X162337500Y-91672370D01*
%TO.N,Net-(U1-GPIO2{slash}SCK)*%
X155871126Y-88210000D02*
X157609500Y-89948374D01*
X155257500Y-88210000D02*
X155871126Y-88210000D01*
X157609500Y-94565500D02*
X150018750Y-102156250D01*
X157609500Y-89948374D02*
X157609500Y-94565500D01*
%TO.N,Net-(U1-GPIO3{slash}MOSI)*%
X167587500Y-94250000D02*
X167587500Y-109500000D01*
X150018750Y-112181250D02*
X150018750Y-107156250D01*
X163837500Y-113250000D02*
X155087500Y-113250000D01*
X150837500Y-113000000D02*
X150018750Y-112181250D01*
X167587500Y-109500000D02*
X163837500Y-113250000D01*
X159337500Y-86000000D02*
X167587500Y-94250000D01*
%TO.N,SDA*%
X137587500Y-90750000D02*
X140017500Y-90750000D01*
X147587500Y-94250000D02*
X138587500Y-94250000D01*
X137087500Y-91250000D02*
X137587500Y-90750000D01*
X138587500Y-94250000D02*
X137087500Y-92750000D01*
X137087500Y-92750000D02*
X137087500Y-91250000D01*
%TD*%
%TA.AperFunction,Conductor*%
%TO.N,GND*%
G36*
X170892539Y-73109185D02*
G01*
X170938294Y-73161989D01*
X170949500Y-73213500D01*
X170949500Y-154156750D01*
X170929815Y-154223789D01*
X170877011Y-154269544D01*
X170825500Y-154280750D01*
X147017791Y-154280750D01*
X146950752Y-154261065D01*
X146904997Y-154208261D01*
X146895053Y-154139103D01*
X146924078Y-154075547D01*
X146982856Y-154037773D01*
X146993599Y-154035133D01*
X147048643Y-154024183D01*
X147070997Y-154019737D01*
X147216679Y-153959394D01*
X147310959Y-153896398D01*
X147377636Y-153875520D01*
X147379850Y-153875500D01*
X148430357Y-153875500D01*
X148490779Y-153863481D01*
X148551202Y-153851463D01*
X148584542Y-153837652D01*
X148665036Y-153804312D01*
X148730919Y-153760289D01*
X148767483Y-153735858D01*
X148854608Y-153648733D01*
X148854608Y-153648731D01*
X148864816Y-153638524D01*
X148864817Y-153638521D01*
X150504607Y-151998734D01*
X150573061Y-151896286D01*
X150620213Y-151782451D01*
X150620804Y-151779483D01*
X150644250Y-151661606D01*
X150644250Y-150561100D01*
X150663935Y-150494061D01*
X150665148Y-150492209D01*
X150697728Y-150443449D01*
X150728144Y-150397929D01*
X150788487Y-150252247D01*
X150819250Y-150097592D01*
X150819250Y-149939908D01*
X150819250Y-149939905D01*
X150819249Y-149939903D01*
X150788488Y-149785260D01*
X150788487Y-149785253D01*
X150731083Y-149646666D01*
X150728147Y-149639577D01*
X150728140Y-149639564D01*
X150640539Y-149508461D01*
X150640536Y-149508457D01*
X150529042Y-149396963D01*
X150529038Y-149396960D01*
X150397935Y-149309359D01*
X150397922Y-149309352D01*
X150252251Y-149249014D01*
X150252239Y-149249011D01*
X150097595Y-149218250D01*
X150097592Y-149218250D01*
X149939908Y-149218250D01*
X149939905Y-149218250D01*
X149785260Y-149249011D01*
X149785248Y-149249014D01*
X149639577Y-149309352D01*
X149639564Y-149309359D01*
X149508461Y-149396960D01*
X149508457Y-149396963D01*
X149396963Y-149508457D01*
X149396960Y-149508461D01*
X149309359Y-149639564D01*
X149309352Y-149639577D01*
X149249014Y-149785248D01*
X149249011Y-149785260D01*
X149218250Y-149939903D01*
X149218250Y-150097596D01*
X149249011Y-150252239D01*
X149249014Y-150252251D01*
X149309352Y-150397922D01*
X149309359Y-150397934D01*
X149372352Y-150492209D01*
X149393230Y-150558886D01*
X149393250Y-150561100D01*
X149393250Y-151289547D01*
X149373565Y-151356586D01*
X149356931Y-151377228D01*
X148145979Y-152588181D01*
X148084656Y-152621666D01*
X148058298Y-152624500D01*
X147379850Y-152624500D01*
X147312811Y-152604815D01*
X147310959Y-152603602D01*
X147216684Y-152540609D01*
X147216672Y-152540602D01*
X147071001Y-152480264D01*
X147070989Y-152480261D01*
X146916345Y-152449500D01*
X146916342Y-152449500D01*
X146758658Y-152449500D01*
X146758655Y-152449500D01*
X146604010Y-152480261D01*
X146603998Y-152480264D01*
X146458327Y-152540602D01*
X146458314Y-152540609D01*
X146327211Y-152628210D01*
X146327207Y-152628213D01*
X146215713Y-152739707D01*
X146215710Y-152739711D01*
X146128109Y-152870814D01*
X146128102Y-152870827D01*
X146067764Y-153016498D01*
X146067761Y-153016510D01*
X146037000Y-153171153D01*
X146037000Y-153328846D01*
X146067761Y-153483489D01*
X146067764Y-153483501D01*
X146128102Y-153629172D01*
X146128109Y-153629185D01*
X146215710Y-153760288D01*
X146215713Y-153760292D01*
X146327207Y-153871786D01*
X146327211Y-153871789D01*
X146458314Y-153959390D01*
X146458327Y-153959397D01*
X146603998Y-154019735D01*
X146604003Y-154019737D01*
X146604007Y-154019737D01*
X146604008Y-154019738D01*
X146681401Y-154035133D01*
X146743312Y-154067518D01*
X146777886Y-154128234D01*
X146774146Y-154198003D01*
X146733279Y-154254675D01*
X146668261Y-154280257D01*
X146657209Y-154280750D01*
X130971066Y-154280750D01*
X130966429Y-154280663D01*
X130476941Y-154262344D01*
X130467693Y-154261651D01*
X129983245Y-154207063D01*
X129974076Y-154205681D01*
X129495062Y-154115044D01*
X129486022Y-154112981D01*
X129015105Y-153986796D01*
X129006244Y-153984062D01*
X128546092Y-153823045D01*
X128537460Y-153819657D01*
X128090631Y-153624705D01*
X128082276Y-153620682D01*
X127651251Y-153392876D01*
X127643221Y-153388240D01*
X127230428Y-153128863D01*
X127222766Y-153123639D01*
X126830512Y-152834138D01*
X126823262Y-152828356D01*
X126453739Y-152510354D01*
X126446942Y-152504047D01*
X126102221Y-152159324D01*
X126095913Y-152152526D01*
X125875402Y-151896286D01*
X125777901Y-151782987D01*
X125772132Y-151775752D01*
X125482636Y-151383496D01*
X125477415Y-151375840D01*
X125465317Y-151356586D01*
X125218029Y-150963027D01*
X125213397Y-150955003D01*
X124985596Y-150523980D01*
X124981585Y-150515651D01*
X124786627Y-150068799D01*
X124783239Y-150060168D01*
X124622218Y-149599997D01*
X124619485Y-149591135D01*
X124567457Y-149396961D01*
X124493304Y-149120217D01*
X124491248Y-149111209D01*
X124400610Y-148632172D01*
X124399229Y-148623009D01*
X124398771Y-148618943D01*
X124344643Y-148138542D01*
X124343953Y-148129326D01*
X124325586Y-147638488D01*
X124325500Y-147633853D01*
X124325500Y-147244350D01*
X125230303Y-147244350D01*
X128545553Y-147244350D01*
X128545553Y-115930464D01*
X125230303Y-115930464D01*
X125230303Y-147244350D01*
X124325500Y-147244350D01*
X124325500Y-86171153D01*
X129536000Y-86171153D01*
X129536000Y-86328846D01*
X129566761Y-86483489D01*
X129566764Y-86483501D01*
X129627102Y-86629172D01*
X129627109Y-86629185D01*
X129715102Y-86760874D01*
X129735980Y-86827551D01*
X129736000Y-86829765D01*
X129736000Y-135964330D01*
X129735999Y-135964348D01*
X129735999Y-136130054D01*
X129735998Y-136130054D01*
X129776923Y-136282786D01*
X129776924Y-136282787D01*
X129803638Y-136329057D01*
X129855980Y-136419716D01*
X129855982Y-136419718D01*
X129898681Y-136462417D01*
X129932166Y-136523740D01*
X129935000Y-136550098D01*
X129935000Y-148611330D01*
X129934999Y-148611348D01*
X129934999Y-148777054D01*
X129934998Y-148777054D01*
X129934999Y-148777057D01*
X129975923Y-148929785D01*
X130000914Y-148973070D01*
X130004858Y-148979900D01*
X130004859Y-148979904D01*
X130004860Y-148979904D01*
X130049250Y-149056792D01*
X130054979Y-149066714D01*
X130054981Y-149066717D01*
X130173849Y-149185585D01*
X130173855Y-149185590D01*
X131602639Y-150614374D01*
X131602649Y-150614385D01*
X131606979Y-150618715D01*
X131606980Y-150618716D01*
X131718784Y-150730520D01*
X131718786Y-150730521D01*
X131718790Y-150730524D01*
X131855709Y-150809573D01*
X131855716Y-150809577D01*
X131967519Y-150839534D01*
X132008442Y-150850500D01*
X132008443Y-150850500D01*
X141795197Y-150850500D01*
X141795213Y-150850501D01*
X141802809Y-150850501D01*
X141960920Y-150850501D01*
X141960923Y-150850501D01*
X142113651Y-150809577D01*
X142163770Y-150780639D01*
X142250582Y-150730520D01*
X142362386Y-150618716D01*
X142362386Y-150618714D01*
X142372594Y-150608507D01*
X142372596Y-150608504D01*
X144798748Y-148182352D01*
X154859000Y-148182352D01*
X154859000Y-148182357D01*
X154876746Y-148364085D01*
X154876749Y-148364100D01*
X154927098Y-148539608D01*
X154927104Y-148539623D01*
X155008396Y-148703124D01*
X155008402Y-148703132D01*
X155117953Y-148849216D01*
X155252144Y-148973060D01*
X155406538Y-149070565D01*
X155576032Y-149138508D01*
X155576039Y-149138509D01*
X155576041Y-149138510D01*
X155622209Y-149147831D01*
X155755025Y-149174646D01*
X155937603Y-149177783D01*
X156117732Y-149147816D01*
X156289461Y-149085735D01*
X156304622Y-149076899D01*
X156311157Y-149073099D01*
X156311431Y-149073025D01*
X156339253Y-149056765D01*
X156339438Y-149056658D01*
X156342486Y-149055908D01*
X156401761Y-149039858D01*
X157882798Y-149039858D01*
X157882902Y-149039864D01*
X157891105Y-149039863D01*
X157891108Y-149039864D01*
X157923247Y-149039861D01*
X157985806Y-149056792D01*
X158020225Y-149076899D01*
X158021066Y-149077318D01*
X158035537Y-149085752D01*
X158181508Y-149138521D01*
X158207268Y-149147833D01*
X158387400Y-149177799D01*
X158569981Y-149174661D01*
X158748977Y-149138523D01*
X158918473Y-149070577D01*
X159072868Y-148973071D01*
X159207061Y-148849225D01*
X159316617Y-148703132D01*
X159397915Y-148539620D01*
X159448269Y-148364093D01*
X159466016Y-148182350D01*
X159450568Y-148000397D01*
X159402437Y-147824247D01*
X159395084Y-147808929D01*
X159391581Y-147801618D01*
X159391532Y-147801354D01*
X159375173Y-147767371D01*
X159375043Y-147766574D01*
X159363000Y-147713792D01*
X159363000Y-146411044D01*
X159363001Y-146411015D01*
X159363000Y-146402396D01*
X159363002Y-146402392D01*
X159363000Y-146365052D01*
X159375204Y-146311408D01*
X159402539Y-146254439D01*
X159402540Y-146254436D01*
X159402549Y-146254405D01*
X159450646Y-146078287D01*
X159466071Y-145896339D01*
X159448307Y-145714604D01*
X159425584Y-145635422D01*
X159397941Y-145539092D01*
X159397939Y-145539090D01*
X159397939Y-145539087D01*
X159344028Y-145430677D01*
X159316635Y-145375590D01*
X159207077Y-145229511D01*
X159207076Y-145229510D01*
X159207073Y-145229506D01*
X159072881Y-145105669D01*
X159072878Y-145105667D01*
X159072877Y-145105666D01*
X158918492Y-145008170D01*
X158912300Y-145005688D01*
X158749000Y-144940226D01*
X158748999Y-144940225D01*
X158748995Y-144940224D01*
X158570010Y-144904085D01*
X158566460Y-144903700D01*
X158564908Y-144903055D01*
X158564476Y-144902968D01*
X158564493Y-144902882D01*
X158501937Y-144876894D01*
X158462149Y-144819460D01*
X158459729Y-144749632D01*
X158495445Y-144689581D01*
X158504359Y-144682049D01*
X158566374Y-144634463D01*
X158649542Y-144570646D01*
X158858146Y-144362042D01*
X159037738Y-144127994D01*
X159185243Y-143872507D01*
X159298139Y-143599952D01*
X159374493Y-143314993D01*
X159413000Y-143022506D01*
X159413000Y-142788389D01*
X161142000Y-142788389D01*
X161142000Y-142961611D01*
X161169098Y-143132701D01*
X161222627Y-143297445D01*
X161301268Y-143451788D01*
X161403086Y-143591928D01*
X161525572Y-143714414D01*
X161665712Y-143816232D01*
X161820055Y-143894873D01*
X161984799Y-143948402D01*
X162155889Y-143975500D01*
X162155890Y-143975500D01*
X162329110Y-143975500D01*
X162329111Y-143975500D01*
X162500201Y-143948402D01*
X162664945Y-143894873D01*
X162819288Y-143816232D01*
X162959428Y-143714414D01*
X163081914Y-143591928D01*
X163183732Y-143451788D01*
X163262373Y-143297445D01*
X163315902Y-143132701D01*
X163343000Y-142961611D01*
X163343000Y-142788389D01*
X163315902Y-142617299D01*
X163262373Y-142452555D01*
X163183732Y-142298212D01*
X163081914Y-142158072D01*
X162959428Y-142035586D01*
X162819288Y-141933768D01*
X162664945Y-141855127D01*
X162500201Y-141801598D01*
X162500199Y-141801597D01*
X162500198Y-141801597D01*
X162368771Y-141780781D01*
X162329111Y-141774500D01*
X162155889Y-141774500D01*
X162116228Y-141780781D01*
X161984802Y-141801597D01*
X161820052Y-141855128D01*
X161665711Y-141933768D01*
X161608789Y-141975125D01*
X161525572Y-142035586D01*
X161525570Y-142035588D01*
X161525569Y-142035588D01*
X161403088Y-142158069D01*
X161403088Y-142158070D01*
X161403086Y-142158072D01*
X161359359Y-142218256D01*
X161301268Y-142298211D01*
X161222628Y-142452552D01*
X161169097Y-142617302D01*
X161152639Y-142721215D01*
X161142000Y-142788389D01*
X159413000Y-142788389D01*
X159413000Y-142727494D01*
X159374493Y-142435007D01*
X159298139Y-142150048D01*
X159185243Y-141877493D01*
X159129809Y-141781479D01*
X159037738Y-141622006D01*
X158858147Y-141387959D01*
X158858141Y-141387952D01*
X158649547Y-141179358D01*
X158649540Y-141179352D01*
X158415493Y-140999761D01*
X158160010Y-140852258D01*
X158160000Y-140852254D01*
X157887461Y-140739364D01*
X157887454Y-140739362D01*
X157887452Y-140739361D01*
X157602493Y-140663007D01*
X157553613Y-140656571D01*
X157310013Y-140624500D01*
X157310006Y-140624500D01*
X157014994Y-140624500D01*
X157014986Y-140624500D01*
X156736585Y-140661153D01*
X156722507Y-140663007D01*
X156547928Y-140709785D01*
X156437548Y-140739361D01*
X156437538Y-140739364D01*
X156164999Y-140852254D01*
X156164989Y-140852258D01*
X155909506Y-140999761D01*
X155675459Y-141179352D01*
X155675452Y-141179358D01*
X155466858Y-141387952D01*
X155466852Y-141387959D01*
X155287261Y-141622006D01*
X155139758Y-141877489D01*
X155139754Y-141877499D01*
X155026864Y-142150038D01*
X155026861Y-142150048D01*
X154950508Y-142435004D01*
X154950506Y-142435015D01*
X154912000Y-142727486D01*
X154912000Y-143022513D01*
X154944071Y-143266113D01*
X154950507Y-143314993D01*
X155024712Y-143591930D01*
X155026861Y-143599951D01*
X155026864Y-143599961D01*
X155139754Y-143872500D01*
X155139758Y-143872510D01*
X155287261Y-144127993D01*
X155466852Y-144362040D01*
X155466858Y-144362047D01*
X155675452Y-144570641D01*
X155675459Y-144570647D01*
X155820749Y-144682132D01*
X155861952Y-144738560D01*
X155866107Y-144808306D01*
X155831895Y-144869226D01*
X155770178Y-144901979D01*
X155758654Y-144903783D01*
X155754996Y-144904180D01*
X155576033Y-144940315D01*
X155576028Y-144940316D01*
X155406553Y-145008253D01*
X155252180Y-145105741D01*
X155252171Y-145105748D01*
X155117999Y-145229565D01*
X155008445Y-145375640D01*
X154927150Y-145539120D01*
X154876787Y-145714621D01*
X154859024Y-145896342D01*
X154874447Y-146078268D01*
X154922549Y-146254405D01*
X154922552Y-146254412D01*
X154929812Y-146269545D01*
X154929849Y-146269621D01*
X154933408Y-146277054D01*
X154933465Y-146277348D01*
X154949837Y-146311358D01*
X154949977Y-146312220D01*
X154962000Y-146364917D01*
X154962000Y-146411017D01*
X154962002Y-146411046D01*
X154962002Y-147713792D01*
X154959365Y-147725404D01*
X154960400Y-147733661D01*
X154949945Y-147766892D01*
X154949844Y-147767339D01*
X154949666Y-147767710D01*
X154933470Y-147801355D01*
X154933412Y-147801658D01*
X154929823Y-147809156D01*
X154929808Y-147809172D01*
X154929771Y-147809265D01*
X154922580Y-147824246D01*
X154922577Y-147824254D01*
X154874447Y-148000396D01*
X154864560Y-148116854D01*
X154859654Y-148174654D01*
X154859000Y-148182352D01*
X144798748Y-148182352D01*
X151806750Y-141174349D01*
X151868071Y-141140866D01*
X151937763Y-141145850D01*
X151993696Y-141187722D01*
X151994747Y-141189147D01*
X152131701Y-141377649D01*
X152131705Y-141377654D01*
X152131707Y-141377656D01*
X152309844Y-141555793D01*
X152309845Y-141555794D01*
X152309844Y-141555794D01*
X152316161Y-141560383D01*
X152358827Y-141615714D01*
X152364805Y-141685327D01*
X152332199Y-141747122D01*
X152271360Y-141781479D01*
X152223878Y-141783174D01*
X152169111Y-141774500D01*
X151995889Y-141774500D01*
X151956228Y-141780781D01*
X151824802Y-141801597D01*
X151660052Y-141855128D01*
X151505711Y-141933768D01*
X151448789Y-141975125D01*
X151365572Y-142035586D01*
X151365570Y-142035588D01*
X151365569Y-142035588D01*
X151243088Y-142158069D01*
X151243088Y-142158070D01*
X151243086Y-142158072D01*
X151199359Y-142218256D01*
X151141268Y-142298211D01*
X151062628Y-142452552D01*
X151009097Y-142617302D01*
X150992639Y-142721215D01*
X150982000Y-142788389D01*
X150982000Y-142961611D01*
X151009098Y-143132701D01*
X151062627Y-143297445D01*
X151141268Y-143451788D01*
X151243086Y-143591928D01*
X151365572Y-143714414D01*
X151505712Y-143816232D01*
X151660055Y-143894873D01*
X151824799Y-143948402D01*
X151995889Y-143975500D01*
X151995890Y-143975500D01*
X152169110Y-143975500D01*
X152169111Y-143975500D01*
X152340201Y-143948402D01*
X152504945Y-143894873D01*
X152659288Y-143816232D01*
X152799428Y-143714414D01*
X152921914Y-143591928D01*
X153023732Y-143451788D01*
X153102373Y-143297445D01*
X153155902Y-143132701D01*
X153183000Y-142961611D01*
X153183000Y-142788389D01*
X153155902Y-142617299D01*
X153102373Y-142452555D01*
X153023732Y-142298212D01*
X152921914Y-142158072D01*
X152869982Y-142106140D01*
X152836497Y-142044817D01*
X152841481Y-141975125D01*
X152883353Y-141919192D01*
X152948817Y-141894775D01*
X152977061Y-141895986D01*
X152977712Y-141896089D01*
X152977715Y-141896090D01*
X153226538Y-141935500D01*
X153226539Y-141935500D01*
X153478461Y-141935500D01*
X153478462Y-141935500D01*
X153727285Y-141896090D01*
X153966879Y-141818241D01*
X154191345Y-141703870D01*
X154395156Y-141555793D01*
X154573293Y-141377656D01*
X154721370Y-141173845D01*
X154835741Y-140949379D01*
X154913590Y-140709785D01*
X154953000Y-140460962D01*
X154953000Y-140209038D01*
X154913590Y-139960215D01*
X154835741Y-139720621D01*
X154835739Y-139720618D01*
X154835739Y-139720616D01*
X154794247Y-139639184D01*
X154721370Y-139496155D01*
X154619253Y-139355602D01*
X154573298Y-139292350D01*
X154573294Y-139292345D01*
X154395154Y-139114205D01*
X154395149Y-139114201D01*
X154191348Y-138966132D01*
X154191347Y-138966131D01*
X154191345Y-138966130D01*
X154121247Y-138930413D01*
X153966883Y-138851760D01*
X153727285Y-138773910D01*
X153478462Y-138734500D01*
X153226538Y-138734500D01*
X153102126Y-138754205D01*
X152977714Y-138773910D01*
X152738116Y-138851760D01*
X152513651Y-138966132D01*
X152309850Y-139114201D01*
X152309845Y-139114205D01*
X152131705Y-139292345D01*
X152131701Y-139292350D01*
X151983632Y-139496151D01*
X151983630Y-139496155D01*
X151904185Y-139652076D01*
X151896685Y-139666795D01*
X151848711Y-139717591D01*
X151786200Y-139734500D01*
X151717806Y-139734500D01*
X151676885Y-139745464D01*
X151676885Y-139745465D01*
X151639617Y-139755451D01*
X151565080Y-139775423D01*
X151565075Y-139775426D01*
X151428156Y-139854475D01*
X151428148Y-139854481D01*
X151316344Y-139966286D01*
X141669450Y-149613181D01*
X141608127Y-149646666D01*
X141581769Y-149649500D01*
X132387597Y-149649500D01*
X132320558Y-149629815D01*
X132299916Y-149613181D01*
X131172319Y-148485584D01*
X131157615Y-148458656D01*
X131141023Y-148432838D01*
X131140131Y-148426637D01*
X131138834Y-148424261D01*
X131136000Y-148397903D01*
X131136000Y-148182352D01*
X135809000Y-148182352D01*
X135809000Y-148182357D01*
X135826746Y-148364085D01*
X135826749Y-148364100D01*
X135877098Y-148539608D01*
X135877104Y-148539623D01*
X135958396Y-148703124D01*
X135958402Y-148703132D01*
X136067953Y-148849216D01*
X136202144Y-148973060D01*
X136356538Y-149070565D01*
X136526032Y-149138508D01*
X136526039Y-149138509D01*
X136526041Y-149138510D01*
X136572209Y-149147831D01*
X136705025Y-149174646D01*
X136887603Y-149177783D01*
X137067732Y-149147816D01*
X137239461Y-149085735D01*
X137254622Y-149076899D01*
X137261157Y-149073099D01*
X137261431Y-149073025D01*
X137289253Y-149056765D01*
X137289438Y-149056658D01*
X137292486Y-149055908D01*
X137351761Y-149039858D01*
X138832798Y-149039858D01*
X138832902Y-149039864D01*
X138841105Y-149039863D01*
X138841108Y-149039864D01*
X138873247Y-149039861D01*
X138935806Y-149056792D01*
X138970225Y-149076899D01*
X138971066Y-149077318D01*
X138985537Y-149085752D01*
X139131508Y-149138521D01*
X139157268Y-149147833D01*
X139337400Y-149177799D01*
X139519981Y-149174661D01*
X139698977Y-149138523D01*
X139868473Y-149070577D01*
X140022868Y-148973071D01*
X140157061Y-148849225D01*
X140266617Y-148703132D01*
X140347915Y-148539620D01*
X140398269Y-148364093D01*
X140416016Y-148182350D01*
X140400568Y-148000397D01*
X140352437Y-147824247D01*
X140345084Y-147808929D01*
X140341581Y-147801618D01*
X140341532Y-147801354D01*
X140325173Y-147767371D01*
X140325043Y-147766574D01*
X140313000Y-147713792D01*
X140313000Y-146411044D01*
X140313001Y-146411015D01*
X140313000Y-146402396D01*
X140313002Y-146402392D01*
X140313000Y-146365052D01*
X140325204Y-146311408D01*
X140352539Y-146254439D01*
X140352540Y-146254436D01*
X140352549Y-146254405D01*
X140400646Y-146078287D01*
X140416071Y-145896339D01*
X140398307Y-145714604D01*
X140375584Y-145635422D01*
X140347941Y-145539092D01*
X140347939Y-145539090D01*
X140347939Y-145539087D01*
X140294028Y-145430677D01*
X140266635Y-145375590D01*
X140169230Y-145245715D01*
X140157077Y-145229511D01*
X140157076Y-145229510D01*
X140157073Y-145229506D01*
X140100613Y-145177403D01*
X142074500Y-145177403D01*
X142074500Y-145335096D01*
X142105261Y-145489739D01*
X142105264Y-145489751D01*
X142165602Y-145635422D01*
X142165609Y-145635435D01*
X142253210Y-145766538D01*
X142253213Y-145766542D01*
X142364707Y-145878036D01*
X142364711Y-145878039D01*
X142495814Y-145965640D01*
X142495827Y-145965647D01*
X142641498Y-146025985D01*
X142641503Y-146025987D01*
X142796153Y-146056749D01*
X142796156Y-146056750D01*
X142796158Y-146056750D01*
X142953844Y-146056750D01*
X142953845Y-146056749D01*
X143108497Y-146025987D01*
X143254179Y-145965644D01*
X143385289Y-145878039D01*
X143496789Y-145766539D01*
X143584394Y-145635429D01*
X143644737Y-145489747D01*
X143664113Y-145392335D01*
X143675638Y-145334400D01*
X143708023Y-145272489D01*
X143709519Y-145270965D01*
X147996006Y-140984477D01*
X147996011Y-140984474D01*
X148006214Y-140974270D01*
X148006216Y-140974270D01*
X148118020Y-140862466D01*
X148189094Y-140739361D01*
X148197077Y-140725535D01*
X148238000Y-140572807D01*
X148238000Y-140414693D01*
X148238000Y-137669071D01*
X158102500Y-137669071D01*
X158102500Y-137920928D01*
X158141897Y-138169669D01*
X158219719Y-138409184D01*
X158334057Y-138633583D01*
X158408248Y-138735697D01*
X158408248Y-138735698D01*
X159024921Y-138119024D01*
X159037859Y-138150258D01*
X159119937Y-138273097D01*
X159224403Y-138377563D01*
X159347242Y-138459641D01*
X159378474Y-138472577D01*
X158761800Y-139089250D01*
X158863916Y-139163442D01*
X159088315Y-139277780D01*
X159327830Y-139355602D01*
X159576572Y-139395000D01*
X159828428Y-139395000D01*
X160077169Y-139355602D01*
X160316684Y-139277780D01*
X160541075Y-139163446D01*
X160541081Y-139163442D01*
X160643197Y-139089250D01*
X160643198Y-139089250D01*
X160026525Y-138472578D01*
X160057758Y-138459641D01*
X160180597Y-138377563D01*
X160285063Y-138273097D01*
X160367141Y-138150258D01*
X160380078Y-138119025D01*
X160996750Y-138735698D01*
X160996750Y-138735697D01*
X161070942Y-138633581D01*
X161070946Y-138633575D01*
X161185280Y-138409184D01*
X161263102Y-138169669D01*
X161302500Y-137920928D01*
X161302500Y-137669071D01*
X161263102Y-137420330D01*
X161185280Y-137180815D01*
X161070942Y-136956416D01*
X160996750Y-136854301D01*
X160996750Y-136854300D01*
X160380077Y-137470973D01*
X160367141Y-137439742D01*
X160285063Y-137316903D01*
X160180597Y-137212437D01*
X160057758Y-137130359D01*
X160026524Y-137117421D01*
X160643198Y-136500748D01*
X160541083Y-136426557D01*
X160316684Y-136312219D01*
X160077169Y-136234397D01*
X159828428Y-136195000D01*
X159576572Y-136195000D01*
X159327830Y-136234397D01*
X159088315Y-136312219D01*
X158863913Y-136426559D01*
X158761801Y-136500747D01*
X158761800Y-136500748D01*
X159378474Y-137117421D01*
X159347242Y-137130359D01*
X159224403Y-137212437D01*
X159119937Y-137316903D01*
X159037859Y-137439742D01*
X159024921Y-137470974D01*
X158408248Y-136854300D01*
X158408247Y-136854301D01*
X158334059Y-136956413D01*
X158219719Y-137180815D01*
X158141897Y-137420330D01*
X158102500Y-137669071D01*
X148238000Y-137669071D01*
X148238000Y-133329765D01*
X148257685Y-133262726D01*
X148258898Y-133260874D01*
X148346890Y-133129185D01*
X148346890Y-133129184D01*
X148346894Y-133129179D01*
X148407237Y-132983497D01*
X148438000Y-132828842D01*
X148438000Y-132671158D01*
X148438000Y-132671155D01*
X148437999Y-132671153D01*
X148407238Y-132516510D01*
X148407237Y-132516503D01*
X148407235Y-132516498D01*
X148346897Y-132370827D01*
X148346890Y-132370814D01*
X148259289Y-132239711D01*
X148259286Y-132239707D01*
X148147792Y-132128213D01*
X148147788Y-132128210D01*
X148016685Y-132040609D01*
X148016672Y-132040602D01*
X147871001Y-131980264D01*
X147870989Y-131980261D01*
X147716345Y-131949500D01*
X147716342Y-131949500D01*
X147558658Y-131949500D01*
X147558655Y-131949500D01*
X147404010Y-131980261D01*
X147403998Y-131980264D01*
X147258327Y-132040602D01*
X147258314Y-132040609D01*
X147127211Y-132128210D01*
X147127207Y-132128213D01*
X147015713Y-132239707D01*
X147015710Y-132239711D01*
X146928109Y-132370814D01*
X146928102Y-132370827D01*
X146867764Y-132516498D01*
X146867761Y-132516510D01*
X146837000Y-132671153D01*
X146837000Y-132828846D01*
X146867761Y-132983489D01*
X146867764Y-132983501D01*
X146928102Y-133129172D01*
X146928109Y-133129185D01*
X147016102Y-133260874D01*
X147036980Y-133327551D01*
X147037000Y-133329765D01*
X147037000Y-140193652D01*
X147017315Y-140260691D01*
X147000681Y-140281333D01*
X144492514Y-142789499D01*
X144431191Y-142822984D01*
X144361499Y-142818000D01*
X144305566Y-142776128D01*
X144282361Y-142721221D01*
X144265902Y-142617299D01*
X144212373Y-142452555D01*
X144133732Y-142298212D01*
X144031914Y-142158072D01*
X143909428Y-142035586D01*
X143769288Y-141933768D01*
X143614945Y-141855127D01*
X143450201Y-141801598D01*
X143450199Y-141801597D01*
X143450198Y-141801597D01*
X143318771Y-141780781D01*
X143279111Y-141774500D01*
X143105889Y-141774500D01*
X143066228Y-141780781D01*
X142934802Y-141801597D01*
X142770052Y-141855128D01*
X142615711Y-141933768D01*
X142558789Y-141975125D01*
X142475572Y-142035586D01*
X142475570Y-142035588D01*
X142475569Y-142035588D01*
X142353088Y-142158069D01*
X142353088Y-142158070D01*
X142353086Y-142158072D01*
X142309359Y-142218256D01*
X142251268Y-142298211D01*
X142172628Y-142452552D01*
X142119097Y-142617302D01*
X142102639Y-142721215D01*
X142092000Y-142788389D01*
X142092000Y-142961611D01*
X142119098Y-143132701D01*
X142172627Y-143297445D01*
X142251268Y-143451788D01*
X142353086Y-143591928D01*
X142475572Y-143714414D01*
X142615712Y-143816232D01*
X142770055Y-143894873D01*
X142934799Y-143948402D01*
X143038720Y-143964861D01*
X143101850Y-143994788D01*
X143138782Y-144054100D01*
X143137784Y-144123962D01*
X143106999Y-144175014D01*
X142860339Y-144421675D01*
X142799016Y-144455160D01*
X142796850Y-144455611D01*
X142641508Y-144486511D01*
X142641498Y-144486514D01*
X142495827Y-144546852D01*
X142495814Y-144546859D01*
X142364711Y-144634460D01*
X142364707Y-144634463D01*
X142253213Y-144745957D01*
X142253210Y-144745961D01*
X142165609Y-144877064D01*
X142165602Y-144877077D01*
X142105264Y-145022748D01*
X142105261Y-145022760D01*
X142074500Y-145177403D01*
X140100613Y-145177403D01*
X140022881Y-145105669D01*
X140022878Y-145105667D01*
X140022877Y-145105666D01*
X139868492Y-145008170D01*
X139862300Y-145005688D01*
X139699000Y-144940226D01*
X139698999Y-144940225D01*
X139698995Y-144940224D01*
X139520010Y-144904085D01*
X139516460Y-144903700D01*
X139514908Y-144903055D01*
X139514476Y-144902968D01*
X139514493Y-144902882D01*
X139451937Y-144876894D01*
X139412149Y-144819460D01*
X139409729Y-144749632D01*
X139445445Y-144689581D01*
X139454359Y-144682049D01*
X139516374Y-144634463D01*
X139599542Y-144570646D01*
X139808146Y-144362042D01*
X139987738Y-144127994D01*
X140135243Y-143872507D01*
X140248139Y-143599952D01*
X140324493Y-143314993D01*
X140363000Y-143022506D01*
X140363000Y-142727494D01*
X140324493Y-142435007D01*
X140248139Y-142150048D01*
X140135243Y-141877493D01*
X140079809Y-141781479D01*
X139987738Y-141622006D01*
X139808147Y-141387959D01*
X139808141Y-141387952D01*
X139599547Y-141179358D01*
X139599540Y-141179352D01*
X139365493Y-140999761D01*
X139110010Y-140852258D01*
X139110000Y-140852254D01*
X138837461Y-140739364D01*
X138837454Y-140739362D01*
X138837452Y-140739361D01*
X138552493Y-140663007D01*
X138503613Y-140656571D01*
X138260013Y-140624500D01*
X138260006Y-140624500D01*
X137964994Y-140624500D01*
X137964986Y-140624500D01*
X137686585Y-140661153D01*
X137672507Y-140663007D01*
X137497928Y-140709785D01*
X137387548Y-140739361D01*
X137387538Y-140739364D01*
X137114999Y-140852254D01*
X137114989Y-140852258D01*
X136859506Y-140999761D01*
X136625459Y-141179352D01*
X136625452Y-141179358D01*
X136416858Y-141387952D01*
X136416852Y-141387959D01*
X136237261Y-141622006D01*
X136089758Y-141877489D01*
X136089754Y-141877499D01*
X135976864Y-142150038D01*
X135976861Y-142150048D01*
X135900508Y-142435004D01*
X135900506Y-142435015D01*
X135862000Y-142727486D01*
X135862000Y-143022513D01*
X135894071Y-143266113D01*
X135900507Y-143314993D01*
X135974712Y-143591930D01*
X135976861Y-143599951D01*
X135976864Y-143599961D01*
X136089754Y-143872500D01*
X136089758Y-143872510D01*
X136237261Y-144127993D01*
X136416852Y-144362040D01*
X136416858Y-144362047D01*
X136625452Y-144570641D01*
X136625459Y-144570647D01*
X136770749Y-144682132D01*
X136811952Y-144738560D01*
X136816107Y-144808306D01*
X136781895Y-144869226D01*
X136720178Y-144901979D01*
X136708654Y-144903783D01*
X136704996Y-144904180D01*
X136526033Y-144940315D01*
X136526028Y-144940316D01*
X136356553Y-145008253D01*
X136202180Y-145105741D01*
X136202171Y-145105748D01*
X136067999Y-145229565D01*
X135958445Y-145375640D01*
X135877150Y-145539120D01*
X135826787Y-145714621D01*
X135809024Y-145896342D01*
X135824447Y-146078268D01*
X135872549Y-146254405D01*
X135872552Y-146254412D01*
X135879812Y-146269545D01*
X135879849Y-146269621D01*
X135883408Y-146277054D01*
X135883465Y-146277348D01*
X135899837Y-146311358D01*
X135899977Y-146312220D01*
X135912000Y-146364917D01*
X135912000Y-146411017D01*
X135912002Y-146411046D01*
X135912002Y-147713792D01*
X135909365Y-147725404D01*
X135910400Y-147733661D01*
X135899945Y-147766892D01*
X135899844Y-147767339D01*
X135899666Y-147767710D01*
X135883470Y-147801355D01*
X135883412Y-147801658D01*
X135879823Y-147809156D01*
X135879808Y-147809172D01*
X135879771Y-147809265D01*
X135872580Y-147824246D01*
X135872577Y-147824254D01*
X135824447Y-148000396D01*
X135814560Y-148116854D01*
X135809654Y-148174654D01*
X135809000Y-148182352D01*
X131136000Y-148182352D01*
X131136000Y-138317097D01*
X131155685Y-138250058D01*
X131208489Y-138204303D01*
X131277647Y-138194359D01*
X131341203Y-138223384D01*
X131347681Y-138229416D01*
X132770341Y-139652076D01*
X132803826Y-139713399D01*
X132800591Y-139778074D01*
X132741410Y-139960215D01*
X132702000Y-140209038D01*
X132702000Y-140460962D01*
X132719715Y-140572807D01*
X132741410Y-140709785D01*
X132819260Y-140949383D01*
X132897913Y-141103747D01*
X132916826Y-141140866D01*
X132933632Y-141173848D01*
X133081701Y-141377649D01*
X133081705Y-141377654D01*
X133081707Y-141377656D01*
X133259844Y-141555793D01*
X133259845Y-141555794D01*
X133259844Y-141555794D01*
X133266161Y-141560383D01*
X133308827Y-141615714D01*
X133314805Y-141685327D01*
X133282199Y-141747122D01*
X133221360Y-141781479D01*
X133173878Y-141783174D01*
X133119111Y-141774500D01*
X132945889Y-141774500D01*
X132906228Y-141780781D01*
X132774802Y-141801597D01*
X132610052Y-141855128D01*
X132455711Y-141933768D01*
X132398789Y-141975125D01*
X132315572Y-142035586D01*
X132315570Y-142035588D01*
X132315569Y-142035588D01*
X132193088Y-142158069D01*
X132193088Y-142158070D01*
X132193086Y-142158072D01*
X132149359Y-142218256D01*
X132091268Y-142298211D01*
X132012628Y-142452552D01*
X131959097Y-142617302D01*
X131942639Y-142721215D01*
X131932000Y-142788389D01*
X131932000Y-142961611D01*
X131959098Y-143132701D01*
X132012627Y-143297445D01*
X132091268Y-143451788D01*
X132193086Y-143591928D01*
X132315572Y-143714414D01*
X132455712Y-143816232D01*
X132610055Y-143894873D01*
X132774799Y-143948402D01*
X132945889Y-143975500D01*
X132945890Y-143975500D01*
X133119110Y-143975500D01*
X133119111Y-143975500D01*
X133290201Y-143948402D01*
X133454945Y-143894873D01*
X133609288Y-143816232D01*
X133749428Y-143714414D01*
X133871914Y-143591928D01*
X133973732Y-143451788D01*
X134052373Y-143297445D01*
X134105902Y-143132701D01*
X134133000Y-142961611D01*
X134133000Y-142788389D01*
X134105902Y-142617299D01*
X134052373Y-142452555D01*
X133973732Y-142298212D01*
X133871914Y-142158072D01*
X133819982Y-142106140D01*
X133786497Y-142044817D01*
X133791481Y-141975125D01*
X133833353Y-141919192D01*
X133898817Y-141894775D01*
X133927061Y-141895986D01*
X133927712Y-141896089D01*
X133927715Y-141896090D01*
X134176538Y-141935500D01*
X134176539Y-141935500D01*
X134428461Y-141935500D01*
X134428462Y-141935500D01*
X134677285Y-141896090D01*
X134916879Y-141818241D01*
X135141345Y-141703870D01*
X135345156Y-141555793D01*
X135523293Y-141377656D01*
X135671370Y-141173845D01*
X135785741Y-140949379D01*
X135863590Y-140709785D01*
X135903000Y-140460962D01*
X135903000Y-140209038D01*
X135863590Y-139960215D01*
X135785741Y-139720621D01*
X135785739Y-139720618D01*
X135785739Y-139720616D01*
X135744247Y-139639184D01*
X135671370Y-139496155D01*
X135569253Y-139355602D01*
X135523298Y-139292350D01*
X135523294Y-139292345D01*
X135345154Y-139114205D01*
X135345149Y-139114201D01*
X135141348Y-138966132D01*
X135141347Y-138966131D01*
X135141345Y-138966130D01*
X135071247Y-138930413D01*
X134916883Y-138851760D01*
X134677285Y-138773910D01*
X134428462Y-138734500D01*
X134176538Y-138734500D01*
X134052126Y-138754205D01*
X133927714Y-138773910D01*
X133838675Y-138802841D01*
X133745574Y-138833091D01*
X133675734Y-138835086D01*
X133619576Y-138802841D01*
X132485806Y-137669071D01*
X139052500Y-137669071D01*
X139052500Y-137920928D01*
X139091897Y-138169669D01*
X139169719Y-138409184D01*
X139284057Y-138633583D01*
X139358248Y-138735697D01*
X139358248Y-138735698D01*
X139974921Y-138119024D01*
X139987859Y-138150258D01*
X140069937Y-138273097D01*
X140174403Y-138377563D01*
X140297242Y-138459641D01*
X140328474Y-138472577D01*
X139711800Y-139089250D01*
X139813916Y-139163442D01*
X140038315Y-139277780D01*
X140277830Y-139355602D01*
X140526572Y-139395000D01*
X140778428Y-139395000D01*
X141027169Y-139355602D01*
X141266684Y-139277780D01*
X141491075Y-139163446D01*
X141491081Y-139163442D01*
X141593197Y-139089250D01*
X141593198Y-139089250D01*
X140976525Y-138472578D01*
X141007758Y-138459641D01*
X141130597Y-138377563D01*
X141235063Y-138273097D01*
X141317141Y-138150258D01*
X141330077Y-138119025D01*
X141946750Y-138735698D01*
X141946750Y-138735697D01*
X142020942Y-138633581D01*
X142020946Y-138633575D01*
X142135280Y-138409184D01*
X142213102Y-138169669D01*
X142252500Y-137920928D01*
X142252500Y-137669071D01*
X142213102Y-137420330D01*
X142135280Y-137180815D01*
X142020942Y-136956416D01*
X141946750Y-136854301D01*
X141946750Y-136854300D01*
X141330077Y-137470973D01*
X141317141Y-137439742D01*
X141235063Y-137316903D01*
X141130597Y-137212437D01*
X141007758Y-137130359D01*
X140976524Y-137117421D01*
X141593198Y-136500748D01*
X141491083Y-136426557D01*
X141266684Y-136312219D01*
X141027169Y-136234397D01*
X140778428Y-136195000D01*
X140526572Y-136195000D01*
X140277830Y-136234397D01*
X140038315Y-136312219D01*
X139813913Y-136426559D01*
X139711801Y-136500747D01*
X139711800Y-136500748D01*
X140328474Y-137117421D01*
X140297242Y-137130359D01*
X140174403Y-137212437D01*
X140069937Y-137316903D01*
X139987859Y-137439742D01*
X139974921Y-137470974D01*
X139358248Y-136854300D01*
X139358247Y-136854301D01*
X139284059Y-136956413D01*
X139169719Y-137180815D01*
X139091897Y-137420330D01*
X139052500Y-137669071D01*
X132485806Y-137669071D01*
X131573319Y-136756584D01*
X131558615Y-136729656D01*
X131542023Y-136703838D01*
X131541131Y-136697637D01*
X131539834Y-136695261D01*
X131537000Y-136668903D01*
X131537000Y-133574009D01*
X131556685Y-133506970D01*
X131609489Y-133461215D01*
X131678647Y-133451271D01*
X131708448Y-133459446D01*
X131854003Y-133519737D01*
X132008653Y-133550499D01*
X132008656Y-133550500D01*
X132008658Y-133550500D01*
X132166344Y-133550500D01*
X132166345Y-133550499D01*
X132320997Y-133519737D01*
X132466679Y-133459394D01*
X132487826Y-133445264D01*
X132598375Y-133371398D01*
X132665053Y-133350520D01*
X132667266Y-133350500D01*
X140245197Y-133350500D01*
X140245213Y-133350501D01*
X140252809Y-133350501D01*
X140410920Y-133350501D01*
X140410923Y-133350501D01*
X140563651Y-133309577D01*
X140613770Y-133280639D01*
X140700582Y-133230520D01*
X140812386Y-133118716D01*
X140812386Y-133118714D01*
X140822594Y-133108507D01*
X140822596Y-133108504D01*
X145422447Y-128508653D01*
X149218250Y-128508653D01*
X149218250Y-128666346D01*
X149249011Y-128820989D01*
X149249014Y-128821001D01*
X149309352Y-128966672D01*
X149309359Y-128966684D01*
X149372352Y-129060959D01*
X149393230Y-129127636D01*
X149393250Y-129129850D01*
X149393250Y-133407650D01*
X149373565Y-133474689D01*
X149372352Y-133476541D01*
X149309359Y-133570815D01*
X149309352Y-133570828D01*
X149249014Y-133716498D01*
X149249011Y-133716510D01*
X149218250Y-133871153D01*
X149218250Y-134028846D01*
X149249011Y-134183489D01*
X149249014Y-134183501D01*
X149309352Y-134329172D01*
X149309359Y-134329185D01*
X149396960Y-134460288D01*
X149396963Y-134460292D01*
X149508457Y-134571786D01*
X149508461Y-134571789D01*
X149639564Y-134659390D01*
X149639577Y-134659397D01*
X149785248Y-134719735D01*
X149785253Y-134719737D01*
X149939903Y-134750499D01*
X149939906Y-134750500D01*
X149939908Y-134750500D01*
X150097594Y-134750500D01*
X150097595Y-134750499D01*
X150252247Y-134719737D01*
X150397929Y-134659394D01*
X150529039Y-134571789D01*
X150640539Y-134460289D01*
X150728144Y-134329179D01*
X150788487Y-134183497D01*
X150819250Y-134028842D01*
X150819250Y-133871158D01*
X150819250Y-133871155D01*
X150819249Y-133871153D01*
X150788488Y-133716510D01*
X150788487Y-133716503D01*
X150728144Y-133570821D01*
X150665147Y-133476539D01*
X150644270Y-133409863D01*
X150644250Y-133407650D01*
X150644250Y-129132352D01*
X154859000Y-129132352D01*
X154859000Y-129132357D01*
X154876746Y-129314085D01*
X154876749Y-129314100D01*
X154927098Y-129489608D01*
X154927104Y-129489623D01*
X155008396Y-129653124D01*
X155008402Y-129653132D01*
X155117953Y-129799216D01*
X155252144Y-129923060D01*
X155406538Y-130020565D01*
X155576032Y-130088508D01*
X155576039Y-130088509D01*
X155576041Y-130088510D01*
X155622209Y-130097831D01*
X155755025Y-130124646D01*
X155937603Y-130127783D01*
X156117732Y-130097816D01*
X156289461Y-130035735D01*
X156304622Y-130026899D01*
X156311157Y-130023099D01*
X156311431Y-130023025D01*
X156339253Y-130006765D01*
X156339438Y-130006658D01*
X156342486Y-130005908D01*
X156401761Y-129989858D01*
X157882798Y-129989858D01*
X157882902Y-129989864D01*
X157891105Y-129989863D01*
X157891108Y-129989864D01*
X157923247Y-129989861D01*
X157985806Y-130006792D01*
X158020225Y-130026899D01*
X158021066Y-130027318D01*
X158035537Y-130035752D01*
X158181508Y-130088521D01*
X158207268Y-130097833D01*
X158387400Y-130127799D01*
X158569981Y-130124661D01*
X158748977Y-130088523D01*
X158918473Y-130020577D01*
X159072868Y-129923071D01*
X159207061Y-129799225D01*
X159316617Y-129653132D01*
X159397915Y-129489620D01*
X159448269Y-129314093D01*
X159466016Y-129132350D01*
X159450568Y-128950397D01*
X159402437Y-128774247D01*
X159395084Y-128758929D01*
X159391581Y-128751618D01*
X159391532Y-128751354D01*
X159375173Y-128717371D01*
X159375043Y-128716574D01*
X159363000Y-128663792D01*
X159363000Y-127361044D01*
X159363001Y-127361015D01*
X159363000Y-127352396D01*
X159363002Y-127352392D01*
X159363000Y-127315052D01*
X159375204Y-127261408D01*
X159402539Y-127204439D01*
X159402540Y-127204436D01*
X159402549Y-127204405D01*
X159450646Y-127028287D01*
X159466071Y-126846339D01*
X159448307Y-126664604D01*
X159426657Y-126589161D01*
X159397941Y-126489092D01*
X159397939Y-126489090D01*
X159397939Y-126489087D01*
X159344028Y-126380677D01*
X159316635Y-126325590D01*
X159207077Y-126179511D01*
X159207076Y-126179510D01*
X159207073Y-126179506D01*
X159072881Y-126055669D01*
X159072878Y-126055667D01*
X159072877Y-126055666D01*
X158918492Y-125958170D01*
X158912300Y-125955688D01*
X158749000Y-125890226D01*
X158748999Y-125890225D01*
X158748995Y-125890224D01*
X158570010Y-125854085D01*
X158566460Y-125853700D01*
X158564908Y-125853055D01*
X158564476Y-125852968D01*
X158564493Y-125852882D01*
X158501937Y-125826894D01*
X158462149Y-125769460D01*
X158459729Y-125699632D01*
X158495445Y-125639581D01*
X158504359Y-125632049D01*
X158649542Y-125520646D01*
X158858146Y-125312042D01*
X159037738Y-125077994D01*
X159185243Y-124822507D01*
X159298139Y-124549952D01*
X159374493Y-124264993D01*
X159413000Y-123972506D01*
X159413000Y-123738389D01*
X161142000Y-123738389D01*
X161142000Y-123911611D01*
X161169098Y-124082701D01*
X161222627Y-124247445D01*
X161301268Y-124401788D01*
X161403086Y-124541928D01*
X161525572Y-124664414D01*
X161665712Y-124766232D01*
X161820055Y-124844873D01*
X161984799Y-124898402D01*
X162155889Y-124925500D01*
X162155890Y-124925500D01*
X162329110Y-124925500D01*
X162329111Y-124925500D01*
X162500201Y-124898402D01*
X162664945Y-124844873D01*
X162819288Y-124766232D01*
X162959428Y-124664414D01*
X163081914Y-124541928D01*
X163183732Y-124401788D01*
X163262373Y-124247445D01*
X163315902Y-124082701D01*
X163343000Y-123911611D01*
X163343000Y-123738389D01*
X163315902Y-123567299D01*
X163262373Y-123402555D01*
X163183732Y-123248212D01*
X163081914Y-123108072D01*
X162959428Y-122985586D01*
X162819288Y-122883768D01*
X162664945Y-122805127D01*
X162500201Y-122751598D01*
X162500199Y-122751597D01*
X162500198Y-122751597D01*
X162368771Y-122730781D01*
X162329111Y-122724500D01*
X162155889Y-122724500D01*
X162116228Y-122730781D01*
X161984802Y-122751597D01*
X161820052Y-122805128D01*
X161665711Y-122883768D01*
X161608789Y-122925125D01*
X161525572Y-122985586D01*
X161525570Y-122985588D01*
X161525569Y-122985588D01*
X161403088Y-123108069D01*
X161403088Y-123108070D01*
X161403086Y-123108072D01*
X161359359Y-123168256D01*
X161301268Y-123248211D01*
X161222628Y-123402552D01*
X161169097Y-123567302D01*
X161151646Y-123677486D01*
X161142000Y-123738389D01*
X159413000Y-123738389D01*
X159413000Y-123677494D01*
X159374493Y-123385007D01*
X159298139Y-123100048D01*
X159185243Y-122827493D01*
X159129809Y-122731479D01*
X159037738Y-122572006D01*
X158858147Y-122337959D01*
X158858141Y-122337952D01*
X158649547Y-122129358D01*
X158649540Y-122129352D01*
X158415493Y-121949761D01*
X158160010Y-121802258D01*
X158160000Y-121802254D01*
X157887461Y-121689364D01*
X157887454Y-121689362D01*
X157887452Y-121689361D01*
X157602493Y-121613007D01*
X157553613Y-121606571D01*
X157310013Y-121574500D01*
X157310006Y-121574500D01*
X157014994Y-121574500D01*
X157014986Y-121574500D01*
X156736585Y-121611153D01*
X156722507Y-121613007D01*
X156547928Y-121659785D01*
X156437548Y-121689361D01*
X156437538Y-121689364D01*
X156164999Y-121802254D01*
X156164989Y-121802258D01*
X155909506Y-121949761D01*
X155675459Y-122129352D01*
X155675452Y-122129358D01*
X155466858Y-122337952D01*
X155466852Y-122337959D01*
X155287261Y-122572006D01*
X155139758Y-122827489D01*
X155139754Y-122827499D01*
X155026864Y-123100038D01*
X155026861Y-123100048D01*
X154950508Y-123385004D01*
X154950506Y-123385015D01*
X154912000Y-123677486D01*
X154912000Y-123972513D01*
X154944071Y-124216113D01*
X154950507Y-124264993D01*
X155024712Y-124541930D01*
X155026861Y-124549951D01*
X155026864Y-124549961D01*
X155139754Y-124822500D01*
X155139758Y-124822510D01*
X155287261Y-125077993D01*
X155466852Y-125312040D01*
X155466858Y-125312047D01*
X155675452Y-125520641D01*
X155675459Y-125520647D01*
X155820749Y-125632132D01*
X155861952Y-125688560D01*
X155866107Y-125758306D01*
X155831895Y-125819226D01*
X155770178Y-125851979D01*
X155758654Y-125853783D01*
X155754996Y-125854180D01*
X155576033Y-125890315D01*
X155576028Y-125890316D01*
X155406553Y-125958253D01*
X155252180Y-126055741D01*
X155252171Y-126055748D01*
X155117999Y-126179565D01*
X155008445Y-126325640D01*
X154927150Y-126489120D01*
X154876787Y-126664621D01*
X154859024Y-126846342D01*
X154874447Y-127028268D01*
X154922549Y-127204405D01*
X154922552Y-127204412D01*
X154929812Y-127219545D01*
X154929849Y-127219621D01*
X154933408Y-127227054D01*
X154933465Y-127227348D01*
X154949837Y-127261358D01*
X154949977Y-127262220D01*
X154962000Y-127314917D01*
X154962000Y-127361017D01*
X154962002Y-127361046D01*
X154962002Y-128663792D01*
X154959365Y-128675404D01*
X154960400Y-128683661D01*
X154949945Y-128716892D01*
X154949844Y-128717339D01*
X154949666Y-128717710D01*
X154933470Y-128751355D01*
X154933412Y-128751658D01*
X154929823Y-128759156D01*
X154929808Y-128759172D01*
X154929771Y-128759265D01*
X154922580Y-128774246D01*
X154922577Y-128774254D01*
X154874447Y-128950396D01*
X154864560Y-129066854D01*
X154859654Y-129124654D01*
X154859000Y-129132352D01*
X150644250Y-129132352D01*
X150644250Y-129129850D01*
X150648087Y-129116780D01*
X150647090Y-129109841D01*
X150649732Y-129102944D01*
X150649913Y-129092805D01*
X150663417Y-129064572D01*
X150663935Y-129062811D01*
X150665143Y-129060966D01*
X150665148Y-129060959D01*
X150728144Y-128966679D01*
X150788487Y-128820997D01*
X150819250Y-128666342D01*
X150819250Y-128508658D01*
X150819250Y-128508655D01*
X150819249Y-128508653D01*
X150788488Y-128354010D01*
X150788487Y-128354003D01*
X150788485Y-128353998D01*
X150728147Y-128208327D01*
X150728140Y-128208314D01*
X150640539Y-128077211D01*
X150640536Y-128077207D01*
X150529042Y-127965713D01*
X150529038Y-127965710D01*
X150397935Y-127878109D01*
X150397922Y-127878102D01*
X150252251Y-127817764D01*
X150252239Y-127817761D01*
X150097595Y-127787000D01*
X150097592Y-127787000D01*
X149939908Y-127787000D01*
X149939905Y-127787000D01*
X149785260Y-127817761D01*
X149785248Y-127817764D01*
X149639577Y-127878102D01*
X149639564Y-127878109D01*
X149508461Y-127965710D01*
X149508457Y-127965713D01*
X149396963Y-128077207D01*
X149396960Y-128077211D01*
X149309359Y-128208314D01*
X149309352Y-128208327D01*
X149249014Y-128353998D01*
X149249011Y-128354010D01*
X149218250Y-128508653D01*
X145422447Y-128508653D01*
X151806750Y-122124349D01*
X151868071Y-122090866D01*
X151937763Y-122095850D01*
X151993696Y-122137722D01*
X151994747Y-122139147D01*
X152131701Y-122327649D01*
X152131705Y-122327654D01*
X152131707Y-122327656D01*
X152309844Y-122505793D01*
X152309845Y-122505794D01*
X152309844Y-122505794D01*
X152316161Y-122510383D01*
X152358827Y-122565714D01*
X152364805Y-122635327D01*
X152332199Y-122697122D01*
X152271360Y-122731479D01*
X152223878Y-122733174D01*
X152169111Y-122724500D01*
X151995889Y-122724500D01*
X151956228Y-122730781D01*
X151824802Y-122751597D01*
X151660052Y-122805128D01*
X151505711Y-122883768D01*
X151448789Y-122925125D01*
X151365572Y-122985586D01*
X151365570Y-122985588D01*
X151365569Y-122985588D01*
X151243088Y-123108069D01*
X151243088Y-123108070D01*
X151243086Y-123108072D01*
X151199359Y-123168256D01*
X151141268Y-123248211D01*
X151062628Y-123402552D01*
X151009097Y-123567302D01*
X150991646Y-123677486D01*
X150982000Y-123738389D01*
X150982000Y-123911611D01*
X151009098Y-124082701D01*
X151062627Y-124247445D01*
X151141268Y-124401788D01*
X151243086Y-124541928D01*
X151365572Y-124664414D01*
X151505712Y-124766232D01*
X151660055Y-124844873D01*
X151824799Y-124898402D01*
X151995889Y-124925500D01*
X151995890Y-124925500D01*
X152169110Y-124925500D01*
X152169111Y-124925500D01*
X152340201Y-124898402D01*
X152504945Y-124844873D01*
X152659288Y-124766232D01*
X152799428Y-124664414D01*
X152921914Y-124541928D01*
X153023732Y-124401788D01*
X153102373Y-124247445D01*
X153155902Y-124082701D01*
X153183000Y-123911611D01*
X153183000Y-123738389D01*
X153155902Y-123567299D01*
X153102373Y-123402555D01*
X153023732Y-123248212D01*
X152921914Y-123108072D01*
X152869982Y-123056140D01*
X152836497Y-122994817D01*
X152841481Y-122925125D01*
X152883353Y-122869192D01*
X152948817Y-122844775D01*
X152977061Y-122845986D01*
X152977712Y-122846089D01*
X152977715Y-122846090D01*
X153226538Y-122885500D01*
X153226539Y-122885500D01*
X153478461Y-122885500D01*
X153478462Y-122885500D01*
X153727285Y-122846090D01*
X153966879Y-122768241D01*
X154191345Y-122653870D01*
X154395156Y-122505793D01*
X154573293Y-122327656D01*
X154721370Y-122123845D01*
X154835741Y-121899379D01*
X154913590Y-121659785D01*
X154953000Y-121410962D01*
X154953000Y-121159038D01*
X154913590Y-120910215D01*
X154835741Y-120670621D01*
X154835739Y-120670618D01*
X154835739Y-120670616D01*
X154794247Y-120589184D01*
X154721370Y-120446155D01*
X154619253Y-120305602D01*
X154573298Y-120242350D01*
X154573294Y-120242345D01*
X154395154Y-120064205D01*
X154395149Y-120064201D01*
X154191348Y-119916132D01*
X154191347Y-119916131D01*
X154191345Y-119916130D01*
X154121247Y-119880413D01*
X153966883Y-119801760D01*
X153727285Y-119723910D01*
X153478462Y-119684500D01*
X153226538Y-119684500D01*
X153102126Y-119704205D01*
X152977714Y-119723910D01*
X152738116Y-119801760D01*
X152513651Y-119916132D01*
X152309850Y-120064201D01*
X152309845Y-120064205D01*
X152131705Y-120242345D01*
X152131701Y-120242350D01*
X151983632Y-120446151D01*
X151983630Y-120446155D01*
X151904185Y-120602076D01*
X151896685Y-120616795D01*
X151848711Y-120667591D01*
X151786200Y-120684500D01*
X151717806Y-120684500D01*
X151676885Y-120695464D01*
X151676885Y-120695465D01*
X151639617Y-120705451D01*
X151565080Y-120725423D01*
X151565075Y-120725426D01*
X151428156Y-120804475D01*
X151428148Y-120804481D01*
X151316344Y-120916286D01*
X140119450Y-132113181D01*
X140058127Y-132146666D01*
X140031769Y-132149500D01*
X132667266Y-132149500D01*
X132600227Y-132129815D01*
X132598375Y-132128602D01*
X132466685Y-132040609D01*
X132466672Y-132040602D01*
X132321001Y-131980264D01*
X132320989Y-131980261D01*
X132166345Y-131949500D01*
X132166342Y-131949500D01*
X132008658Y-131949500D01*
X132008655Y-131949500D01*
X131854010Y-131980261D01*
X131853998Y-131980264D01*
X131708452Y-132040551D01*
X131638983Y-132048020D01*
X131576504Y-132016744D01*
X131540852Y-131956655D01*
X131537000Y-131925990D01*
X131537000Y-129132352D01*
X135809000Y-129132352D01*
X135809000Y-129132357D01*
X135826746Y-129314085D01*
X135826749Y-129314100D01*
X135877098Y-129489608D01*
X135877104Y-129489623D01*
X135958396Y-129653124D01*
X135958402Y-129653132D01*
X136067953Y-129799216D01*
X136202144Y-129923060D01*
X136356538Y-130020565D01*
X136526032Y-130088508D01*
X136526039Y-130088509D01*
X136526041Y-130088510D01*
X136572209Y-130097831D01*
X136705025Y-130124646D01*
X136887603Y-130127783D01*
X137067732Y-130097816D01*
X137239461Y-130035735D01*
X137254622Y-130026899D01*
X137261157Y-130023099D01*
X137261431Y-130023025D01*
X137289253Y-130006765D01*
X137289438Y-130006658D01*
X137292486Y-130005908D01*
X137351761Y-129989858D01*
X138832798Y-129989858D01*
X138832902Y-129989864D01*
X138841105Y-129989863D01*
X138841108Y-129989864D01*
X138873247Y-129989861D01*
X138935806Y-130006792D01*
X138970225Y-130026899D01*
X138971066Y-130027318D01*
X138985537Y-130035752D01*
X139131508Y-130088521D01*
X139157268Y-130097833D01*
X139337400Y-130127799D01*
X139519981Y-130124661D01*
X139698977Y-130088523D01*
X139868473Y-130020577D01*
X140022868Y-129923071D01*
X140157061Y-129799225D01*
X140266617Y-129653132D01*
X140347915Y-129489620D01*
X140398269Y-129314093D01*
X140416016Y-129132350D01*
X140400568Y-128950397D01*
X140352437Y-128774247D01*
X140345084Y-128758929D01*
X140341581Y-128751618D01*
X140341532Y-128751354D01*
X140325173Y-128717371D01*
X140325043Y-128716574D01*
X140313000Y-128663792D01*
X140313000Y-127361044D01*
X140313001Y-127361015D01*
X140313000Y-127352396D01*
X140313002Y-127352392D01*
X140313000Y-127315052D01*
X140325204Y-127261408D01*
X140352539Y-127204439D01*
X140352540Y-127204436D01*
X140352549Y-127204405D01*
X140400646Y-127028287D01*
X140416071Y-126846339D01*
X140398307Y-126664604D01*
X140376657Y-126589161D01*
X140347941Y-126489092D01*
X140347939Y-126489090D01*
X140347939Y-126489087D01*
X140294028Y-126380677D01*
X140266635Y-126325590D01*
X140157077Y-126179511D01*
X140157076Y-126179510D01*
X140157073Y-126179506D01*
X140022881Y-126055669D01*
X140022878Y-126055667D01*
X140022877Y-126055666D01*
X139868492Y-125958170D01*
X139862300Y-125955688D01*
X139699000Y-125890226D01*
X139698999Y-125890225D01*
X139698995Y-125890224D01*
X139520010Y-125854085D01*
X139516460Y-125853700D01*
X139514908Y-125853055D01*
X139514476Y-125852968D01*
X139514493Y-125852882D01*
X139451937Y-125826894D01*
X139412149Y-125769460D01*
X139409729Y-125699632D01*
X139445445Y-125639581D01*
X139454359Y-125632049D01*
X139599542Y-125520646D01*
X139808146Y-125312042D01*
X139987738Y-125077994D01*
X140135243Y-124822507D01*
X140248139Y-124549952D01*
X140324493Y-124264993D01*
X140363000Y-123972506D01*
X140363000Y-123738389D01*
X142092000Y-123738389D01*
X142092000Y-123911611D01*
X142119098Y-124082701D01*
X142172627Y-124247445D01*
X142251268Y-124401788D01*
X142353086Y-124541928D01*
X142475572Y-124664414D01*
X142615712Y-124766232D01*
X142770055Y-124844873D01*
X142934799Y-124898402D01*
X143105889Y-124925500D01*
X143105890Y-124925500D01*
X143279110Y-124925500D01*
X143279111Y-124925500D01*
X143450201Y-124898402D01*
X143614945Y-124844873D01*
X143769288Y-124766232D01*
X143909428Y-124664414D01*
X144031914Y-124541928D01*
X144133732Y-124401788D01*
X144212373Y-124247445D01*
X144265902Y-124082701D01*
X144293000Y-123911611D01*
X144293000Y-123738389D01*
X144265902Y-123567299D01*
X144212373Y-123402555D01*
X144133732Y-123248212D01*
X144031914Y-123108072D01*
X143909428Y-122985586D01*
X143769288Y-122883768D01*
X143614945Y-122805127D01*
X143450201Y-122751598D01*
X143450199Y-122751597D01*
X143450198Y-122751597D01*
X143318771Y-122730781D01*
X143279111Y-122724500D01*
X143105889Y-122724500D01*
X143066228Y-122730781D01*
X142934802Y-122751597D01*
X142770052Y-122805128D01*
X142615711Y-122883768D01*
X142558789Y-122925125D01*
X142475572Y-122985586D01*
X142475570Y-122985588D01*
X142475569Y-122985588D01*
X142353088Y-123108069D01*
X142353088Y-123108070D01*
X142353086Y-123108072D01*
X142309359Y-123168256D01*
X142251268Y-123248211D01*
X142172628Y-123402552D01*
X142119097Y-123567302D01*
X142101646Y-123677486D01*
X142092000Y-123738389D01*
X140363000Y-123738389D01*
X140363000Y-123677494D01*
X140324493Y-123385007D01*
X140248139Y-123100048D01*
X140135243Y-122827493D01*
X140079809Y-122731479D01*
X139987738Y-122572006D01*
X139808147Y-122337959D01*
X139808141Y-122337952D01*
X139599547Y-122129358D01*
X139599540Y-122129352D01*
X139365493Y-121949761D01*
X139110010Y-121802258D01*
X139110000Y-121802254D01*
X138837461Y-121689364D01*
X138837454Y-121689362D01*
X138837452Y-121689361D01*
X138552493Y-121613007D01*
X138503613Y-121606571D01*
X138260013Y-121574500D01*
X138260006Y-121574500D01*
X137964994Y-121574500D01*
X137964986Y-121574500D01*
X137686585Y-121611153D01*
X137672507Y-121613007D01*
X137497928Y-121659785D01*
X137387548Y-121689361D01*
X137387538Y-121689364D01*
X137114999Y-121802254D01*
X137114989Y-121802258D01*
X136859506Y-121949761D01*
X136625459Y-122129352D01*
X136625452Y-122129358D01*
X136416858Y-122337952D01*
X136416852Y-122337959D01*
X136237261Y-122572006D01*
X136089758Y-122827489D01*
X136089754Y-122827499D01*
X135976864Y-123100038D01*
X135976861Y-123100048D01*
X135900508Y-123385004D01*
X135900506Y-123385015D01*
X135862000Y-123677486D01*
X135862000Y-123972513D01*
X135894071Y-124216113D01*
X135900507Y-124264993D01*
X135974712Y-124541930D01*
X135976861Y-124549951D01*
X135976864Y-124549961D01*
X136089754Y-124822500D01*
X136089758Y-124822510D01*
X136237261Y-125077993D01*
X136416852Y-125312040D01*
X136416858Y-125312047D01*
X136625452Y-125520641D01*
X136625459Y-125520647D01*
X136770749Y-125632132D01*
X136811952Y-125688560D01*
X136816107Y-125758306D01*
X136781895Y-125819226D01*
X136720178Y-125851979D01*
X136708654Y-125853783D01*
X136704996Y-125854180D01*
X136526033Y-125890315D01*
X136526028Y-125890316D01*
X136356553Y-125958253D01*
X136202180Y-126055741D01*
X136202171Y-126055748D01*
X136067999Y-126179565D01*
X135958445Y-126325640D01*
X135877150Y-126489120D01*
X135826787Y-126664621D01*
X135809024Y-126846342D01*
X135824447Y-127028268D01*
X135872549Y-127204405D01*
X135872552Y-127204412D01*
X135879812Y-127219545D01*
X135879849Y-127219621D01*
X135883408Y-127227054D01*
X135883465Y-127227348D01*
X135899837Y-127261358D01*
X135899977Y-127262220D01*
X135912000Y-127314917D01*
X135912000Y-127361017D01*
X135912002Y-127361046D01*
X135912002Y-128663792D01*
X135909365Y-128675404D01*
X135910400Y-128683661D01*
X135899945Y-128716892D01*
X135899844Y-128717339D01*
X135899666Y-128717710D01*
X135883470Y-128751355D01*
X135883412Y-128751658D01*
X135879823Y-128759156D01*
X135879808Y-128759172D01*
X135879771Y-128759265D01*
X135872580Y-128774246D01*
X135872577Y-128774254D01*
X135824447Y-128950396D01*
X135814560Y-129066854D01*
X135809654Y-129124654D01*
X135809000Y-129132352D01*
X131537000Y-129132352D01*
X131537000Y-119668097D01*
X131556685Y-119601058D01*
X131609489Y-119555303D01*
X131678647Y-119545359D01*
X131742203Y-119574384D01*
X131748681Y-119580416D01*
X132770341Y-120602076D01*
X132803826Y-120663399D01*
X132800591Y-120728074D01*
X132775765Y-120804481D01*
X132741410Y-120910214D01*
X132702000Y-121159038D01*
X132702000Y-121410961D01*
X132741410Y-121659785D01*
X132819260Y-121899383D01*
X132897913Y-122053747D01*
X132916826Y-122090866D01*
X132933632Y-122123848D01*
X133081701Y-122327649D01*
X133081705Y-122327654D01*
X133081707Y-122327656D01*
X133259844Y-122505793D01*
X133259845Y-122505794D01*
X133259844Y-122505794D01*
X133266161Y-122510383D01*
X133308827Y-122565714D01*
X133314805Y-122635327D01*
X133282199Y-122697122D01*
X133221360Y-122731479D01*
X133173878Y-122733174D01*
X133119111Y-122724500D01*
X132945889Y-122724500D01*
X132906228Y-122730781D01*
X132774802Y-122751597D01*
X132610052Y-122805128D01*
X132455711Y-122883768D01*
X132398789Y-122925125D01*
X132315572Y-122985586D01*
X132315570Y-122985588D01*
X132315569Y-122985588D01*
X132193088Y-123108069D01*
X132193088Y-123108070D01*
X132193086Y-123108072D01*
X132149359Y-123168256D01*
X132091268Y-123248211D01*
X132012628Y-123402552D01*
X131959097Y-123567302D01*
X131941646Y-123677486D01*
X131932000Y-123738389D01*
X131932000Y-123911611D01*
X131959098Y-124082701D01*
X132012627Y-124247445D01*
X132091268Y-124401788D01*
X132193086Y-124541928D01*
X132315572Y-124664414D01*
X132455712Y-124766232D01*
X132610055Y-124844873D01*
X132774799Y-124898402D01*
X132945889Y-124925500D01*
X132945890Y-124925500D01*
X133119110Y-124925500D01*
X133119111Y-124925500D01*
X133290201Y-124898402D01*
X133454945Y-124844873D01*
X133609288Y-124766232D01*
X133749428Y-124664414D01*
X133871914Y-124541928D01*
X133973732Y-124401788D01*
X134052373Y-124247445D01*
X134105902Y-124082701D01*
X134133000Y-123911611D01*
X134133000Y-123738389D01*
X134105902Y-123567299D01*
X134052373Y-123402555D01*
X133973732Y-123248212D01*
X133871914Y-123108072D01*
X133819982Y-123056140D01*
X133786497Y-122994817D01*
X133791481Y-122925125D01*
X133833353Y-122869192D01*
X133898817Y-122844775D01*
X133927061Y-122845986D01*
X133927712Y-122846089D01*
X133927715Y-122846090D01*
X134176538Y-122885500D01*
X134176539Y-122885500D01*
X134428461Y-122885500D01*
X134428462Y-122885500D01*
X134677285Y-122846090D01*
X134916879Y-122768241D01*
X135141345Y-122653870D01*
X135345156Y-122505793D01*
X135523293Y-122327656D01*
X135671370Y-122123845D01*
X135785741Y-121899379D01*
X135863590Y-121659785D01*
X135903000Y-121410962D01*
X135903000Y-121159038D01*
X135863590Y-120910215D01*
X135785741Y-120670621D01*
X135785739Y-120670618D01*
X135785739Y-120670616D01*
X135744247Y-120589184D01*
X135671370Y-120446155D01*
X135569253Y-120305602D01*
X135523298Y-120242350D01*
X135523294Y-120242345D01*
X135345154Y-120064205D01*
X135345149Y-120064201D01*
X135141348Y-119916132D01*
X135141347Y-119916131D01*
X135141345Y-119916130D01*
X135071247Y-119880413D01*
X134916883Y-119801760D01*
X134677285Y-119723910D01*
X134428462Y-119684500D01*
X134176538Y-119684500D01*
X134052126Y-119704205D01*
X133927714Y-119723910D01*
X133838675Y-119752841D01*
X133745574Y-119783091D01*
X133675734Y-119785086D01*
X133619576Y-119752841D01*
X132485806Y-118619071D01*
X139052500Y-118619071D01*
X139052500Y-118870928D01*
X139091897Y-119119669D01*
X139169719Y-119359184D01*
X139284057Y-119583583D01*
X139358248Y-119685697D01*
X139358248Y-119685698D01*
X139974921Y-119069024D01*
X139987859Y-119100258D01*
X140069937Y-119223097D01*
X140174403Y-119327563D01*
X140297242Y-119409641D01*
X140328474Y-119422577D01*
X139711800Y-120039250D01*
X139813916Y-120113442D01*
X140038315Y-120227780D01*
X140277830Y-120305602D01*
X140526572Y-120345000D01*
X140778428Y-120345000D01*
X141027169Y-120305602D01*
X141266684Y-120227780D01*
X141491075Y-120113446D01*
X141491081Y-120113442D01*
X141593197Y-120039250D01*
X141593198Y-120039250D01*
X140976525Y-119422578D01*
X141007758Y-119409641D01*
X141130597Y-119327563D01*
X141235063Y-119223097D01*
X141317141Y-119100258D01*
X141330077Y-119069025D01*
X141946750Y-119685698D01*
X141946750Y-119685697D01*
X142020942Y-119583581D01*
X142020946Y-119583575D01*
X142135280Y-119359184D01*
X142213102Y-119119669D01*
X142252500Y-118870928D01*
X142252500Y-118619071D01*
X158102500Y-118619071D01*
X158102500Y-118870928D01*
X158141897Y-119119669D01*
X158219719Y-119359184D01*
X158334057Y-119583583D01*
X158408248Y-119685697D01*
X158408248Y-119685698D01*
X159024921Y-119069024D01*
X159037859Y-119100258D01*
X159119937Y-119223097D01*
X159224403Y-119327563D01*
X159347242Y-119409641D01*
X159378474Y-119422577D01*
X158761800Y-120039250D01*
X158863916Y-120113442D01*
X159088315Y-120227780D01*
X159327830Y-120305602D01*
X159576572Y-120345000D01*
X159828428Y-120345000D01*
X160077169Y-120305602D01*
X160316684Y-120227780D01*
X160541075Y-120113446D01*
X160541081Y-120113442D01*
X160643197Y-120039250D01*
X160643198Y-120039250D01*
X160026525Y-119422578D01*
X160057758Y-119409641D01*
X160180597Y-119327563D01*
X160285063Y-119223097D01*
X160367141Y-119100258D01*
X160380078Y-119069025D01*
X160996750Y-119685698D01*
X160996750Y-119685697D01*
X161070942Y-119583581D01*
X161070946Y-119583575D01*
X161185280Y-119359184D01*
X161263102Y-119119669D01*
X161302500Y-118870928D01*
X161302500Y-118619071D01*
X161263102Y-118370330D01*
X161185280Y-118130815D01*
X161070942Y-117906416D01*
X160996750Y-117804301D01*
X160996750Y-117804300D01*
X160380077Y-118420973D01*
X160367141Y-118389742D01*
X160285063Y-118266903D01*
X160180597Y-118162437D01*
X160057758Y-118080359D01*
X160026524Y-118067421D01*
X160643198Y-117450748D01*
X160541083Y-117376557D01*
X160316684Y-117262219D01*
X160077169Y-117184397D01*
X159828428Y-117145000D01*
X159576572Y-117145000D01*
X159327830Y-117184397D01*
X159088315Y-117262219D01*
X158863913Y-117376559D01*
X158761801Y-117450747D01*
X158761800Y-117450748D01*
X159378474Y-118067421D01*
X159347242Y-118080359D01*
X159224403Y-118162437D01*
X159119937Y-118266903D01*
X159037859Y-118389742D01*
X159024921Y-118420974D01*
X158408248Y-117804300D01*
X158408247Y-117804301D01*
X158334059Y-117906413D01*
X158219719Y-118130815D01*
X158141897Y-118370330D01*
X158102500Y-118619071D01*
X142252500Y-118619071D01*
X142213102Y-118370330D01*
X142135280Y-118130815D01*
X142020942Y-117906416D01*
X141946750Y-117804301D01*
X141946750Y-117804300D01*
X141330077Y-118420973D01*
X141317141Y-118389742D01*
X141235063Y-118266903D01*
X141130597Y-118162437D01*
X141007758Y-118080359D01*
X140976524Y-118067421D01*
X141593198Y-117450748D01*
X141491083Y-117376557D01*
X141266684Y-117262219D01*
X141027169Y-117184397D01*
X140778428Y-117145000D01*
X140526572Y-117145000D01*
X140277830Y-117184397D01*
X140038315Y-117262219D01*
X139813913Y-117376559D01*
X139711801Y-117450747D01*
X139711800Y-117450748D01*
X140328474Y-118067421D01*
X140297242Y-118080359D01*
X140174403Y-118162437D01*
X140069937Y-118266903D01*
X139987859Y-118389742D01*
X139974921Y-118420974D01*
X139358248Y-117804300D01*
X139358247Y-117804301D01*
X139284059Y-117906413D01*
X139169719Y-118130815D01*
X139091897Y-118370330D01*
X139052500Y-118619071D01*
X132485806Y-118619071D01*
X131974319Y-118107584D01*
X131940834Y-118046261D01*
X131938000Y-118019903D01*
X131938000Y-110082352D01*
X135809000Y-110082352D01*
X135809000Y-110082357D01*
X135826746Y-110264085D01*
X135826749Y-110264100D01*
X135877098Y-110439608D01*
X135877104Y-110439623D01*
X135958396Y-110603124D01*
X135958402Y-110603132D01*
X136067953Y-110749216D01*
X136202144Y-110873060D01*
X136356538Y-110970565D01*
X136526032Y-111038508D01*
X136526039Y-111038509D01*
X136526041Y-111038510D01*
X136572209Y-111047831D01*
X136705025Y-111074646D01*
X136887603Y-111077783D01*
X137067732Y-111047816D01*
X137239461Y-110985735D01*
X137254622Y-110976899D01*
X137261157Y-110973099D01*
X137261431Y-110973025D01*
X137289253Y-110956765D01*
X137289438Y-110956658D01*
X137292486Y-110955908D01*
X137351761Y-110939858D01*
X138832798Y-110939858D01*
X138832902Y-110939864D01*
X138841105Y-110939863D01*
X138841108Y-110939864D01*
X138873247Y-110939861D01*
X138935806Y-110956792D01*
X138970225Y-110976899D01*
X138971066Y-110977318D01*
X138985537Y-110985752D01*
X139131508Y-111038521D01*
X139157268Y-111047833D01*
X139337400Y-111077799D01*
X139519981Y-111074661D01*
X139698977Y-111038523D01*
X139868473Y-110970577D01*
X140022868Y-110873071D01*
X140157061Y-110749225D01*
X140266617Y-110603132D01*
X140347915Y-110439620D01*
X140398269Y-110264093D01*
X140416016Y-110082350D01*
X140400568Y-109900397D01*
X140352437Y-109724247D01*
X140345084Y-109708929D01*
X140341581Y-109701618D01*
X140341532Y-109701354D01*
X140325173Y-109667371D01*
X140325043Y-109666574D01*
X140313000Y-109613792D01*
X140313000Y-108311044D01*
X140313001Y-108311015D01*
X140313000Y-108302396D01*
X140313002Y-108302392D01*
X140313000Y-108265052D01*
X140325204Y-108211408D01*
X140352539Y-108154439D01*
X140352540Y-108154436D01*
X140352549Y-108154405D01*
X140400646Y-107978287D01*
X140416071Y-107796339D01*
X140398307Y-107614604D01*
X140367605Y-107507618D01*
X140347941Y-107439092D01*
X140347939Y-107439090D01*
X140347939Y-107439087D01*
X140294028Y-107330677D01*
X140266635Y-107275590D01*
X140157074Y-107129507D01*
X140157073Y-107129506D01*
X140022881Y-107005669D01*
X140022878Y-107005667D01*
X140022877Y-107005666D01*
X139868492Y-106908170D01*
X139862300Y-106905688D01*
X139699000Y-106840226D01*
X139698999Y-106840225D01*
X139698995Y-106840224D01*
X139520010Y-106804085D01*
X139516460Y-106803700D01*
X139514908Y-106803055D01*
X139514476Y-106802968D01*
X139514493Y-106802882D01*
X139451937Y-106776894D01*
X139412149Y-106719460D01*
X139409729Y-106649632D01*
X139445445Y-106589581D01*
X139454359Y-106582049D01*
X139492627Y-106552685D01*
X139599542Y-106470646D01*
X139808146Y-106262042D01*
X139987738Y-106027994D01*
X140135243Y-105772507D01*
X140248139Y-105499952D01*
X140324493Y-105214993D01*
X140363000Y-104922506D01*
X140363000Y-104688389D01*
X142092000Y-104688389D01*
X142092000Y-104861611D01*
X142119098Y-105032701D01*
X142172627Y-105197445D01*
X142251268Y-105351788D01*
X142353086Y-105491928D01*
X142475572Y-105614414D01*
X142615712Y-105716232D01*
X142770055Y-105794873D01*
X142934799Y-105848402D01*
X143105889Y-105875500D01*
X143105890Y-105875500D01*
X143279110Y-105875500D01*
X143279111Y-105875500D01*
X143450201Y-105848402D01*
X143614945Y-105794873D01*
X143769288Y-105716232D01*
X143909428Y-105614414D01*
X144031914Y-105491928D01*
X144133732Y-105351788D01*
X144212373Y-105197445D01*
X144265902Y-105032701D01*
X144293000Y-104861611D01*
X144293000Y-104688389D01*
X144265902Y-104517299D01*
X144212373Y-104352555D01*
X144133732Y-104198212D01*
X144031914Y-104058072D01*
X143909428Y-103935586D01*
X143769288Y-103833768D01*
X143614945Y-103755127D01*
X143450201Y-103701598D01*
X143450199Y-103701597D01*
X143450198Y-103701597D01*
X143318771Y-103680781D01*
X143279111Y-103674500D01*
X143105889Y-103674500D01*
X143066228Y-103680781D01*
X142934802Y-103701597D01*
X142770052Y-103755128D01*
X142615711Y-103833768D01*
X142558789Y-103875125D01*
X142475572Y-103935586D01*
X142475570Y-103935588D01*
X142475569Y-103935588D01*
X142353088Y-104058069D01*
X142353088Y-104058070D01*
X142353086Y-104058072D01*
X142336830Y-104080447D01*
X142251268Y-104198211D01*
X142172628Y-104352552D01*
X142119097Y-104517302D01*
X142107516Y-104590424D01*
X142092000Y-104688389D01*
X140363000Y-104688389D01*
X140363000Y-104627494D01*
X140324493Y-104335007D01*
X140248139Y-104050048D01*
X140135243Y-103777493D01*
X140106590Y-103727865D01*
X139987738Y-103522006D01*
X139808147Y-103287959D01*
X139808141Y-103287952D01*
X139599547Y-103079358D01*
X139599540Y-103079352D01*
X139365493Y-102899761D01*
X139110010Y-102752258D01*
X139110000Y-102752254D01*
X138837461Y-102639364D01*
X138837454Y-102639362D01*
X138837452Y-102639361D01*
X138552493Y-102563007D01*
X138501921Y-102556349D01*
X138260013Y-102524500D01*
X138260006Y-102524500D01*
X137964994Y-102524500D01*
X137964986Y-102524500D01*
X137686585Y-102561153D01*
X137672507Y-102563007D01*
X137387548Y-102639361D01*
X137387538Y-102639364D01*
X137114999Y-102752254D01*
X137114989Y-102752258D01*
X136859506Y-102899761D01*
X136625459Y-103079352D01*
X136625452Y-103079358D01*
X136416858Y-103287952D01*
X136416852Y-103287959D01*
X136237261Y-103522006D01*
X136089758Y-103777489D01*
X136089754Y-103777499D01*
X135976864Y-104050038D01*
X135976861Y-104050048D01*
X135948405Y-104156250D01*
X135900508Y-104335004D01*
X135900506Y-104335015D01*
X135862000Y-104627486D01*
X135862000Y-104922513D01*
X135879319Y-105054057D01*
X135900507Y-105214993D01*
X135974712Y-105491930D01*
X135976861Y-105499951D01*
X135976864Y-105499961D01*
X136089754Y-105772500D01*
X136089758Y-105772510D01*
X136237261Y-106027993D01*
X136416852Y-106262040D01*
X136416858Y-106262047D01*
X136625452Y-106470641D01*
X136625459Y-106470647D01*
X136770749Y-106582132D01*
X136811952Y-106638560D01*
X136816107Y-106708306D01*
X136781895Y-106769226D01*
X136720178Y-106801979D01*
X136708654Y-106803783D01*
X136704996Y-106804180D01*
X136526033Y-106840315D01*
X136526028Y-106840316D01*
X136356553Y-106908253D01*
X136202180Y-107005741D01*
X136202171Y-107005748D01*
X136067999Y-107129565D01*
X135958445Y-107275640D01*
X135877150Y-107439120D01*
X135826787Y-107614621D01*
X135809024Y-107796342D01*
X135824447Y-107978268D01*
X135872549Y-108154405D01*
X135872552Y-108154412D01*
X135879812Y-108169545D01*
X135879849Y-108169621D01*
X135883408Y-108177054D01*
X135883465Y-108177348D01*
X135899837Y-108211358D01*
X135899977Y-108212220D01*
X135912000Y-108264917D01*
X135912000Y-108311017D01*
X135912002Y-108311046D01*
X135912002Y-109613792D01*
X135909365Y-109625404D01*
X135910400Y-109633661D01*
X135899945Y-109666892D01*
X135899844Y-109667339D01*
X135899666Y-109667710D01*
X135883470Y-109701355D01*
X135883412Y-109701658D01*
X135879823Y-109709156D01*
X135879808Y-109709172D01*
X135879771Y-109709265D01*
X135872580Y-109724246D01*
X135872577Y-109724254D01*
X135824447Y-109900396D01*
X135814560Y-110016854D01*
X135809654Y-110074654D01*
X135809000Y-110082352D01*
X131938000Y-110082352D01*
X131938000Y-105522464D01*
X131957685Y-105455425D01*
X132010489Y-105409670D01*
X132079647Y-105399726D01*
X132143203Y-105428751D01*
X132162315Y-105449576D01*
X132193086Y-105491928D01*
X132315572Y-105614414D01*
X132455712Y-105716232D01*
X132610055Y-105794873D01*
X132774799Y-105848402D01*
X132945889Y-105875500D01*
X132945890Y-105875500D01*
X133119110Y-105875500D01*
X133119111Y-105875500D01*
X133290201Y-105848402D01*
X133454945Y-105794873D01*
X133609288Y-105716232D01*
X133749428Y-105614414D01*
X133871914Y-105491928D01*
X133973732Y-105351788D01*
X134052373Y-105197445D01*
X134105902Y-105032701D01*
X134133000Y-104861611D01*
X134133000Y-104688389D01*
X134105902Y-104517299D01*
X134052373Y-104352555D01*
X133973732Y-104198212D01*
X133871914Y-104058072D01*
X133819982Y-104006140D01*
X133786497Y-103944817D01*
X133791481Y-103875125D01*
X133833353Y-103819192D01*
X133898817Y-103794775D01*
X133927061Y-103795986D01*
X133927712Y-103796089D01*
X133927715Y-103796090D01*
X134176538Y-103835500D01*
X134176539Y-103835500D01*
X134428461Y-103835500D01*
X134428462Y-103835500D01*
X134677285Y-103796090D01*
X134916879Y-103718241D01*
X135141345Y-103603870D01*
X135345156Y-103455793D01*
X135523293Y-103277656D01*
X135671370Y-103073845D01*
X135785741Y-102849379D01*
X135863590Y-102609785D01*
X135903000Y-102360962D01*
X135903000Y-102109038D01*
X135863590Y-101860215D01*
X135785741Y-101620621D01*
X135785739Y-101620618D01*
X135785739Y-101620616D01*
X135744247Y-101539184D01*
X135671370Y-101396155D01*
X135592169Y-101287144D01*
X135523298Y-101192350D01*
X135523294Y-101192345D01*
X135345154Y-101014205D01*
X135345149Y-101014201D01*
X135141348Y-100866132D01*
X135141347Y-100866131D01*
X135141345Y-100866130D01*
X135071686Y-100830637D01*
X134970705Y-100779184D01*
X134919909Y-100731209D01*
X134903000Y-100668699D01*
X134903000Y-99569071D01*
X139052500Y-99569071D01*
X139052500Y-99820928D01*
X139091897Y-100069669D01*
X139169719Y-100309184D01*
X139284057Y-100533583D01*
X139358248Y-100635697D01*
X139358248Y-100635698D01*
X139974921Y-100019024D01*
X139987859Y-100050258D01*
X140069937Y-100173097D01*
X140174403Y-100277563D01*
X140297242Y-100359641D01*
X140328474Y-100372577D01*
X139711800Y-100989250D01*
X139813916Y-101063442D01*
X140038315Y-101177780D01*
X140277830Y-101255602D01*
X140526572Y-101295000D01*
X140778428Y-101295000D01*
X141027169Y-101255602D01*
X141266684Y-101177780D01*
X141402878Y-101108385D01*
X148518250Y-101108385D01*
X148518250Y-103204120D01*
X148518251Y-103204126D01*
X148524658Y-103263733D01*
X148574952Y-103398578D01*
X148574956Y-103398585D01*
X148661202Y-103513794D01*
X148661203Y-103513794D01*
X148661204Y-103513796D01*
X148704693Y-103546352D01*
X148779349Y-103602240D01*
X148821219Y-103658174D01*
X148826203Y-103727865D01*
X148805355Y-103774391D01*
X148735837Y-103870074D01*
X148628647Y-104080447D01*
X148555684Y-104305002D01*
X148518750Y-104538197D01*
X148518750Y-104774302D01*
X148555684Y-105007497D01*
X148628647Y-105232052D01*
X148735837Y-105442424D01*
X148796088Y-105525354D01*
X148796090Y-105525355D01*
X149535787Y-104785658D01*
X149552825Y-104849243D01*
X149618651Y-104963257D01*
X149711743Y-105056349D01*
X149825757Y-105122175D01*
X149889340Y-105139212D01*
X149143030Y-105885521D01*
X149133855Y-105929197D01*
X149097489Y-105970865D01*
X149041240Y-106011732D01*
X148874235Y-106178737D01*
X148874235Y-106178738D01*
X148874233Y-106178740D01*
X148814612Y-106260800D01*
X148735407Y-106369816D01*
X148628183Y-106580253D01*
X148555196Y-106804881D01*
X148518250Y-107038152D01*
X148518250Y-107274347D01*
X148555196Y-107507618D01*
X148628183Y-107732246D01*
X148725041Y-107922338D01*
X148735407Y-107942683D01*
X148874233Y-108133760D01*
X149041240Y-108300767D01*
X149184547Y-108404886D01*
X149232318Y-108439594D01*
X149306927Y-108477608D01*
X149350544Y-108499832D01*
X149401340Y-108547806D01*
X149418250Y-108610317D01*
X149418250Y-112094580D01*
X149418249Y-112094598D01*
X149418249Y-112260304D01*
X149418248Y-112260304D01*
X149459173Y-112413036D01*
X149459174Y-112413037D01*
X149480226Y-112449500D01*
X149503439Y-112489707D01*
X149538231Y-112549967D01*
X149657099Y-112668835D01*
X149657105Y-112668840D01*
X150002925Y-113014660D01*
X150036410Y-113075983D01*
X150036861Y-113078149D01*
X150067761Y-113233491D01*
X150067764Y-113233501D01*
X150128102Y-113379172D01*
X150128109Y-113379185D01*
X150215710Y-113510288D01*
X150215713Y-113510292D01*
X150327207Y-113621786D01*
X150327211Y-113621789D01*
X150458314Y-113709390D01*
X150458327Y-113709397D01*
X150603998Y-113769735D01*
X150604003Y-113769737D01*
X150758653Y-113800499D01*
X150758656Y-113800500D01*
X150758658Y-113800500D01*
X150916344Y-113800500D01*
X150916345Y-113800499D01*
X151070997Y-113769737D01*
X151216679Y-113709394D01*
X151347789Y-113621789D01*
X151459289Y-113510289D01*
X151546894Y-113379179D01*
X151607237Y-113233497D01*
X151619638Y-113171153D01*
X154287000Y-113171153D01*
X154287000Y-113328846D01*
X154317761Y-113483489D01*
X154317764Y-113483501D01*
X154378102Y-113629172D01*
X154378109Y-113629185D01*
X154465710Y-113760288D01*
X154465713Y-113760292D01*
X154577207Y-113871786D01*
X154577211Y-113871789D01*
X154708314Y-113959390D01*
X154708327Y-113959397D01*
X154853998Y-114019735D01*
X154854003Y-114019737D01*
X155008653Y-114050499D01*
X155008656Y-114050500D01*
X155008658Y-114050500D01*
X155166344Y-114050500D01*
X155166345Y-114050499D01*
X155320997Y-114019737D01*
X155466679Y-113959394D01*
X155466685Y-113959390D01*
X155598375Y-113871398D01*
X155665053Y-113850520D01*
X155667266Y-113850500D01*
X163750831Y-113850500D01*
X163750847Y-113850501D01*
X163758443Y-113850501D01*
X163916554Y-113850501D01*
X163916557Y-113850501D01*
X164069285Y-113809577D01*
X164119404Y-113780639D01*
X164206216Y-113730520D01*
X164318020Y-113618716D01*
X164318020Y-113618714D01*
X164328228Y-113608507D01*
X164328230Y-113608504D01*
X167946006Y-109990728D01*
X167946011Y-109990724D01*
X167956214Y-109980520D01*
X167956216Y-109980520D01*
X168068020Y-109868716D01*
X168086651Y-109836444D01*
X168121419Y-109776226D01*
X168129971Y-109761411D01*
X168147077Y-109731785D01*
X168188001Y-109579057D01*
X168188001Y-109420943D01*
X168188001Y-109413348D01*
X168188000Y-109413330D01*
X168188000Y-94339059D01*
X168188001Y-94339046D01*
X168188001Y-94170945D01*
X168188001Y-94170943D01*
X168147077Y-94018215D01*
X168134090Y-93995723D01*
X168116352Y-93964998D01*
X168116351Y-93964997D01*
X168068021Y-93881286D01*
X168068020Y-93881284D01*
X167956216Y-93769480D01*
X167956215Y-93769479D01*
X167951885Y-93765149D01*
X167951874Y-93765139D01*
X160172074Y-85985339D01*
X160138589Y-85924016D01*
X160138138Y-85921849D01*
X160107238Y-85766510D01*
X160107237Y-85766503D01*
X160107235Y-85766498D01*
X160046897Y-85620827D01*
X160046890Y-85620814D01*
X159959289Y-85489711D01*
X159959286Y-85489707D01*
X159847792Y-85378213D01*
X159847788Y-85378210D01*
X159716685Y-85290609D01*
X159716672Y-85290602D01*
X159571001Y-85230264D01*
X159570989Y-85230261D01*
X159416345Y-85199500D01*
X159416342Y-85199500D01*
X159258658Y-85199500D01*
X159258655Y-85199500D01*
X159104010Y-85230261D01*
X159103998Y-85230264D01*
X158958327Y-85290602D01*
X158958314Y-85290609D01*
X158827211Y-85378210D01*
X158827207Y-85378213D01*
X158715713Y-85489707D01*
X158715710Y-85489711D01*
X158628109Y-85620814D01*
X158628102Y-85620827D01*
X158567764Y-85766498D01*
X158567761Y-85766510D01*
X158537000Y-85921153D01*
X158537000Y-86078846D01*
X158567761Y-86233489D01*
X158567764Y-86233501D01*
X158628102Y-86379172D01*
X158628109Y-86379185D01*
X158715710Y-86510288D01*
X158715713Y-86510292D01*
X158827207Y-86621786D01*
X158827211Y-86621789D01*
X158958314Y-86709390D01*
X158958327Y-86709397D01*
X159100804Y-86768412D01*
X159104003Y-86769737D01*
X159163531Y-86781578D01*
X159259349Y-86800638D01*
X159321260Y-86833023D01*
X159322839Y-86834574D01*
X166950681Y-94462416D01*
X166984166Y-94523739D01*
X166987000Y-94550097D01*
X166987000Y-109199903D01*
X166967315Y-109266942D01*
X166950681Y-109287584D01*
X163625084Y-112613181D01*
X163563761Y-112646666D01*
X163537403Y-112649500D01*
X155667266Y-112649500D01*
X155600227Y-112629815D01*
X155598375Y-112628602D01*
X155466685Y-112540609D01*
X155466672Y-112540602D01*
X155321001Y-112480264D01*
X155320989Y-112480261D01*
X155166345Y-112449500D01*
X155166342Y-112449500D01*
X155008658Y-112449500D01*
X155008655Y-112449500D01*
X154854010Y-112480261D01*
X154853998Y-112480264D01*
X154708327Y-112540602D01*
X154708314Y-112540609D01*
X154577211Y-112628210D01*
X154577207Y-112628213D01*
X154465713Y-112739707D01*
X154465710Y-112739711D01*
X154378109Y-112870814D01*
X154378102Y-112870827D01*
X154317764Y-113016498D01*
X154317761Y-113016510D01*
X154287000Y-113171153D01*
X151619638Y-113171153D01*
X151638000Y-113078842D01*
X151638000Y-112921158D01*
X151638000Y-112921155D01*
X151637999Y-112921153D01*
X151607238Y-112766510D01*
X151607237Y-112766503D01*
X151607235Y-112766498D01*
X151546897Y-112620827D01*
X151546890Y-112620814D01*
X151459289Y-112489711D01*
X151459286Y-112489707D01*
X151347792Y-112378213D01*
X151347788Y-112378210D01*
X151216685Y-112290609D01*
X151216672Y-112290602D01*
X151071001Y-112230264D01*
X151070991Y-112230261D01*
X150915649Y-112199361D01*
X150853738Y-112166976D01*
X150852160Y-112165425D01*
X150655569Y-111968834D01*
X150622084Y-111907511D01*
X150619250Y-111881153D01*
X150619250Y-109208385D01*
X155418250Y-109208385D01*
X155418250Y-111304120D01*
X155418251Y-111304126D01*
X155424658Y-111363733D01*
X155474952Y-111498578D01*
X155474956Y-111498585D01*
X155561202Y-111613794D01*
X155561205Y-111613797D01*
X155676414Y-111700043D01*
X155676421Y-111700047D01*
X155811267Y-111750341D01*
X155811266Y-111750341D01*
X155818194Y-111751085D01*
X155870877Y-111756750D01*
X159166622Y-111756749D01*
X159226233Y-111750341D01*
X159361081Y-111700046D01*
X159476296Y-111613796D01*
X159562546Y-111498581D01*
X159612841Y-111363733D01*
X159619250Y-111304123D01*
X159619249Y-109208378D01*
X159612841Y-109148767D01*
X159562546Y-109013919D01*
X159562545Y-109013918D01*
X159562543Y-109013914D01*
X159476297Y-108898705D01*
X159476294Y-108898702D01*
X159361085Y-108812456D01*
X159361078Y-108812452D01*
X159226232Y-108762158D01*
X159226233Y-108762158D01*
X159166633Y-108755751D01*
X159166631Y-108755750D01*
X159166623Y-108755750D01*
X159166614Y-108755750D01*
X155870879Y-108755750D01*
X155870873Y-108755751D01*
X155811266Y-108762158D01*
X155676421Y-108812452D01*
X155676414Y-108812456D01*
X155561205Y-108898702D01*
X155561202Y-108898705D01*
X155474956Y-109013914D01*
X155474952Y-109013921D01*
X155424658Y-109148767D01*
X155419161Y-109199903D01*
X155418251Y-109208373D01*
X155418250Y-109208385D01*
X150619250Y-109208385D01*
X150619250Y-108610317D01*
X150638935Y-108543278D01*
X150686955Y-108499832D01*
X150805183Y-108439593D01*
X150996260Y-108300767D01*
X151163267Y-108133760D01*
X151302093Y-107942683D01*
X151409318Y-107732242D01*
X151482303Y-107507618D01*
X151493152Y-107439120D01*
X151519250Y-107274347D01*
X151519250Y-107038152D01*
X151482303Y-106804881D01*
X151431859Y-106649632D01*
X151409318Y-106580258D01*
X151409316Y-106580255D01*
X151409316Y-106580253D01*
X151302092Y-106369816D01*
X151163267Y-106178740D01*
X150996260Y-106011733D01*
X150940009Y-105970864D01*
X150897345Y-105915534D01*
X150892652Y-105883705D01*
X150148158Y-105139212D01*
X150211743Y-105122175D01*
X150325757Y-105056349D01*
X150418849Y-104963257D01*
X150484675Y-104849243D01*
X150501712Y-104785659D01*
X151241408Y-105525355D01*
X151241408Y-105525354D01*
X151301664Y-105442419D01*
X151301668Y-105442413D01*
X151408852Y-105232052D01*
X151481815Y-105007497D01*
X151518750Y-104774302D01*
X151518750Y-104538197D01*
X151481815Y-104305002D01*
X151408852Y-104080447D01*
X151301664Y-103870078D01*
X151232144Y-103774392D01*
X151208664Y-103708585D01*
X151224489Y-103640531D01*
X151258151Y-103602239D01*
X151261079Y-103600046D01*
X151261081Y-103600046D01*
X151376296Y-103513796D01*
X151462546Y-103398581D01*
X151512841Y-103263733D01*
X151519250Y-103204123D01*
X151519249Y-101556345D01*
X151538934Y-101489307D01*
X151555563Y-101468670D01*
X155229311Y-97794923D01*
X155290632Y-97761440D01*
X155360324Y-97766424D01*
X155416257Y-97808296D01*
X155440674Y-97873760D01*
X155433173Y-97925935D01*
X155424659Y-97948762D01*
X155424658Y-97948766D01*
X155418251Y-98008366D01*
X155418251Y-98008373D01*
X155418250Y-98008385D01*
X155418250Y-100104120D01*
X155418251Y-100104126D01*
X155424658Y-100163733D01*
X155474952Y-100298578D01*
X155474956Y-100298585D01*
X155561202Y-100413794D01*
X155561205Y-100413797D01*
X155676414Y-100500043D01*
X155676421Y-100500047D01*
X155811267Y-100550341D01*
X155811266Y-100550341D01*
X155818194Y-100551085D01*
X155870877Y-100556750D01*
X159166622Y-100556749D01*
X159226233Y-100550341D01*
X159361081Y-100500046D01*
X159476296Y-100413796D01*
X159562546Y-100298581D01*
X159612841Y-100163733D01*
X159619250Y-100104123D01*
X159619249Y-98008378D01*
X159612841Y-97948767D01*
X159612839Y-97948762D01*
X159562547Y-97813921D01*
X159562543Y-97813914D01*
X159476297Y-97698705D01*
X159476294Y-97698702D01*
X159361085Y-97612456D01*
X159361078Y-97612452D01*
X159226232Y-97562158D01*
X159226233Y-97562158D01*
X159166633Y-97555751D01*
X159166631Y-97555750D01*
X159166623Y-97555750D01*
X159166614Y-97555750D01*
X155870879Y-97555750D01*
X155870873Y-97555751D01*
X155811263Y-97562159D01*
X155788435Y-97570673D01*
X155718744Y-97575655D01*
X155657422Y-97542168D01*
X155623939Y-97480844D01*
X155628926Y-97411152D01*
X155657422Y-97366812D01*
X158090020Y-94934216D01*
X158169077Y-94797284D01*
X158210001Y-94644557D01*
X158210001Y-94486442D01*
X158210001Y-94478847D01*
X158210000Y-94478829D01*
X158210000Y-89869318D01*
X158210000Y-89869317D01*
X158192766Y-89805000D01*
X158169077Y-89716589D01*
X158140139Y-89666469D01*
X158090020Y-89579658D01*
X157978216Y-89467854D01*
X157978215Y-89467853D01*
X157973885Y-89463523D01*
X157973874Y-89463513D01*
X157765367Y-89255006D01*
X157731882Y-89193683D01*
X157736866Y-89123991D01*
X157746314Y-89104208D01*
X157760064Y-89080959D01*
X157806087Y-88922548D01*
X157809000Y-88885534D01*
X157809000Y-88292467D01*
X157828685Y-88225428D01*
X157881489Y-88179673D01*
X157950647Y-88169729D01*
X158014203Y-88198754D01*
X158020681Y-88204786D01*
X161700681Y-91884786D01*
X161734166Y-91946109D01*
X161737000Y-91972467D01*
X161737000Y-104888330D01*
X161736999Y-104888348D01*
X161736999Y-105054054D01*
X161736998Y-105054054D01*
X161736999Y-105054057D01*
X161777923Y-105206785D01*
X161777924Y-105206786D01*
X161782660Y-105214991D01*
X161782662Y-105214993D01*
X161856977Y-105343712D01*
X161856981Y-105343717D01*
X161975849Y-105462585D01*
X161975855Y-105462590D01*
X163065950Y-106552685D01*
X163099435Y-106614008D01*
X163096200Y-106678683D01*
X163055197Y-106804878D01*
X163018250Y-107038152D01*
X163018250Y-107274347D01*
X163055196Y-107507618D01*
X163128183Y-107732246D01*
X163225041Y-107922338D01*
X163235407Y-107942683D01*
X163374233Y-108133760D01*
X163541240Y-108300767D01*
X163732317Y-108439593D01*
X163831741Y-108490252D01*
X163942753Y-108546816D01*
X163942755Y-108546816D01*
X163942758Y-108546818D01*
X164063162Y-108585939D01*
X164167381Y-108619803D01*
X164400653Y-108656750D01*
X164400658Y-108656750D01*
X164636847Y-108656750D01*
X164870118Y-108619803D01*
X164899313Y-108610317D01*
X165094742Y-108546818D01*
X165305183Y-108439593D01*
X165496260Y-108300767D01*
X165663267Y-108133760D01*
X165802093Y-107942683D01*
X165909318Y-107732242D01*
X165982303Y-107507618D01*
X165993152Y-107439120D01*
X166019250Y-107274347D01*
X166019250Y-107038152D01*
X165982303Y-106804881D01*
X165931859Y-106649632D01*
X165909318Y-106580258D01*
X165909316Y-106580255D01*
X165909316Y-106580253D01*
X165802092Y-106369816D01*
X165663267Y-106178740D01*
X165496260Y-106011733D01*
X165305183Y-105872907D01*
X165094746Y-105765683D01*
X164870118Y-105692696D01*
X164636847Y-105655750D01*
X164636842Y-105655750D01*
X164400658Y-105655750D01*
X164400653Y-105655750D01*
X164167378Y-105692697D01*
X164041183Y-105733700D01*
X163971342Y-105735695D01*
X163915185Y-105703450D01*
X162974319Y-104762584D01*
X162940834Y-104701261D01*
X162938000Y-104674903D01*
X162938000Y-102874384D01*
X162957685Y-102807345D01*
X163010489Y-102761590D01*
X163079647Y-102751646D01*
X163143203Y-102780671D01*
X163172485Y-102818089D01*
X163235837Y-102942424D01*
X163296088Y-103025354D01*
X163296090Y-103025355D01*
X164035787Y-102285658D01*
X164052825Y-102349243D01*
X164118651Y-102463257D01*
X164211743Y-102556349D01*
X164325757Y-102622175D01*
X164389340Y-102639212D01*
X163649643Y-103378908D01*
X163732578Y-103439164D01*
X163942947Y-103546352D01*
X164167502Y-103619315D01*
X164167501Y-103619315D01*
X164400698Y-103656250D01*
X164636802Y-103656250D01*
X164869997Y-103619315D01*
X165094552Y-103546352D01*
X165304913Y-103439168D01*
X165304919Y-103439164D01*
X165387854Y-103378908D01*
X165387855Y-103378908D01*
X164648158Y-102639212D01*
X164711743Y-102622175D01*
X164825757Y-102556349D01*
X164918849Y-102463257D01*
X164984675Y-102349243D01*
X165001712Y-102285658D01*
X165741408Y-103025355D01*
X165741408Y-103025354D01*
X165801664Y-102942419D01*
X165801668Y-102942413D01*
X165908852Y-102732052D01*
X165981815Y-102507497D01*
X166018750Y-102274302D01*
X166018750Y-102038197D01*
X165981815Y-101805002D01*
X165908852Y-101580447D01*
X165801664Y-101370078D01*
X165741408Y-101287144D01*
X165741408Y-101287143D01*
X165001712Y-102026840D01*
X164984675Y-101963257D01*
X164918849Y-101849243D01*
X164825757Y-101756151D01*
X164711743Y-101690325D01*
X164648159Y-101673287D01*
X165387855Y-100933590D01*
X165387854Y-100933588D01*
X165304924Y-100873337D01*
X165094552Y-100766147D01*
X164869997Y-100693184D01*
X164869998Y-100693184D01*
X164636802Y-100656250D01*
X164400698Y-100656250D01*
X164167502Y-100693184D01*
X163942947Y-100766147D01*
X163732580Y-100873334D01*
X163649644Y-100933590D01*
X164389341Y-101673287D01*
X164325757Y-101690325D01*
X164211743Y-101756151D01*
X164118651Y-101849243D01*
X164052825Y-101963257D01*
X164035787Y-102026840D01*
X163296090Y-101287144D01*
X163235834Y-101370080D01*
X163172485Y-101494411D01*
X163124510Y-101545207D01*
X163056689Y-101562002D01*
X162990554Y-101539464D01*
X162947103Y-101484749D01*
X162938000Y-101438116D01*
X162938000Y-91593313D01*
X162930438Y-91565090D01*
X162897077Y-91440585D01*
X162832686Y-91329057D01*
X162818020Y-91303654D01*
X162706216Y-91191850D01*
X162706213Y-91191848D01*
X157845318Y-86330953D01*
X157811834Y-86269631D01*
X157809000Y-86243273D01*
X157809000Y-84994473D01*
X157808999Y-84994458D01*
X157808279Y-84985312D01*
X157806087Y-84957452D01*
X157791881Y-84908556D01*
X157760065Y-84799045D01*
X157760064Y-84799042D01*
X157760064Y-84799041D01*
X157676092Y-84657053D01*
X157676090Y-84657051D01*
X157676087Y-84657047D01*
X157559452Y-84540412D01*
X157559444Y-84540406D01*
X157502504Y-84506732D01*
X157454821Y-84455663D01*
X157442317Y-84386921D01*
X157468962Y-84322332D01*
X157502504Y-84293268D01*
X157559447Y-84259592D01*
X157676092Y-84142947D01*
X157760064Y-84000959D01*
X157806087Y-83842548D01*
X157809000Y-83805534D01*
X157809000Y-82454466D01*
X157806087Y-82417452D01*
X157794969Y-82379185D01*
X157760065Y-82259045D01*
X157760064Y-82259042D01*
X157760064Y-82259041D01*
X157676092Y-82117053D01*
X157676090Y-82117051D01*
X157676087Y-82117047D01*
X157559452Y-82000412D01*
X157559444Y-82000406D01*
X157502504Y-81966732D01*
X157454821Y-81915663D01*
X157442317Y-81846921D01*
X157468962Y-81782332D01*
X157502504Y-81753268D01*
X157559447Y-81719592D01*
X157676092Y-81602947D01*
X157760064Y-81460959D01*
X157806087Y-81302548D01*
X157809000Y-81265534D01*
X157809000Y-81063713D01*
X163987000Y-81063713D01*
X163987000Y-81276286D01*
X164016248Y-81460954D01*
X164020254Y-81486243D01*
X164062427Y-81616039D01*
X164085944Y-81688414D01*
X164182451Y-81877820D01*
X164307390Y-82049786D01*
X164457713Y-82200109D01*
X164629682Y-82325050D01*
X164638446Y-82329516D01*
X164689242Y-82377491D01*
X164706036Y-82445312D01*
X164683498Y-82511447D01*
X164638446Y-82550484D01*
X164629682Y-82554949D01*
X164457713Y-82679890D01*
X164307390Y-82830213D01*
X164182451Y-83002179D01*
X164085944Y-83191585D01*
X164020253Y-83393760D01*
X163987000Y-83603713D01*
X163987000Y-83816286D01*
X164016248Y-84000954D01*
X164020254Y-84026243D01*
X164062427Y-84156039D01*
X164085944Y-84228414D01*
X164182451Y-84417820D01*
X164307390Y-84589786D01*
X164457713Y-84740109D01*
X164629682Y-84865050D01*
X164638446Y-84869516D01*
X164689242Y-84917491D01*
X164706036Y-84985312D01*
X164683498Y-85051447D01*
X164638446Y-85090484D01*
X164629682Y-85094949D01*
X164457713Y-85219890D01*
X164307390Y-85370213D01*
X164182451Y-85542179D01*
X164085944Y-85731585D01*
X164020253Y-85933760D01*
X163987000Y-86143713D01*
X163987000Y-86356286D01*
X164011391Y-86510289D01*
X164020254Y-86566243D01*
X164066765Y-86709390D01*
X164085944Y-86768414D01*
X164182451Y-86957820D01*
X164307390Y-87129786D01*
X164457713Y-87280109D01*
X164629679Y-87405048D01*
X164629681Y-87405049D01*
X164629684Y-87405051D01*
X164819088Y-87501557D01*
X165021257Y-87567246D01*
X165231213Y-87600500D01*
X165231214Y-87600500D01*
X165443786Y-87600500D01*
X165443787Y-87600500D01*
X165653743Y-87567246D01*
X165855912Y-87501557D01*
X166045316Y-87405051D01*
X166067289Y-87389086D01*
X166217286Y-87280109D01*
X166217288Y-87280106D01*
X166217292Y-87280104D01*
X166367604Y-87129792D01*
X166367606Y-87129788D01*
X166367609Y-87129786D01*
X166481541Y-86972970D01*
X166492551Y-86957816D01*
X166589057Y-86768412D01*
X166654746Y-86566243D01*
X166688000Y-86356287D01*
X166688000Y-86143713D01*
X166654746Y-85933757D01*
X166589057Y-85731588D01*
X166492551Y-85542184D01*
X166492549Y-85542181D01*
X166492548Y-85542179D01*
X166367609Y-85370213D01*
X166217286Y-85219890D01*
X166045320Y-85094951D01*
X166044615Y-85094591D01*
X166036554Y-85090485D01*
X165985759Y-85042512D01*
X165968963Y-84974692D01*
X165991499Y-84908556D01*
X166036554Y-84869515D01*
X166045316Y-84865051D01*
X166067289Y-84849086D01*
X166217286Y-84740109D01*
X166217288Y-84740106D01*
X166217292Y-84740104D01*
X166367604Y-84589792D01*
X166367606Y-84589788D01*
X166367609Y-84589786D01*
X166481541Y-84432970D01*
X166492551Y-84417816D01*
X166589057Y-84228412D01*
X166654746Y-84026243D01*
X166688000Y-83816287D01*
X166688000Y-83603713D01*
X166654746Y-83393757D01*
X166589057Y-83191588D01*
X166492551Y-83002184D01*
X166492549Y-83002181D01*
X166492548Y-83002179D01*
X166367609Y-82830213D01*
X166217286Y-82679890D01*
X166045320Y-82554951D01*
X166044615Y-82554591D01*
X166036554Y-82550485D01*
X165985759Y-82502512D01*
X165968963Y-82434692D01*
X165991499Y-82368556D01*
X166036554Y-82329515D01*
X166045316Y-82325051D01*
X166067289Y-82309086D01*
X166217286Y-82200109D01*
X166217288Y-82200106D01*
X166217292Y-82200104D01*
X166367604Y-82049792D01*
X166367606Y-82049788D01*
X166367609Y-82049786D01*
X166481541Y-81892970D01*
X166492551Y-81877816D01*
X166589057Y-81688412D01*
X166654746Y-81486243D01*
X166688000Y-81276287D01*
X166688000Y-81063713D01*
X166654746Y-80853757D01*
X166589057Y-80651588D01*
X166492551Y-80462184D01*
X166492549Y-80462181D01*
X166492548Y-80462179D01*
X166367609Y-80290213D01*
X166253681Y-80176285D01*
X166220196Y-80114962D01*
X166225180Y-80045270D01*
X166267052Y-79989337D01*
X166298029Y-79972422D01*
X166429586Y-79923354D01*
X166429593Y-79923350D01*
X166544687Y-79837190D01*
X166544690Y-79837187D01*
X166630850Y-79722093D01*
X166630854Y-79722086D01*
X166681096Y-79587379D01*
X166681098Y-79587372D01*
X166687499Y-79527844D01*
X166687500Y-79527827D01*
X166687500Y-78880000D01*
X165770512Y-78880000D01*
X165803425Y-78822993D01*
X165837500Y-78695826D01*
X165837500Y-78564174D01*
X165803425Y-78437007D01*
X165770512Y-78380000D01*
X166687500Y-78380000D01*
X166687500Y-77732172D01*
X166687499Y-77732155D01*
X166681098Y-77672627D01*
X166681096Y-77672620D01*
X166630854Y-77537913D01*
X166630850Y-77537906D01*
X166544690Y-77422812D01*
X166544687Y-77422809D01*
X166429593Y-77336649D01*
X166429586Y-77336645D01*
X166294879Y-77286403D01*
X166294872Y-77286401D01*
X166235344Y-77280000D01*
X165587500Y-77280000D01*
X165587500Y-78196988D01*
X165530493Y-78164075D01*
X165403326Y-78130000D01*
X165271674Y-78130000D01*
X165144507Y-78164075D01*
X165087500Y-78196988D01*
X165087500Y-77280000D01*
X164439655Y-77280000D01*
X164380127Y-77286401D01*
X164380120Y-77286403D01*
X164245413Y-77336645D01*
X164245406Y-77336649D01*
X164130312Y-77422809D01*
X164130309Y-77422812D01*
X164044149Y-77537906D01*
X164044145Y-77537913D01*
X163993903Y-77672620D01*
X163993901Y-77672627D01*
X163987500Y-77732155D01*
X163987500Y-78380000D01*
X164904488Y-78380000D01*
X164871575Y-78437007D01*
X164837500Y-78564174D01*
X164837500Y-78695826D01*
X164871575Y-78822993D01*
X164904488Y-78880000D01*
X163987500Y-78880000D01*
X163987500Y-79527844D01*
X163993901Y-79587372D01*
X163993903Y-79587379D01*
X164044145Y-79722086D01*
X164044149Y-79722093D01*
X164130309Y-79837187D01*
X164130312Y-79837190D01*
X164245406Y-79923350D01*
X164245413Y-79923354D01*
X164376970Y-79972422D01*
X164432904Y-80014293D01*
X164457321Y-80079758D01*
X164442469Y-80148031D01*
X164421319Y-80176285D01*
X164307389Y-80290215D01*
X164182451Y-80462179D01*
X164085944Y-80651585D01*
X164020253Y-80853760D01*
X163987000Y-81063713D01*
X157809000Y-81063713D01*
X157809000Y-79914466D01*
X157806087Y-79877452D01*
X157760064Y-79719041D01*
X157676092Y-79577053D01*
X157676090Y-79577051D01*
X157676087Y-79577047D01*
X157559452Y-79460412D01*
X157559449Y-79460410D01*
X157559447Y-79460408D01*
X157502011Y-79426440D01*
X157454329Y-79375371D01*
X157441826Y-79306630D01*
X157468472Y-79242040D01*
X157502014Y-79212976D01*
X157559137Y-79179193D01*
X157559143Y-79179189D01*
X157675689Y-79062643D01*
X157675696Y-79062634D01*
X157759602Y-78920756D01*
X157759603Y-78920753D01*
X157805588Y-78762473D01*
X157805589Y-78762467D01*
X157808499Y-78725488D01*
X157808499Y-77374530D01*
X157808498Y-77374508D01*
X157805589Y-77337533D01*
X157759602Y-77179242D01*
X157675696Y-77037365D01*
X157675689Y-77037356D01*
X157559143Y-76920810D01*
X157559134Y-76920803D01*
X157502013Y-76887022D01*
X157454329Y-76835953D01*
X157441826Y-76767211D01*
X157468472Y-76702622D01*
X157502014Y-76673558D01*
X157559441Y-76639596D01*
X157559442Y-76639594D01*
X157559447Y-76639592D01*
X157676092Y-76522947D01*
X157760064Y-76380959D01*
X157806087Y-76222548D01*
X157809000Y-76185534D01*
X157809000Y-74834466D01*
X157806087Y-74797452D01*
X157760064Y-74639041D01*
X157676092Y-74497053D01*
X157676090Y-74497051D01*
X157676087Y-74497047D01*
X157559452Y-74380412D01*
X157559443Y-74380405D01*
X157417457Y-74296435D01*
X157417454Y-74296434D01*
X157259052Y-74250413D01*
X157259046Y-74250412D01*
X157222041Y-74247500D01*
X157222034Y-74247500D01*
X154962966Y-74247500D01*
X154962958Y-74247500D01*
X154925953Y-74250412D01*
X154925947Y-74250413D01*
X154767545Y-74296434D01*
X154767542Y-74296435D01*
X154625556Y-74380405D01*
X154625546Y-74380413D01*
X154529354Y-74476604D01*
X154514561Y-74489239D01*
X154435036Y-74547018D01*
X154294521Y-74687533D01*
X154177713Y-74848305D01*
X154087494Y-75025367D01*
X154087493Y-75025370D01*
X154026087Y-75214362D01*
X153995000Y-75410639D01*
X153995000Y-75609360D01*
X154026087Y-75805637D01*
X154087493Y-75994629D01*
X154087494Y-75994632D01*
X154158830Y-76134635D01*
X154177713Y-76171694D01*
X154294519Y-76332464D01*
X154294521Y-76332466D01*
X154435039Y-76472984D01*
X154514560Y-76530758D01*
X154521286Y-76536007D01*
X154525479Y-76539518D01*
X154625553Y-76639592D01*
X154691708Y-76678716D01*
X154699475Y-76685220D01*
X154713462Y-76706197D01*
X154730670Y-76724627D01*
X154732515Y-76734773D01*
X154738236Y-76743353D01*
X154738661Y-76768564D01*
X154743173Y-76793369D01*
X154739240Y-76802900D01*
X154739415Y-76813212D01*
X154726143Y-76834649D01*
X154716528Y-76857958D01*
X154706143Y-76866956D01*
X154702637Y-76872620D01*
X154695891Y-76875838D01*
X154682987Y-76887021D01*
X154625870Y-76920800D01*
X154625857Y-76920810D01*
X154553860Y-76992806D01*
X154553860Y-76992807D01*
X155173405Y-77612352D01*
X155085929Y-77635792D01*
X154984570Y-77694311D01*
X154901811Y-77777070D01*
X154843292Y-77878429D01*
X154819852Y-77965905D01*
X154205230Y-77351282D01*
X154205229Y-77351283D01*
X154178143Y-77388564D01*
X154087957Y-77565562D01*
X154026575Y-77754476D01*
X154026575Y-77754479D01*
X153995500Y-77950678D01*
X153995500Y-78149321D01*
X154026575Y-78345520D01*
X154026575Y-78345523D01*
X154087957Y-78534437D01*
X154178141Y-78711432D01*
X154205230Y-78748715D01*
X154205231Y-78748716D01*
X154819852Y-78134094D01*
X154843292Y-78221571D01*
X154901811Y-78322930D01*
X154984570Y-78405689D01*
X155085929Y-78464208D01*
X155173404Y-78487647D01*
X154553860Y-79107191D01*
X154625860Y-79179192D01*
X154625864Y-79179195D01*
X154682986Y-79212977D01*
X154730669Y-79264046D01*
X154743173Y-79332788D01*
X154716528Y-79397377D01*
X154699475Y-79414779D01*
X154691704Y-79421285D01*
X154625553Y-79460408D01*
X154525490Y-79560469D01*
X154521284Y-79563992D01*
X154520098Y-79564509D01*
X154514561Y-79569239D01*
X154435036Y-79627018D01*
X154294521Y-79767533D01*
X154177713Y-79928305D01*
X154087494Y-80105367D01*
X154087493Y-80105370D01*
X154026087Y-80294362D01*
X153995000Y-80490639D01*
X153995000Y-80689360D01*
X154026087Y-80885637D01*
X154087493Y-81074629D01*
X154087494Y-81074632D01*
X154177713Y-81251694D01*
X154294519Y-81412464D01*
X154294521Y-81412466D01*
X154435039Y-81552984D01*
X154514560Y-81610758D01*
X154521324Y-81616039D01*
X154525498Y-81619537D01*
X154625553Y-81719592D01*
X154691237Y-81758437D01*
X154699022Y-81764962D01*
X154712988Y-81785926D01*
X154730179Y-81804338D01*
X154732028Y-81814506D01*
X154737760Y-81823110D01*
X154738174Y-81848297D01*
X154742682Y-81873079D01*
X154738739Y-81882634D01*
X154738910Y-81892970D01*
X154725643Y-81914381D01*
X154716036Y-81937669D01*
X154705622Y-81946692D01*
X154702109Y-81952363D01*
X154695371Y-81955575D01*
X154682496Y-81966732D01*
X154625553Y-82000408D01*
X154625546Y-82000413D01*
X154529354Y-82096604D01*
X154514561Y-82109239D01*
X154435036Y-82167018D01*
X154294521Y-82307533D01*
X154177713Y-82468305D01*
X154087494Y-82645367D01*
X154087493Y-82645370D01*
X154026087Y-82834362D01*
X154026087Y-82834364D01*
X153995000Y-83030639D01*
X153995000Y-83229361D01*
X154010543Y-83327498D01*
X154026087Y-83425637D01*
X154087493Y-83614629D01*
X154087494Y-83614632D01*
X154177713Y-83791694D01*
X154294519Y-83952464D01*
X154294521Y-83952466D01*
X154435039Y-84092984D01*
X154514560Y-84150758D01*
X154521324Y-84156039D01*
X154525498Y-84159537D01*
X154625553Y-84259592D01*
X154691237Y-84298437D01*
X154699022Y-84304962D01*
X154712988Y-84325926D01*
X154730179Y-84344338D01*
X154732028Y-84354506D01*
X154737760Y-84363110D01*
X154738174Y-84388297D01*
X154742682Y-84413079D01*
X154738739Y-84422634D01*
X154738910Y-84432970D01*
X154725643Y-84454381D01*
X154716036Y-84477669D01*
X154705622Y-84486692D01*
X154702109Y-84492363D01*
X154695371Y-84495575D01*
X154682496Y-84506732D01*
X154625553Y-84540408D01*
X154625546Y-84540413D01*
X154529354Y-84636604D01*
X154514561Y-84649239D01*
X154435036Y-84707018D01*
X154294521Y-84847533D01*
X154177713Y-85008305D01*
X154087494Y-85185367D01*
X154087493Y-85185370D01*
X154026087Y-85374362D01*
X153995000Y-85570639D01*
X153995000Y-85769360D01*
X154026087Y-85965637D01*
X154087493Y-86154629D01*
X154087494Y-86154632D01*
X154132660Y-86243273D01*
X154177713Y-86331694D01*
X154294519Y-86492464D01*
X154294521Y-86492466D01*
X154435039Y-86632984D01*
X154514560Y-86690758D01*
X154521324Y-86696039D01*
X154525498Y-86699537D01*
X154625553Y-86799592D01*
X154691237Y-86838437D01*
X154699022Y-86844962D01*
X154712988Y-86865926D01*
X154730179Y-86884338D01*
X154732028Y-86894506D01*
X154737760Y-86903110D01*
X154738174Y-86928297D01*
X154742682Y-86953079D01*
X154738739Y-86962634D01*
X154738910Y-86972970D01*
X154725643Y-86994381D01*
X154716036Y-87017669D01*
X154705622Y-87026692D01*
X154702109Y-87032363D01*
X154695371Y-87035575D01*
X154682496Y-87046732D01*
X154625553Y-87080408D01*
X154625546Y-87080413D01*
X154529354Y-87176604D01*
X154514561Y-87189239D01*
X154435036Y-87247018D01*
X154294521Y-87387533D01*
X154177713Y-87548305D01*
X154087494Y-87725367D01*
X154087493Y-87725370D01*
X154026087Y-87914362D01*
X153995000Y-88110639D01*
X153995000Y-88309360D01*
X154026087Y-88505637D01*
X154087493Y-88694629D01*
X154087494Y-88694632D01*
X154177713Y-88871694D01*
X154294519Y-89032464D01*
X154294521Y-89032466D01*
X154435039Y-89172984D01*
X154514560Y-89230758D01*
X154521324Y-89236039D01*
X154525498Y-89239537D01*
X154625553Y-89339592D01*
X154691237Y-89378437D01*
X154699022Y-89384962D01*
X154712988Y-89405926D01*
X154730179Y-89424338D01*
X154732028Y-89434506D01*
X154737760Y-89443110D01*
X154738174Y-89468297D01*
X154742682Y-89493079D01*
X154738739Y-89502634D01*
X154738910Y-89512970D01*
X154725643Y-89534381D01*
X154716036Y-89557669D01*
X154705622Y-89566692D01*
X154702109Y-89572363D01*
X154695371Y-89575575D01*
X154682496Y-89586732D01*
X154625553Y-89620408D01*
X154625546Y-89620413D01*
X154529354Y-89716604D01*
X154514561Y-89729239D01*
X154435036Y-89787018D01*
X154294521Y-89927533D01*
X154177713Y-90088305D01*
X154087494Y-90265367D01*
X154087493Y-90265370D01*
X154026087Y-90454362D01*
X153995000Y-90650639D01*
X153995000Y-90849360D01*
X154026087Y-91045637D01*
X154087493Y-91234629D01*
X154087494Y-91234632D01*
X154176233Y-91408790D01*
X154177713Y-91411694D01*
X154294519Y-91572464D01*
X154294521Y-91572466D01*
X154435039Y-91712984D01*
X154514560Y-91770758D01*
X154529351Y-91783390D01*
X154625553Y-91879592D01*
X154625554Y-91879593D01*
X154625556Y-91879594D01*
X154664787Y-91902795D01*
X154767541Y-91963564D01*
X154776528Y-91966175D01*
X154925947Y-92009586D01*
X154925950Y-92009586D01*
X154925952Y-92009587D01*
X154962966Y-92012500D01*
X155158139Y-92012500D01*
X155356861Y-92012500D01*
X156885000Y-92012500D01*
X156952039Y-92032185D01*
X156997794Y-92084989D01*
X157009000Y-92136500D01*
X157009000Y-94265402D01*
X156989315Y-94332441D01*
X156972681Y-94353083D01*
X150706332Y-100619431D01*
X150645009Y-100652916D01*
X150618651Y-100655750D01*
X148970879Y-100655750D01*
X148970873Y-100655751D01*
X148911266Y-100662158D01*
X148776421Y-100712452D01*
X148776414Y-100712456D01*
X148661205Y-100798702D01*
X148661202Y-100798705D01*
X148574956Y-100913914D01*
X148574952Y-100913921D01*
X148524658Y-101048767D01*
X148518251Y-101108366D01*
X148518250Y-101108385D01*
X141402878Y-101108385D01*
X141491075Y-101063446D01*
X141491088Y-101063438D01*
X141571878Y-101004741D01*
X141571882Y-101004738D01*
X141593197Y-100989250D01*
X141593198Y-100989250D01*
X140976525Y-100372578D01*
X141007758Y-100359641D01*
X141130597Y-100277563D01*
X141235063Y-100173097D01*
X141317141Y-100050258D01*
X141330077Y-100019025D01*
X141946750Y-100635698D01*
X141946750Y-100635697D01*
X142020942Y-100533581D01*
X142020946Y-100533575D01*
X142135280Y-100309184D01*
X142213102Y-100069669D01*
X142252500Y-99820928D01*
X142252500Y-99569071D01*
X142213102Y-99320330D01*
X142135280Y-99080815D01*
X142020942Y-98856416D01*
X141946750Y-98754301D01*
X141946750Y-98754300D01*
X141330077Y-99370973D01*
X141317141Y-99339742D01*
X141235063Y-99216903D01*
X141130597Y-99112437D01*
X141007758Y-99030359D01*
X140976524Y-99017421D01*
X141593198Y-98400748D01*
X141491083Y-98326557D01*
X141266684Y-98212219D01*
X141027169Y-98134397D01*
X140778428Y-98095000D01*
X140526572Y-98095000D01*
X140277830Y-98134397D01*
X140038315Y-98212219D01*
X139813913Y-98326559D01*
X139711801Y-98400747D01*
X139711800Y-98400748D01*
X140328474Y-99017421D01*
X140297242Y-99030359D01*
X140174403Y-99112437D01*
X140069937Y-99216903D01*
X139987859Y-99339742D01*
X139974921Y-99370974D01*
X139358248Y-98754300D01*
X139358247Y-98754301D01*
X139284059Y-98856413D01*
X139169719Y-99080815D01*
X139091897Y-99320330D01*
X139052500Y-99569071D01*
X134903000Y-99569071D01*
X134903000Y-90607467D01*
X134922685Y-90540428D01*
X134939319Y-90519786D01*
X137254319Y-88204786D01*
X137315642Y-88171301D01*
X137385334Y-88176285D01*
X137441267Y-88218157D01*
X137465684Y-88283621D01*
X137466000Y-88292467D01*
X137466000Y-88885541D01*
X137468912Y-88922546D01*
X137468913Y-88922552D01*
X137514934Y-89080954D01*
X137514935Y-89080957D01*
X137598905Y-89222943D01*
X137598912Y-89222952D01*
X137715547Y-89339587D01*
X137715550Y-89339589D01*
X137715553Y-89339592D01*
X137772496Y-89373268D01*
X137820179Y-89424338D01*
X137832682Y-89493079D01*
X137806036Y-89557669D01*
X137772496Y-89586732D01*
X137715553Y-89620408D01*
X137715547Y-89620412D01*
X137598912Y-89737047D01*
X137598905Y-89737056D01*
X137514935Y-89879042D01*
X137514934Y-89879045D01*
X137468913Y-90037447D01*
X137468912Y-90037452D01*
X137465928Y-90075371D01*
X137441043Y-90140659D01*
X137384811Y-90182129D01*
X137374407Y-90185414D01*
X137355719Y-90190421D01*
X137355709Y-90190426D01*
X137218790Y-90269475D01*
X137218782Y-90269481D01*
X136711717Y-90776546D01*
X136711714Y-90776548D01*
X136711715Y-90776549D01*
X136606977Y-90881287D01*
X136558884Y-90964589D01*
X136527923Y-91018215D01*
X136486999Y-91170943D01*
X136486999Y-91170945D01*
X136486999Y-91339046D01*
X136487000Y-91339059D01*
X136487000Y-92663330D01*
X136486999Y-92663348D01*
X136486999Y-92829054D01*
X136486998Y-92829054D01*
X136527923Y-92981785D01*
X136556858Y-93031900D01*
X136556859Y-93031904D01*
X136556860Y-93031904D01*
X136606979Y-93118714D01*
X136606981Y-93118717D01*
X136725849Y-93237585D01*
X136725855Y-93237590D01*
X138102639Y-94614374D01*
X138102649Y-94614385D01*
X138106979Y-94618715D01*
X138106980Y-94618716D01*
X138218784Y-94730520D01*
X138218786Y-94730521D01*
X138218790Y-94730524D01*
X138334425Y-94797285D01*
X138355716Y-94809577D01*
X138467519Y-94839534D01*
X138508442Y-94850500D01*
X138508443Y-94850500D01*
X147007734Y-94850500D01*
X147074773Y-94870185D01*
X147076625Y-94871398D01*
X147208314Y-94959390D01*
X147208327Y-94959397D01*
X147353998Y-95019735D01*
X147354003Y-95019737D01*
X147508653Y-95050499D01*
X147508656Y-95050500D01*
X147508658Y-95050500D01*
X147666344Y-95050500D01*
X147666345Y-95050499D01*
X147820997Y-95019737D01*
X147966679Y-94959394D01*
X148097789Y-94871789D01*
X148209289Y-94760289D01*
X148296894Y-94629179D01*
X148357237Y-94483497D01*
X148388000Y-94328842D01*
X148388000Y-94171158D01*
X148388000Y-94171155D01*
X148387999Y-94171153D01*
X148387957Y-94170943D01*
X148357237Y-94016503D01*
X148301228Y-93881284D01*
X148296897Y-93870827D01*
X148296890Y-93870814D01*
X148209289Y-93739711D01*
X148209286Y-93739707D01*
X148097792Y-93628213D01*
X148097788Y-93628210D01*
X147966685Y-93540609D01*
X147966672Y-93540602D01*
X147821001Y-93480264D01*
X147820989Y-93480261D01*
X147666345Y-93449500D01*
X147666342Y-93449500D01*
X147508658Y-93449500D01*
X147508655Y-93449500D01*
X147354010Y-93480261D01*
X147353998Y-93480264D01*
X147208327Y-93540602D01*
X147208314Y-93540609D01*
X147076625Y-93628602D01*
X147009947Y-93649480D01*
X147007734Y-93649500D01*
X138887597Y-93649500D01*
X138820558Y-93629815D01*
X138799916Y-93613181D01*
X137724319Y-92537584D01*
X137690834Y-92476261D01*
X137688000Y-92449903D01*
X137688000Y-92078969D01*
X137707685Y-92011930D01*
X137760489Y-91966175D01*
X137829647Y-91956231D01*
X137849884Y-91961954D01*
X137850049Y-91961388D01*
X138015947Y-92009586D01*
X138015950Y-92009586D01*
X138015952Y-92009587D01*
X138052966Y-92012500D01*
X138052974Y-92012500D01*
X140312026Y-92012500D01*
X140312034Y-92012500D01*
X140349048Y-92009587D01*
X140349050Y-92009586D01*
X140349052Y-92009586D01*
X140390823Y-91997449D01*
X140507459Y-91963564D01*
X140649447Y-91879592D01*
X140745648Y-91783389D01*
X140760439Y-91770758D01*
X140839964Y-91712981D01*
X140980481Y-91572464D01*
X141097287Y-91411694D01*
X141187505Y-91234632D01*
X141248913Y-91045636D01*
X141280000Y-90849361D01*
X141280000Y-90650639D01*
X141248913Y-90454364D01*
X141218209Y-90359866D01*
X141187506Y-90265370D01*
X141187505Y-90265367D01*
X141097286Y-90088305D01*
X140980481Y-89927536D01*
X140839964Y-89787019D01*
X140760437Y-89729239D01*
X140753675Y-89723960D01*
X140749500Y-89720461D01*
X140649447Y-89620408D01*
X140583759Y-89581560D01*
X140575977Y-89575038D01*
X140562010Y-89554073D01*
X140544821Y-89535663D01*
X140542971Y-89525492D01*
X140537240Y-89516890D01*
X140536824Y-89491702D01*
X140532317Y-89466921D01*
X140536258Y-89457366D01*
X140536088Y-89447030D01*
X140549356Y-89425616D01*
X140558962Y-89402332D01*
X140569374Y-89393309D01*
X140572889Y-89387638D01*
X140579627Y-89384425D01*
X140592504Y-89373268D01*
X140649447Y-89339592D01*
X140745648Y-89243389D01*
X140760439Y-89230758D01*
X140839964Y-89172981D01*
X140980481Y-89032464D01*
X141097287Y-88871694D01*
X141187505Y-88694632D01*
X141248913Y-88505636D01*
X141280000Y-88309361D01*
X141280000Y-88110639D01*
X141248913Y-87914364D01*
X141187505Y-87725368D01*
X141187505Y-87725367D01*
X141097286Y-87548305D01*
X140993206Y-87405051D01*
X140980481Y-87387536D01*
X140839964Y-87247019D01*
X140760437Y-87189239D01*
X140753675Y-87183960D01*
X140749500Y-87180461D01*
X140649447Y-87080408D01*
X140583759Y-87041560D01*
X140575977Y-87035038D01*
X140562010Y-87014073D01*
X140544821Y-86995663D01*
X140542971Y-86985492D01*
X140537240Y-86976890D01*
X140536824Y-86951702D01*
X140532317Y-86926921D01*
X140536258Y-86917366D01*
X140536088Y-86907030D01*
X140549356Y-86885616D01*
X140558962Y-86862332D01*
X140569374Y-86853309D01*
X140572889Y-86847638D01*
X140579627Y-86844425D01*
X140592504Y-86833268D01*
X140649447Y-86799592D01*
X140745648Y-86703389D01*
X140760439Y-86690758D01*
X140839964Y-86632981D01*
X140980481Y-86492464D01*
X141097287Y-86331694D01*
X141187505Y-86154632D01*
X141248913Y-85965636D01*
X141280000Y-85769361D01*
X141280000Y-85570639D01*
X141248913Y-85374364D01*
X141218209Y-85279866D01*
X141187506Y-85185370D01*
X141187505Y-85185367D01*
X141139159Y-85090484D01*
X141097287Y-85008306D01*
X140980481Y-84847536D01*
X140839964Y-84707019D01*
X140760437Y-84649239D01*
X140753675Y-84643960D01*
X140749500Y-84640461D01*
X140649447Y-84540408D01*
X140583759Y-84501560D01*
X140575977Y-84495038D01*
X140562010Y-84474073D01*
X140544821Y-84455663D01*
X140542971Y-84445492D01*
X140537240Y-84436890D01*
X140536824Y-84411702D01*
X140532317Y-84386921D01*
X140536258Y-84377366D01*
X140536088Y-84367030D01*
X140549356Y-84345616D01*
X140558962Y-84322332D01*
X140569374Y-84313309D01*
X140572889Y-84307638D01*
X140579627Y-84304425D01*
X140592504Y-84293268D01*
X140649447Y-84259592D01*
X140745648Y-84163389D01*
X140760439Y-84150758D01*
X140839964Y-84092981D01*
X140980481Y-83952464D01*
X141097287Y-83791694D01*
X141187505Y-83614632D01*
X141248913Y-83425636D01*
X141280000Y-83229361D01*
X141280000Y-83030639D01*
X141248913Y-82834364D01*
X141187505Y-82645368D01*
X141187505Y-82645367D01*
X141139159Y-82550484D01*
X141097287Y-82468306D01*
X140980481Y-82307536D01*
X140839964Y-82167019D01*
X140760437Y-82109239D01*
X140753675Y-82103960D01*
X140749500Y-82100461D01*
X140649447Y-82000408D01*
X140583759Y-81961560D01*
X140575977Y-81955038D01*
X140562010Y-81934073D01*
X140544821Y-81915663D01*
X140542971Y-81905492D01*
X140537240Y-81896890D01*
X140536824Y-81871702D01*
X140532317Y-81846921D01*
X140536258Y-81837366D01*
X140536088Y-81827030D01*
X140549356Y-81805616D01*
X140558962Y-81782332D01*
X140569374Y-81773309D01*
X140572889Y-81767638D01*
X140579627Y-81764425D01*
X140592504Y-81753268D01*
X140649447Y-81719592D01*
X140745648Y-81623389D01*
X140760439Y-81610758D01*
X140839964Y-81552981D01*
X140980481Y-81412464D01*
X141097287Y-81251694D01*
X141187505Y-81074632D01*
X141248913Y-80885636D01*
X141280000Y-80689361D01*
X141280000Y-80490639D01*
X141248913Y-80294364D01*
X141198724Y-80139896D01*
X141187506Y-80105370D01*
X141187505Y-80105367D01*
X141097286Y-79928305D01*
X141090121Y-79918443D01*
X140980481Y-79767536D01*
X140839964Y-79627019D01*
X140760437Y-79569239D01*
X140753675Y-79563960D01*
X140749500Y-79560461D01*
X140649447Y-79460408D01*
X140583759Y-79421560D01*
X140575977Y-79415038D01*
X140562010Y-79394073D01*
X140544821Y-79375663D01*
X140542971Y-79365492D01*
X140537240Y-79356890D01*
X140536824Y-79331702D01*
X140532317Y-79306921D01*
X140536258Y-79297366D01*
X140536088Y-79287030D01*
X140549356Y-79265616D01*
X140558962Y-79242332D01*
X140569374Y-79233309D01*
X140572889Y-79227638D01*
X140579627Y-79224425D01*
X140592504Y-79213268D01*
X140592998Y-79212976D01*
X140649447Y-79179592D01*
X140745648Y-79083389D01*
X140760439Y-79070758D01*
X140839964Y-79012981D01*
X140980481Y-78872464D01*
X141097287Y-78711694D01*
X141187505Y-78534632D01*
X141248913Y-78345636D01*
X141280000Y-78149361D01*
X141280000Y-77950639D01*
X141248913Y-77754364D01*
X141187505Y-77565368D01*
X141187505Y-77565367D01*
X141141535Y-77475149D01*
X141097287Y-77388306D01*
X140980481Y-77227536D01*
X140839964Y-77087019D01*
X140760438Y-77029240D01*
X140753675Y-77023960D01*
X140749500Y-77020461D01*
X140649447Y-76920408D01*
X140583759Y-76881560D01*
X140575977Y-76875038D01*
X140562010Y-76854073D01*
X140544821Y-76835663D01*
X140542971Y-76825492D01*
X140537240Y-76816890D01*
X140536824Y-76791702D01*
X140532317Y-76766921D01*
X140536258Y-76757366D01*
X140536088Y-76747030D01*
X140549356Y-76725616D01*
X140558962Y-76702332D01*
X140569374Y-76693309D01*
X140572889Y-76687638D01*
X140579627Y-76684425D01*
X140592504Y-76673268D01*
X140649447Y-76639592D01*
X140745648Y-76543389D01*
X140760439Y-76530758D01*
X140839964Y-76472981D01*
X140980481Y-76332464D01*
X141097287Y-76171694D01*
X141187505Y-75994632D01*
X141248913Y-75805636D01*
X141280000Y-75609361D01*
X141280000Y-75410639D01*
X141248913Y-75214364D01*
X141187505Y-75025368D01*
X141187505Y-75025367D01*
X141097286Y-74848305D01*
X140980481Y-74687536D01*
X140839964Y-74547019D01*
X140760437Y-74489239D01*
X140745647Y-74476608D01*
X140649447Y-74380408D01*
X140649446Y-74380407D01*
X140649443Y-74380405D01*
X140507457Y-74296435D01*
X140507454Y-74296434D01*
X140349052Y-74250413D01*
X140349046Y-74250412D01*
X140312041Y-74247500D01*
X140312034Y-74247500D01*
X138052966Y-74247500D01*
X138052958Y-74247500D01*
X138015953Y-74250412D01*
X138015947Y-74250413D01*
X137857545Y-74296434D01*
X137857542Y-74296435D01*
X137715556Y-74380405D01*
X137715547Y-74380412D01*
X137598912Y-74497047D01*
X137598905Y-74497056D01*
X137514935Y-74639042D01*
X137514934Y-74639045D01*
X137468913Y-74797447D01*
X137468912Y-74797453D01*
X137466000Y-74834458D01*
X137466000Y-76083272D01*
X137446315Y-76150311D01*
X137429681Y-76170953D01*
X130455981Y-83144652D01*
X130455975Y-83144660D01*
X130410705Y-83223072D01*
X130410705Y-83223073D01*
X130376923Y-83281584D01*
X130376923Y-83281585D01*
X130335999Y-83434313D01*
X130335999Y-83434315D01*
X130335999Y-83602416D01*
X130336000Y-83602429D01*
X130336000Y-85332152D01*
X130316315Y-85399191D01*
X130263511Y-85444946D01*
X130236192Y-85453769D01*
X130103008Y-85480261D01*
X130102998Y-85480264D01*
X129957327Y-85540602D01*
X129957314Y-85540609D01*
X129826211Y-85628210D01*
X129826207Y-85628213D01*
X129714713Y-85739707D01*
X129714710Y-85739711D01*
X129627109Y-85870814D01*
X129627102Y-85870827D01*
X129566764Y-86016498D01*
X129566761Y-86016510D01*
X129536000Y-86171153D01*
X124325500Y-86171153D01*
X124325500Y-80360176D01*
X124345185Y-80293137D01*
X124361819Y-80272495D01*
X131508495Y-73125819D01*
X131569818Y-73092334D01*
X131596176Y-73089500D01*
X170825500Y-73089500D01*
X170892539Y-73109185D01*
G37*
%TD.AperFunction*%
%TD*%
M02*
