%TF.GenerationSoftware,KiCad,Pcbnew,9.0.7*%
%TF.CreationDate,2026-01-29T22:12:25-06:00*%
%TF.ProjectId,macropad,6d616372-6f70-4616-942e-6b696361645f,rev?*%
%TF.SameCoordinates,Original*%
%TF.FileFunction,Legend,Bot*%
%TF.FilePolarity,Positive*%
%FSLAX46Y46*%
G04 Gerber Fmt 4.6, Leading zero omitted, Abs format (unit mm)*
G04 Created by KiCad (PCBNEW 9.0.7) date 2026-01-29 22:12:25*
%MOMM*%
%LPD*%
G01*
G04 APERTURE LIST*
%ADD10C,0.100000*%
G04 APERTURE END LIST*
D10*
%TO.C,D4*%
X142312501Y-148939358D02*
X141412501Y-148939358D01*
X142312501Y-148039358D01*
X142312501Y-148939358D01*
G36*
X142312501Y-148939358D02*
G01*
X141412501Y-148939358D01*
X142312501Y-148039358D01*
X142312501Y-148939358D01*
G37*
%TO.C,D5*%
X161362501Y-148939358D02*
X160462501Y-148939358D01*
X161362501Y-148039358D01*
X161362501Y-148939358D01*
G36*
X161362501Y-148939358D02*
G01*
X160462501Y-148939358D01*
X161362501Y-148039358D01*
X161362501Y-148939358D01*
G37*
%TO.C,D2*%
X142312501Y-129889358D02*
X141412501Y-129889358D01*
X142312501Y-128989358D01*
X142312501Y-129889358D01*
G36*
X142312501Y-129889358D02*
G01*
X141412501Y-129889358D01*
X142312501Y-128989358D01*
X142312501Y-129889358D01*
G37*
%TO.C,D1*%
X142312501Y-110839358D02*
X141412501Y-110839358D01*
X142312501Y-109939358D01*
X142312501Y-110839358D01*
G36*
X142312501Y-110839358D02*
G01*
X141412501Y-110839358D01*
X142312501Y-109939358D01*
X142312501Y-110839358D01*
G37*
%TO.C,D3*%
X161362501Y-129889358D02*
X160462501Y-129889358D01*
X161362501Y-128989358D01*
X161362501Y-129889358D01*
G36*
X161362501Y-129889358D02*
G01*
X160462501Y-129889358D01*
X161362501Y-128989358D01*
X161362501Y-129889358D01*
G37*
%TD*%
M02*
